<?xml version="1.0" standalone="no"?>
<!DOCTYPE svg PUBLIC "-//W3C//DTD SVG 20010904//EN"
 "http://www.w3.org/TR/2001/REC-SVG-20010904/DTD/svg10.dtd">
<svg version="1.0" xmlns="http://www.w3.org/2000/svg"
 width="175.000000pt" height="175.000000pt" viewBox="0 0 175.000000 175.000000"
 preserveAspectRatio="xMidYMid meet">
<metadata>
Created by potrace 1.11, written by Peter Selinger 2001-2013
</metadata>
<g transform="translate(0.000000,175.000000) scale(0.100000,-0.100000)"
fill="#000000" stroke="none">
<path d="M885 1670 c-4 -6 -11 -8 -16 -4 -15 9 -104 -52 -134 -92 -14 -18 -22
-34 -18 -34 4 0 4 -4 -2 -8 -13 -9 -71 -133 -68 -144 2 -4 -2 -8 -8 -8 -5 0
-7 -4 -4 -10 3 -5 1 -10 -5 -10 -6 0 -8 -4 -5 -10 3 -5 3 -10 -2 -10 -4 0 -14
-15 -22 -32 -7 -18 -24 -54 -37 -80 -13 -27 -20 -48 -16 -48 4 0 2 -4 -4 -8
-15 -9 -57 -92 -47 -92 5 0 4 -4 -2 -8 -12 -9 -97 -183 -92 -188 2 -2 36 2 76
9 44 9 156 15 294 16 319 3 379 12 457 70 32 24 74 68 76 81 0 3 6 17 12 33
22 52 21 79 -4 151 -14 39 -28 81 -31 94 -3 12 -8 22 -12 22 -4 0 -7 10 -8 22
-1 11 -7 24 -13 28 -7 4 -11 11 -10 16 2 13 -51 124 -69 148 -24 29 -58 58
-66 56 -4 -1 -11 4 -15 11 -20 31 -189 55 -205 29z m123 -199 c12 -10 22 -23
22 -30 0 -6 5 -11 10 -11 6 0 9 -3 8 -7 -3 -13 25 -83 34 -83 4 0 7 -3 6 -7
-3 -16 15 -63 24 -63 5 0 7 -4 4 -9 -3 -4 2 -27 11 -49 19 -50 14 -66 -29 -88
-27 -15 -63 -18 -206 -19 -194 -2 -184 -8 -141 76 10 20 15 39 12 43 -4 3 -1
6 5 6 10 0 47 82 42 96 -1 4 3 10 8 13 15 10 62 108 54 115 -3 4 4 9 16 13 12
3 22 9 22 14 0 17 76 9 98 -10z"/>
<path d="M1410 963 c0 -13 -57 -73 -69 -73 -6 0 -11 -4 -11 -8 0 -8 -34 -27
-53 -31 -4 0 -23 -7 -42 -15 -59 -25 -109 -29 -440 -32 -176 -2 -333 -5 -350
-8 -16 -3 -45 -7 -64 -10 -72 -11 -191 -65 -191 -87 0 -5 -7 -9 -16 -9 -8 0
-13 -4 -9 -9 3 -6 -1 -13 -8 -18 -20 -11 -69 -92 -62 -102 2 -5 -2 -14 -10
-21 -8 -7 -12 -16 -9 -21 3 -5 0 -9 -5 -9 -6 0 -11 -8 -11 -18 0 -10 -7 -27
-15 -39 -8 -12 -16 -29 -18 -40 -2 -10 -8 -27 -13 -38 -5 -11 -9 -45 -9 -76 0
-66 30 -133 84 -185 57 -55 95 -69 191 -69 137 0 178 32 295 229 41 69 75 128
75 130 0 2 21 48 48 103 l47 98 110 -1 c117 0 152 -7 152 -27 0 -6 27 -61 61
-122 33 -60 83 -152 110 -204 61 -115 97 -155 167 -187 107 -49 221 -28 305
56 89 89 104 195 48 322 -18 40 -37 76 -43 80 -5 4 -6 8 -1 8 4 0 1 11 -8 25
-9 13 -16 31 -16 40 0 8 -4 15 -10 15 -5 0 -10 7 -10 15 0 17 -20 56 -33 66
-5 3 -8 9 -7 13 2 11 -24 76 -31 76 -4 0 -9 10 -13 23 -8 31 -6 28 -32 69 -13
21 -24 42 -24 47 0 5 -7 14 -15 21 -8 7 -12 16 -9 21 3 5 -4 9 -15 9 -12 0
-21 -3 -21 -7z m-23 -285 c0 -14 52 -130 62 -138 3 -3 6 -9 6 -15 1 -21 38
-95 47 -95 5 0 7 -4 4 -9 -3 -4 4 -25 14 -47 11 -21 20 -51 20 -67 0 -38 -43
-77 -84 -77 -50 1 -59 12 -146 175 -24 44 -49 87 -56 95 -7 8 -13 18 -13 23 0
4 -12 30 -26 57 l-25 50 27 6 c16 3 35 8 43 10 8 2 20 5 25 5 6 1 28 10 50 20
48 22 52 23 52 7z m-847 -66 c0 -22 -171 -320 -205 -356 -33 -35 -75 -34 -117
3 l-32 28 21 54 c11 30 29 77 39 104 11 28 22 52 27 53 4 2 7 11 7 19 0 33 80
81 149 89 19 3 36 6 37 7 3 3 74 2 74 -1z"/>
</g>
</svg>
