<?xml version="1.0" encoding="UTF-8"?> <svg xmlns="http://www.w3.org/2000/svg" width="32" height="32" viewBox="0 0 32 32" fill="none"><g id="Icon/Outline/award"><path id="Mask" fill-rule="evenodd" clip-rule="evenodd" d="M16.4075 22.2761C15.9928 22.0481 15.4915 22.0521 15.0875 22.2934L10.0902 25.2267L12.0475 17.6134C13.2142 18.2801 14.5622 18.6667 15.9995 18.6667C17.4368 18.6667 18.7848 18.2801 19.9528 17.6134L21.9382 25.3361L16.4075 22.2761ZM15.9995 5.33341C18.9408 5.33341 21.3328 7.72541 21.3328 10.6667C21.3328 13.6081 18.9408 16.0001 15.9995 16.0001C13.0582 16.0001 10.6662 13.6081 10.6662 10.6667C10.6662 7.72541 13.0582 5.33341 15.9995 5.33341ZM25.2915 27.6681L22.2128 15.6961C23.3275 14.3201 23.9995 12.5721 23.9995 10.6667C23.9995 6.25475 20.4115 2.66675 15.9995 2.66675C11.5888 2.66675 7.99949 6.25475 7.99949 10.6667C7.99949 12.5721 8.67149 14.3201 9.78616 15.6961L6.70882 27.6681C6.57416 28.1907 6.76749 28.7414 7.19816 29.0654C7.62749 29.3894 8.21149 29.4187 8.67416 29.1494L15.7808 24.9774L23.3542 29.1667C23.5555 29.2787 23.7782 29.3334 23.9995 29.3334C24.2888 29.3334 24.5768 29.2401 24.8168 29.0547C25.2368 28.7294 25.4248 28.1841 25.2915 27.6681Z" fill="url(#paint0_linear_12_1012)"></path><mask id="mask0_12_1012" style="mask-type:alpha" maskUnits="userSpaceOnUse" x="6" y="2" width="20" height="28"><path id="Mask_2" fill-rule="evenodd" clip-rule="evenodd" d="M16.4075 22.2761C15.9928 22.0481 15.4915 22.0521 15.0875 22.2934L10.0902 25.2267L12.0475 17.6134C13.2142 18.2801 14.5622 18.6667 15.9995 18.6667C17.4368 18.6667 18.7848 18.2801 19.9528 17.6134L21.9382 25.3361L16.4075 22.2761ZM15.9995 5.33341C18.9408 5.33341 21.3328 7.72541 21.3328 10.6667C21.3328 13.6081 18.9408 16.0001 15.9995 16.0001C13.0582 16.0001 10.6662 13.6081 10.6662 10.6667C10.6662 7.72541 13.0582 5.33341 15.9995 5.33341ZM25.2915 27.6681L22.2128 15.6961C23.3275 14.3201 23.9995 12.5721 23.9995 10.6667C23.9995 6.25475 20.4115 2.66675 15.9995 2.66675C11.5888 2.66675 7.99949 6.25475 7.99949 10.6667C7.99949 12.5721 8.67149 14.3201 9.78616 15.6961L6.70882 27.6681C6.57416 28.1907 6.76749 28.7414 7.19816 29.0654C7.62749 29.3894 8.21149 29.4187 8.67416 29.1494L15.7808 24.9774L23.3542 29.1667C23.5555 29.2787 23.7782 29.3334 23.9995 29.3334C24.2888 29.3334 24.5768 29.2401 24.8168 29.0547C25.2368 28.7294 25.4248 28.1841 25.2915 27.6681Z" fill="white"></path></mask><g mask="url(#mask0_12_1012)"><g id="🎨 Color"><rect id="Base" x="-0.00012207" width="32" height="32" fill="url(#paint1_linear_12_1012)"></rect></g></g></g><defs><linearGradient id="paint0_linear_12_1012" x1="5.07981" y1="29.3334" x2="30.099" y2="23.1724" gradientUnits="userSpaceOnUse"><stop stop-color="#FFA042"></stop><stop offset="0.5" stop-color="#EE0000"></stop><stop offset="1" stop-color="#937CF5"></stop></linearGradient><linearGradient id="paint1_linear_12_1012" x1="-2.72012" y1="32" x2="37.7599" y2="17.76" gradientUnits="userSpaceOnUse"><stop stop-color="#FFA042"></stop><stop offset="0.5" stop-color="#EE0000"></stop><stop offset="1" stop-color="#937CF5"></stop></linearGradient></defs></svg> 