<?xml version="1.0" encoding="UTF-8"?> <svg xmlns="http://www.w3.org/2000/svg" width="96" height="96" viewBox="0 0 96 96" fill="none"><path d="M86 53.5L68 42.5L48 54V76L64.5 86L69 87L85 78L87.5 74V57L86 53.5Z" fill="url(#paint0_linear_39_107)"></path><path d="M11.88 51.68C10.699 52.3895 9.72131 53.392 9.04155 54.5904C8.36179 55.7887 8.00302 57.1423 8 58.52V71.48C8.00302 72.8577 8.36179 74.2113 9.04155 75.4096C9.72131 76.608 10.699 77.6105 11.88 78.32L23.88 85.52C25.1243 86.2675 26.5485 86.6625 28 86.6625C29.4515 86.6625 30.8757 86.2675 32.12 85.52L48 76V54L28 42L11.88 51.68V51.68Z" stroke="#EDF3F8" stroke-width="2" stroke-linecap="round" stroke-linejoin="round"></path><path d="M28 66.0001L9.03998 54.6001" stroke="#EDF3F8" stroke-width="2" stroke-linecap="round" stroke-linejoin="round"></path><path d="M28 66L48 54" stroke="#EDF3F8" stroke-width="2" stroke-linecap="round" stroke-linejoin="round"></path><path d="M28 66V86.68" stroke="#EDF3F8" stroke-width="2" stroke-linecap="round" stroke-linejoin="round"></path><path d="M48 54V76L63.88 85.52C65.1243 86.2675 66.5485 86.6625 68 86.6625C69.4515 86.6625 70.8757 86.2675 72.12 85.52L84.12 78.32C85.301 77.6105 86.2787 76.608 86.9585 75.4096C87.6382 74.2113 87.997 72.8577 88 71.48V58.52C87.997 57.1423 87.6382 55.7887 86.9585 54.5904C86.2787 53.392 85.301 52.3895 84.12 51.68L68 42L48 54Z" stroke="#EDF3F8" stroke-width="2" stroke-linecap="round" stroke-linejoin="round"></path><path d="M68 66L48 54" stroke="#EDF3F8" stroke-width="2" stroke-linecap="round" stroke-linejoin="round"></path><path d="M68 66.0001L86.96 54.6001" stroke="#EDF3F8" stroke-width="2" stroke-linecap="round" stroke-linejoin="round"></path><path d="M68 66V86.68" stroke="#EDF3F8" stroke-width="2" stroke-linecap="round" stroke-linejoin="round"></path><path d="M31.88 17.6799C30.699 18.3894 29.7213 19.3919 29.0415 20.5902C28.3618 21.7886 28.003 23.1422 28 24.5199V41.9999L48 53.9999L68 41.9999V24.5199C67.997 23.1422 67.6382 21.7886 66.9585 20.5902C66.2787 19.3919 65.301 18.3894 64.12 17.6799L52.12 10.4799C50.8757 9.73233 49.4515 9.3374 48 9.3374C46.5485 9.3374 45.1243 9.73233 43.88 10.4799L31.88 17.6799V17.6799Z" stroke="#EDF3F8" stroke-width="2" stroke-linecap="round" stroke-linejoin="round"></path><path d="M48 32.0001L29.04 20.6001" stroke="#EDF3F8" stroke-width="2" stroke-linecap="round" stroke-linejoin="round"></path><path d="M48 32.0001L66.96 20.6001" stroke="#EDF3F8" stroke-width="2" stroke-linecap="round" stroke-linejoin="round"></path><path d="M48 54V32" stroke="#EDF3F8" stroke-width="2" stroke-linecap="round" stroke-linejoin="round"></path><g filter="url(#filter0_b_39_107)"><rect y="66" width="30" height="30" rx="2" fill="url(#paint1_linear_39_107)" fill-opacity="0.2"></rect></g><defs><filter id="filter0_b_39_107" x="-4" y="62" width="38" height="38" filterUnits="userSpaceOnUse" color-interpolation-filters="sRGB"><feFlood flood-opacity="0" result="BackgroundImageFix"></feFlood><feGaussianBlur in="BackgroundImageFix" stdDeviation="2"></feGaussianBlur><feComposite in2="SourceAlpha" operator="in" result="effect1_backgroundBlur_39_107"></feComposite><feBlend mode="normal" in="SourceGraphic" in2="effect1_backgroundBlur_39_107" result="shape"></feBlend></filter><linearGradient id="paint0_linear_39_107" x1="44.6425" y1="87" x2="95.805" y2="71.0244" gradientUnits="userSpaceOnUse"><stop stop-color="#FFA042"></stop><stop offset="0.5" stop-color="#EE0000"></stop><stop offset="1" stop-color="#937CF5"></stop></linearGradient><linearGradient id="paint1_linear_39_107" x1="19.5" y1="65.5909" x2="11.3182" y2="100.091" gradientUnits="userSpaceOnUse"><stop stop-color="#ED6FFF"></stop><stop offset="1" stop-color="#E0E7FF"></stop></linearGradient></defs></svg> 