<?xml version="1.0" encoding="UTF-8"?> <svg xmlns="http://www.w3.org/2000/svg" width="96" height="96" viewBox="0 0 96 96" fill="none"><path d="M16 88H72C74.1217 88 76.1566 87.1571 77.6569 85.6569C79.1571 84.1566 80 82.1217 80 80V30V18C80 12.4772 75.5228 8 70 8L58 8H24C21.8783 8 19.8434 8.84285 18.3431 10.3431C16.8429 11.8434 16 13.8783 16 16V28" stroke="#EDF3F8" stroke-width="2" stroke-linecap="round" stroke-linejoin="round"></path><path d="M20 68C21.5759 68 23.1363 67.6896 24.5922 67.0866C26.0481 66.4835 27.371 65.5996 28.4853 64.4853C29.5996 63.371 30.4835 62.0481 31.0866 60.5922C31.6896 59.1363 32 57.5759 32 56C32 54.4241 31.6896 52.8637 31.0866 51.4078C30.4835 49.9519 29.5996 48.629 28.4853 47.5147C27.371 46.4004 26.0481 45.5165 24.5922 44.9134C23.1363 44.3104 21.5759 44 20 44C16.8174 44 13.7652 45.2643 11.5147 47.5147C9.26428 49.7652 8 52.8174 8 56C8 59.1826 9.26428 62.2348 11.5147 64.4853C13.7652 66.7357 16.8174 68 20 68Z" fill="url(#paint0_linear_39_322)" stroke="#EDF3F8" stroke-width="2" stroke-linecap="round" stroke-linejoin="round"></path><path d="M36 72L30 66" stroke="#EDF3F8" stroke-width="2" stroke-linecap="round" stroke-linejoin="round"></path><rect x="26" y="16" width="45" height="7" rx="2" stroke="#EDF3F8" stroke-width="2"></rect><path d="M26 28.6456C26 28.2891 26.2891 28 26.6456 28H67C69.2091 28 71 29.7909 71 32V47.3063C71 49.3463 69.3463 51 67.3063 51H42.8957C41.861 42.6494 35.8256 35.761 27.6557 33.6526L26 33.2253V28.6456Z" stroke="#EDF3F8" stroke-width="2"></path><rect x="43" y="56" width="28" height="23" rx="4" stroke="#EDF3F8" stroke-width="2"></rect><g filter="url(#filter0_b_39_322)"><rect x="66" y="66" width="30" height="30" rx="2" fill="url(#paint1_linear_39_322)" fill-opacity="0.2"></rect></g><defs><filter id="filter0_b_39_322" x="62" y="62" width="38" height="38" filterUnits="userSpaceOnUse" color-interpolation-filters="sRGB"><feFlood flood-opacity="0" result="BackgroundImageFix"></feFlood><feGaussianBlur in="BackgroundImageFix" stdDeviation="2"></feGaussianBlur><feComposite in2="SourceAlpha" operator="in" result="effect1_backgroundBlur_39_322"></feComposite><feBlend mode="normal" in="SourceGraphic" in2="effect1_backgroundBlur_39_322" result="shape"></feBlend></filter><linearGradient id="paint0_linear_39_322" x1="5.96" y1="68" x2="36.32" y2="57.32" gradientUnits="userSpaceOnUse"><stop stop-color="#FFA042"></stop><stop offset="0.5" stop-color="#EE0000"></stop><stop offset="1" stop-color="#937CF5"></stop></linearGradient><linearGradient id="paint1_linear_39_322" x1="85.5" y1="65.5909" x2="77.3182" y2="100.091" gradientUnits="userSpaceOnUse"><stop stop-color="#ED6FFF"></stop><stop offset="1" stop-color="#E0E7FF"></stop></linearGradient></defs></svg> 