<?xml version="1.0" encoding="UTF-8"?> <svg xmlns="http://www.w3.org/2000/svg" width="32" height="32" viewBox="0 0 32 32" fill="none"><g id="Icon/Outline/flash"><path id="Mask" fill-rule="evenodd" clip-rule="evenodd" d="M9.16132 17.0665H16C16.3787 17.0665 16.74 17.2278 16.992 17.5091C17.244 17.7905 17.3653 18.1665 17.3253 18.5425L16.7267 24.0758L22.8387 14.9331H16C15.6213 14.9331 15.26 14.7718 15.008 14.4905C14.7547 14.2091 14.6333 13.8331 14.6747 13.4571L15.2733 7.92515L9.16132 17.0665ZM14.8147 30.6665C14.6627 30.6665 14.5093 30.6411 14.3587 30.5865C13.7827 30.3758 13.4227 29.7998 13.4893 29.1905L14.5147 19.7331H6.66666C6.17466 19.7331 5.72266 19.4625 5.49066 19.0291C5.25866 18.5945 5.28532 18.0678 5.55866 17.6585L16.0773 1.92648C16.4173 1.41448 17.0627 1.20381 17.64 1.41448C18.2173 1.62381 18.5773 2.20115 18.5107 2.81048L17.4853 12.2665H25.3333C25.8253 12.2665 26.2773 12.5385 26.5093 12.9718C26.7413 13.4065 26.7147 13.9318 26.4413 14.3411L15.9227 30.0745C15.6707 30.4531 15.2493 30.6665 14.8147 30.6665Z" fill="url(#paint0_linear_12_1043)"></path><mask id="mask0_12_1043" style="mask-type:alpha" maskUnits="userSpaceOnUse" x="5" y="1" width="22" height="30"><path id="Mask_2" fill-rule="evenodd" clip-rule="evenodd" d="M9.16132 17.0665H16C16.3787 17.0665 16.74 17.2278 16.992 17.5091C17.244 17.7905 17.3653 18.1665 17.3253 18.5425L16.7267 24.0758L22.8387 14.9331H16C15.6213 14.9331 15.26 14.7718 15.008 14.4905C14.7547 14.2091 14.6333 13.8331 14.6747 13.4571L15.2733 7.92515L9.16132 17.0665ZM14.8147 30.6665C14.6627 30.6665 14.5093 30.6411 14.3587 30.5865C13.7827 30.3758 13.4227 29.7998 13.4893 29.1905L14.5147 19.7331H6.66666C6.17466 19.7331 5.72266 19.4625 5.49066 19.0291C5.25866 18.5945 5.28532 18.0678 5.55866 17.6585L16.0773 1.92648C16.4173 1.41448 17.0627 1.20381 17.64 1.41448C18.2173 1.62381 18.5773 2.20115 18.5107 2.81048L17.4853 12.2665H25.3333C25.8253 12.2665 26.2773 12.5385 26.5093 12.9718C26.7413 13.4065 26.7147 13.9318 26.4413 14.3411L15.9227 30.0745C15.6707 30.4531 15.2493 30.6665 14.8147 30.6665Z" fill="white"></path></mask><g mask="url(#mask0_12_1043)"><g id="🎨 Color"><rect id="Base" x="-0.00012207" width="32" height="32" fill="url(#paint1_linear_12_1043)"></rect></g></g></g><defs><linearGradient id="paint0_linear_12_1043" x1="3.52019" y1="30.6665" x2="31.9829" y2="23.3846" gradientUnits="userSpaceOnUse"><stop stop-color="#FFA042"></stop><stop offset="0.5" stop-color="#EE0000"></stop><stop offset="1" stop-color="#937CF5"></stop></linearGradient><linearGradient id="paint1_linear_12_1043" x1="-2.72012" y1="32" x2="37.7599" y2="17.76" gradientUnits="userSpaceOnUse"><stop stop-color="#FFA042"></stop><stop offset="0.5" stop-color="#EE0000"></stop><stop offset="1" stop-color="#937CF5"></stop></linearGradient></defs></svg> 