<svg width="64" height="64" viewBox="0 0 64 64" fill="none" xmlns="http://www.w3.org/2000/svg">
<path d="M8 24H24V56H14C10.6863 56 8 53.3137 8 50V24Z" fill="url(#paint0_linear_330_402)"/>
<path d="M50.6667 8H13.3333C10.3878 8 8 10.3878 8 13.3333V50.6667C8 53.6122 10.3878 56 13.3333 56H50.6667C53.6122 56 56 53.6122 56 50.6667V13.3333C56 10.3878 53.6122 8 50.6667 8Z" stroke="#EDF3F8" stroke-width="2" stroke-linecap="round" stroke-linejoin="round"/>
<path d="M8 24H56" stroke="#EDF3F8" stroke-width="2" stroke-linecap="round" stroke-linejoin="round"/>
<path d="M24 56V24" stroke="#EDF3F8" stroke-width="2" stroke-linecap="round" stroke-linejoin="round"/>
<g filter="url(#filter0_b_330_402)">
<rect x="42" y="42" width="22" height="22" rx="2" fill="url(#paint1_linear_330_402)" fill-opacity="0.2"/>
</g>
<path d="M48.462 31.9517L48.4547 31.9514C48.4371 31.9509 48.4198 31.9565 48.4058 31.9671C48.3919 31.9777 48.382 31.9925 48.3777 32.0094C48.3777 32.0096 48.3776 32.0098 48.3776 32.0101L47.9281 33.8773L47.8359 34.2602H47.4419H34.0407H34.0363L34.0363 34.2602C34.0253 34.2601 34.0143 34.2624 34.0042 34.2669C33.9949 34.2711 33.9866 34.277 33.9797 34.2843C33.9734 34.2922 33.9687 34.3013 33.9659 34.311C33.9628 34.3217 33.9621 34.3328 33.9637 34.3438L33.9643 34.3475L33.9643 34.3475L35.1186 42.4275L35.1187 42.4282C35.1213 42.4466 35.1304 42.4634 35.1445 42.4756C35.1585 42.4878 35.1764 42.4945 35.195 42.4945L48.462 31.9517ZM48.462 31.9517H48.4693M48.462 31.9517H48.4693M48.4693 31.9517H50.2007C50.2211 31.9517 50.2408 31.9598 50.2552 31.9743C50.2697 31.9887 50.2778 32.0083 50.2778 32.0288C50.2778 32.0493 50.2697 32.0689 50.2552 32.0834C50.2408 32.0978 50.2211 32.1059 50.2007 32.1059H48.9194H48.527L48.4337 32.4872L47.9836 34.3283L47.9778 34.3519L47.9743 34.3761L46.82 42.4272L46.8199 42.4282C46.8173 42.4467 46.808 42.4637 46.7938 42.4759C46.7796 42.4881 46.7615 42.4947 46.7427 42.4945V42.4945M48.4693 31.9517L46.7427 42.4945M46.7427 42.4945H46.7378M46.7427 42.4945H46.7378M46.7378 42.4945H35.195H46.7378ZM46.2357 42.3402H46.6692L46.7307 41.9112L47.7233 34.9855L47.8052 34.4145H47.2284H34.7044H34.1276L34.2095 34.9855L35.2021 41.9112L35.2636 42.3402H35.6971H46.2357ZM35.9216 44.9536C36.219 44.7549 36.5687 44.6488 36.9264 44.6488C37.4061 44.6488 37.8661 44.8394 38.2053 45.1785C38.5444 45.5177 38.735 45.9777 38.735 46.4574C38.735 46.8151 38.6289 47.1647 38.4302 47.4622C38.2314 47.7596 37.949 47.9914 37.6185 48.1283C37.288 48.2652 36.9244 48.301 36.5736 48.2312C36.2227 48.1614 35.9005 47.9892 35.6475 47.7362C35.3946 47.4833 35.2224 47.161 35.1526 46.8102C35.0828 46.4594 35.1186 46.0957 35.2555 45.7653C35.3924 45.4348 35.6242 45.1523 35.9216 44.9536ZM36.0073 47.8329C36.2794 48.0146 36.5992 48.1117 36.9264 48.1117C37.3651 48.1117 37.7859 47.9374 38.0962 47.6271C38.4064 47.3169 38.5807 46.8961 38.5807 46.4574C38.5807 46.1302 38.4837 45.8104 38.3019 45.5383C38.1201 45.2663 37.8617 45.0542 37.5595 44.929C37.2572 44.8038 36.9246 44.771 36.6037 44.8349C36.2828 44.8987 35.988 45.0563 35.7566 45.2876C35.5253 45.519 35.3677 45.8137 35.3039 46.1346C35.2401 46.4555 35.2728 46.7882 35.398 47.0904C35.5232 47.3927 35.7353 47.6511 36.0073 47.8329ZM44.0016 44.9536C44.299 44.7549 44.6487 44.6488 45.0064 44.6488C45.4861 44.6488 45.9461 44.8394 46.2853 45.1785C46.6244 45.5177 46.815 45.9777 46.815 46.4574C46.815 46.8151 46.7089 47.1647 46.5102 47.4622C46.3114 47.7596 46.029 47.9914 45.6985 48.1283C45.368 48.2652 45.0044 48.301 44.6536 48.2312C44.3027 48.1614 43.9805 47.9892 43.7275 47.7362C43.4746 47.4833 43.3024 47.161 43.2326 46.8102C43.1628 46.4594 43.1986 46.0957 43.3355 45.7653C43.4724 45.4348 43.7042 45.1523 44.0016 44.9536ZM44.0873 47.8329C44.3594 48.0146 44.6792 48.1117 45.0064 48.1117C45.4451 48.1117 45.8659 47.9374 46.1762 47.6271C46.4864 47.3169 46.6607 46.8961 46.6607 46.4574C46.6607 46.1302 46.5637 45.8104 46.3819 45.5383C46.2001 45.2663 45.9417 45.0542 45.6395 44.929C45.3372 44.8038 45.0046 44.771 44.6837 44.8349C44.3628 44.8987 44.068 45.0563 43.8366 45.2876C43.6053 45.519 43.4477 45.8137 43.3839 46.1346C43.3201 46.4555 43.3528 46.7882 43.478 47.0904C43.6032 47.3927 43.8153 47.6511 44.0873 47.8329Z" stroke="white"/>
<defs>
<filter id="filter0_b_330_402" x="38" y="38" width="30" height="30" filterUnits="userSpaceOnUse" color-interpolation-filters="sRGB">
<feFlood flood-opacity="0" result="BackgroundImageFix"/>
<feGaussianBlur in="BackgroundImageFix" stdDeviation="2"/>
<feComposite in2="SourceAlpha" operator="in" result="effect1_backgroundBlur_330_402"/>
<feBlend mode="normal" in="SourceGraphic" in2="effect1_backgroundBlur_330_402" result="shape"/>
</filter>
<linearGradient id="paint0_linear_330_402" x1="6.64" y1="56" x2="28.7021" y2="52.1195" gradientUnits="userSpaceOnUse">
<stop stop-color="#FFA042"/>
<stop offset="0.5" stop-color="#EE0000"/>
<stop offset="1" stop-color="#937CF5"/>
</linearGradient>
<linearGradient id="paint1_linear_330_402" x1="56.3" y1="41.7" x2="50.3" y2="67" gradientUnits="userSpaceOnUse">
<stop stop-color="#ED6FFF"/>
<stop offset="1" stop-color="#E0E7FF"/>
</linearGradient>
</defs>
</svg>
