<svg width="64" height="64" viewBox="0 0 64 64" fill="none" xmlns="http://www.w3.org/2000/svg">
<path d="M26.6667 8H8V32H26.6667V8Z" stroke="#EDF3F8" stroke-width="2" stroke-linecap="round" stroke-linejoin="round"/>
<path d="M56 8H37.3333V21.3333H56V8Z" stroke="#EDF3F8" stroke-width="2" stroke-linecap="round" stroke-linejoin="round"/>
<path d="M55 30H38C36.8954 30 36 30.8954 36 32V55C36 56.1046 36.8954 57 38 57H55C56.1046 57 57 56.1046 57 55V32C57 30.8954 56.1046 30 55 30Z" fill="url(#paint0_linear_12_429)"/>
<path d="M26.6667 42.6666H8V56H26.6667V42.6666Z" stroke="#EDF3F8" stroke-width="2" stroke-linecap="round" stroke-linejoin="round"/>
<g filter="url(#filter0_b_12_429)">
<rect x="42" y="42" width="22" height="22" rx="2" fill="url(#paint1_linear_12_429)" fill-opacity="0.2"/>
</g>
<defs>
<filter id="filter0_b_12_429" x="38" y="38" width="30" height="30" filterUnits="userSpaceOnUse" color-interpolation-filters="sRGB">
<feFlood flood-opacity="0" result="BackgroundImageFix"/>
<feGaussianBlur in="BackgroundImageFix" stdDeviation="2"/>
<feComposite in2="SourceAlpha" operator="in" result="effect1_backgroundBlur_12_429"/>
<feBlend mode="normal" in="SourceGraphic" in2="effect1_backgroundBlur_12_429" result="shape"/>
</filter>
<linearGradient id="paint0_linear_12_429" x1="34.215" y1="57" x2="61.9883" y2="49.4011" gradientUnits="userSpaceOnUse">
<stop stop-color="#FFA042"/>
<stop offset="0.5" stop-color="#EE0000"/>
<stop offset="1" stop-color="#937CF5"/>
</linearGradient>
<linearGradient id="paint1_linear_12_429" x1="56.3" y1="41.7" x2="50.3" y2="67" gradientUnits="userSpaceOnUse">
<stop stop-color="#ED6FFF"/>
<stop offset="1" stop-color="#E0E7FF"/>
</linearGradient>
</defs>
</svg>
