<?xml version="1.0" encoding="UTF-8"?> <svg xmlns="http://www.w3.org/2000/svg" width="96" height="96" viewBox="0 0 96 96" fill="none"><path d="M81.0775 64.8879L77.2413 58.75L70.3361 68.7241L69.5688 75.6293L74.1723 80.2328L79.543 81L84.1464 77.1638L85.6809 71.0259L81.0775 64.8879Z" fill="url(#paint0_linear_12_922)"></path><path d="M67.9999 52.0129H7.49988L10.6024 58.2181L20.6858 68.3014L30.7691 78.3847L37.7499 81.4873L67.9999 52.0129Z" fill="url(#paint1_linear_12_922)"></path><path d="M75.9999 44L43.9999 12L9.59988 46.4C8.13406 47.8954 7.31302 49.906 7.31302 52C7.31302 54.094 8.13406 56.1046 9.59988 57.6L30.3999 78.4C33.5999 81.6 38.3999 81.6 41.5999 78.4L75.9999 44Z" stroke="#EDF3F8" stroke-width="2" stroke-linecap="round" stroke-linejoin="round"></path><path d="M19.9999 8L39.9999 28" stroke="#EDF3F8" stroke-width="2" stroke-linecap="round" stroke-linejoin="round"></path><path d="M7.99988 52H67.9999" stroke="#EDF3F8" stroke-width="2" stroke-linecap="round" stroke-linejoin="round"></path><path d="M84.9999 73C84.9999 75.1217 84.157 77.1566 82.6567 78.6569C81.1564 80.1571 79.1216 81 76.9999 81C74.8781 81 72.8433 80.1571 71.343 78.6569C69.8427 77.1566 68.9999 75.1217 68.9999 73C68.9999 66.6 75.7999 63.4 76.9999 57C78.1999 63.4 84.9999 66.6 84.9999 73Z" stroke="#EDF3F8" stroke-width="2" stroke-linecap="round" stroke-linejoin="round"></path><g filter="url(#filter0_b_12_922)"><rect x="-0.00012207" y="66" width="30" height="30" rx="2" fill="url(#paint2_linear_12_922)" fill-opacity="0.2"></rect></g><defs><filter id="filter0_b_12_922" x="-4.00012" y="62" width="38" height="38" filterUnits="userSpaceOnUse" color-interpolation-filters="sRGB"><feFlood flood-opacity="0" result="BackgroundImageFix"></feFlood><feGaussianBlur in="BackgroundImageFix" stdDeviation="2"></feGaussianBlur><feComposite in2="SourceAlpha" operator="in" result="effect1_backgroundBlur_12_922"></feComposite><feBlend mode="normal" in="SourceGraphic" in2="effect1_backgroundBlur_12_922" result="shape"></feBlend></filter><linearGradient id="paint0_linear_12_922" x1="68.1993" y1="81" x2="89.7076" y2="75.5211" gradientUnits="userSpaceOnUse"><stop stop-color="#FFA042"></stop><stop offset="0.5" stop-color="#EE0000"></stop><stop offset="1" stop-color="#937CF5"></stop></linearGradient><linearGradient id="paint1_linear_12_922" x1="2.35738" y1="81.4873" x2="58.8869" y2="40.669" gradientUnits="userSpaceOnUse"><stop stop-color="#FFA042"></stop><stop offset="0.5" stop-color="#EE0000"></stop><stop offset="1" stop-color="#937CF5"></stop></linearGradient><linearGradient id="paint2_linear_12_922" x1="19.4999" y1="65.5909" x2="11.3181" y2="100.091" gradientUnits="userSpaceOnUse"><stop stop-color="#ED6FFF"></stop><stop offset="1" stop-color="#E0E7FF"></stop></linearGradient></defs></svg> 