<?xml version="1.0" standalone="no"?>
<svg version="1.1" id="color_x5F_1" xmlns="http://www.w3.org/2000/svg" xmlns:xlink="http://www.w3.org/1999/xlink" x="0px" y="0px" width="600px" height="600px" viewBox="0 0 600 600" enable-background="new 0 0 600 600" xml:space="preserve">
<path id="color_x5F_12" fill="#6BA7D0" d="M565.53,315.169v17.638l-62.591,36.285l-1.612-1.008l-0.403-0.202l-0.504-0.101h-0.201
	c-0.605-0.102-1.21-0.102-1.714,0h-0.201l-0.504,0.101l-0.403,0.202l-8.668,5.24l-0.303-0.101l-0.302-0.101l-0.303-0.102l-0.403-0.1
	l-0.302-0.102l-0.303-0.101l-0.403-0.101l-0.303-0.102h-0.201c-0.101,0-0.303-0.1-0.403-0.1h-0.101l-0.403-0.102l-0.403-0.101
	l-0.302-0.101l-0.403-0.102l-0.403-0.101h-0.303c-0.101,0-0.302-0.101-0.402-0.101l-0.303-0.101v-7.358v-0.1L565.53,315.169z
	 M421.703,414.043l-0.504-0.101l-0.504-0.101l-0.403-0.201l-0.302-0.202l-0.303-0.302l-0.201-0.303l-0.102-0.303V402.15v-0.907
	l-150.781,88.796L34.269,354.98v13.405l234.335,136.268l156.325-90.509h-2.62L421.703,414.043z"></path>
<path id="color_x5F_11" fill="#FD6322" d="M339.258,264.976c-1.109,0.403-2.621,0.504-3.83,0.504
	c-0.101-0.403-0.303-0.706-0.504-1.008c-0.202-0.302-0.403-0.604-0.605-0.907c0.403-0.604,0.706-1.108,0.605-1.411
	c0-0.201-0.101-0.403-0.303-0.604c1.814-1.209,3.629-2.52,5.141-3.628l-0.101,5.644v0.504l0.101,0.504l0.101,0.303
	c-0.201,0.101-0.303,0.202-0.504,0.302C339.358,265.077,339.258,264.976,339.258,264.976z M344.096,215.791l0.101,1.008l0.201,1.008
	l0.202,1.008l0.302,1.008l0.303,1.008l0.303,1.008l0.402,1.008l0.403,1.008l0.403,1.008l0.504,1.008l0.504,1.008l0.604,1.008
	l0.605,1.008l0.604,1.008l0.604,0.907l0.706,0.907l0.705,0.907l0.706,0.807l0.705,0.806l0.706,0.806l0.806,0.706l0.807,0.706
	l0.807,0.706l0.806,0.605l0.807,0.604l0.806,0.605l0.807,0.504l0.807,0.403l0.806,0.403l0.807,0.403l0.807,0.302l0.806,0.302
	l0.807,0.302l0.403,0.101c0.101-0.302,0.201-0.706,0.303-1.008v-0.101l0.101-0.302c0.101-0.302,0.101-0.706,0.201-1.109v-0.302
	v-0.202c0-0.504,0.101-1.008,0.101-1.612l0,0c0-0.504,0-1.109,0-1.613v-0.302v-0.605c0-0.302,0-0.504-0.101-0.806l-0.101-0.605
	v-0.302c-0.604-3.83-2.016-8.063-4.334-12.095c-0.403-0.706-0.807-1.31-1.21-1.915l-0.101-0.101l-0.302-0.403
	c-0.202-0.302-0.403-0.504-0.605-0.806l-0.504-0.706l-0.201-0.302c-1.108-1.411-2.318-2.722-3.527-3.931l-0.605-0.604l-0.402-0.403
	c-0.202-0.202-0.403-0.403-0.605-0.504l-0.504-0.403l-0.403-0.302c-0.806-0.604-1.612-1.108-2.419-1.613l-0.302-0.201l-0.403-0.202
	c-0.807-0.403-1.714-0.807-2.52-1.109l-0.303-0.101l-0.201-0.101c-0.303-0.101-0.605-0.201-0.907-0.302l-0.101,0.403l-0.202,0.806
	l-0.101,0.806l-0.101,0.807l-0.101,0.907v0.907v0.907l0.101,1.008l0.101,1.008L344.096,215.791z M434.201,332.102l-97.161-56.442
	c-0.101-1.108-0.201-2.217-0.302-3.225c1.209-0.605,2.52-1.209,3.225-1.814c-0.101,0.101-0.101,0.101-0.201,0.201
	c0,0,1.713-1.108,3.83-2.52l10.381,5.846c0.504,0.302,1.108,0.302,1.411,0.101l0,0l8.769-5.039l2.722,4.636
	c0.806,1.31,2.016,2.016,2.822,1.613l8.97-5.141l3.023-1.713l8.87-5.14l0.302-0.202l0.202-0.302l0.101-0.403v-0.403v-0.504
	l-0.101-0.504l-0.202-0.504l-0.302-0.504l-2.722-4.737l8.769-5.04l0.202-0.202l0.201-0.302l0.101-0.403v-0.403l0.303-14.11
	l-0.101-0.504l-0.101-0.504l-0.202-0.504l-0.201-0.504l-0.303-0.403l-0.303-0.403l-0.402-0.302l-0.403-0.302l-8.87-4.939
	l-0.101-0.302l-0.101-0.403l-0.101-0.302l-0.101-0.302l-0.102-0.403l-0.101-0.302l-0.101-0.403l-0.101-0.302l-0.101-0.302
	l-0.102-0.403l-0.101-0.302l-0.101-0.403l-0.101-0.302l-0.102-0.403l-0.101-0.302l-0.101-0.302l-0.101-0.403l-0.101-0.302
	l6.35-3.628l0.302-0.202l0.202-0.302l0.101-0.403l0.101-0.403v-0.403l-0.101-0.504l-0.201-0.504l-0.303-0.504l-8.567-14.917
	l-0.302-0.504l-0.303-0.403l-0.403-0.302l-0.403-0.302l-0.402-0.202l-0.403-0.101h-0.403l-0.303,0.101l-6.35,3.628l-0.201-0.302
	l-0.303-0.303l-0.303-0.302l-0.201-0.302l-0.303-0.302l-0.302-0.303l-0.303-0.302l-0.302-0.302l-0.303-0.303l-0.303-0.302
	l-0.302-0.302l-0.303-0.302l-0.302-0.302l-0.303-0.303l-0.303-0.302l-0.302-0.302l-0.303-0.202l-0.303-0.202l0.202-10.079v-0.504
	l-0.101-0.504l-0.202-0.504l-0.302-0.504l-0.303-0.403l-0.303-0.403l-0.402-0.302l-0.403-0.303l-12.397-6.854l-0.403-0.202
	l-0.403-0.101h-0.302l-0.303,0.101l-8.769,5.04l-2.722-4.636l-0.302-0.504l-0.403-0.403l-0.403-0.302l-0.403-0.303l-0.402-0.201
	l-0.403-0.101h-0.403l-0.303,0.101l-8.97,5.14l-3.024,1.713l-8.869,5.14c-0.101,0.101-0.201,0.101-0.302,0.202l0,0l-0.102,0.101
	c-0.201,0.202-0.302,0.605-0.302,0.907l0,0v0.504l0.101,0.303c0,0.101,0.101,0.201,0.101,0.302l0.101,0.302l0.102,0.101
	c0.101,0.101,0.101,0.202,0.201,0.403l1.512,2.52l1.21,2.116l-8.77,5.04l-0.101,0.101c-0.201,0.101-0.302,0.403-0.403,0.604
	l-0.101,0.101v0.403l-0.201,14.111v0.504l0.101,0.302c0,0.101,0,0.202,0.101,0.302l0.101,0.403l0.202,0.504l0.302,0.403l0.303,0.403
	l0.403,0.302l0.403,0.303l8.769,4.938l0.101,0.303l0.101,0.403l0.102,0.302l0.101,0.303l0.101,0.403l0.101,0.302l0.101,0.403
	l0.102,0.302v0.101c0,0.101,0.101,0.302,0.101,0.403v0.101l0.101,0.302l0.101,0.403l0.101,0.302l0.102,0.403l0.101,0.302v0.101
	c0.101,0.201,0.101,0.403,0.201,0.604l0.102,0.302l-6.351,3.628l-0.302,0.202l-0.202,0.302l-0.101,0.303c0,0.101,0,0.101,0,0.201
	v0.403v0.403l0.101,0.403c0,0.101,0.102,0.303,0.102,0.403l0.101,0.202l0.302,0.504l3.83,6.652
	c-2.923,1.915-4.938,4.737-3.124,7.055c2.217,2.822,0.907,7.962,5.141,9.071c-1.109,0.706-2.017,3.326-2.722,7.358l-50.194-28.927
	V114.295l165.093,95.347V332.102z M297.229,209.743c-12.7-7.358-8.164-4.737-20.864-12.095v5.543
	c12.8,7.458,8.164,4.737,20.864,12.195V209.743z M297.229,197.85c-12.7-7.357-8.164-4.737-20.864-12.095v5.543
	c12.8,7.458,8.164,4.737,20.864,12.196V197.85z M297.229,185.957c-12.7-7.357-8.164-4.737-20.864-12.095v5.543
	c12.8,7.458,8.164,4.737,20.864,12.196V185.957z M324.441,160.457l-16.429-9.474l-5.342-3.024l-16.429-9.474v16.025l21.771,12.599
	v-0.101l16.429,9.575V160.457L324.441,160.457z M339.963,270.519c0.101-0.101,0.202-0.202,0.303-0.202
	C340.266,270.418,340.165,270.519,339.963,270.519z M338.048,254.191c0.303-0.303,0.706-0.706,1.21-1.21l-0.202-0.101l-0.302-0.302
	l-0.303-0.302l-0.303-0.303l-0.302-0.302l-0.303-0.302l-0.101-0.101c-0.101-0.101-0.201-0.201-0.303-0.302l-0.101-0.101
	l-0.302-0.303l-0.303-0.302l-0.303-0.302l-0.201-0.302l-0.303-0.303l-0.302-0.302l-0.303-0.302l-0.201-0.202l-2.117,1.209
	c0.706,3.125,1.109,4.636,0.403,6.451c-0.303,0.706-1.411,1.512-2.822,2.116l0.303,3.528l-0.303-3.225
	c0.303-0.202,0.605-0.403,0.907-0.605C334.117,257.013,336.032,255.905,338.048,254.191z"></path>
<path id="color_x5F_10" fill="#24796D" d="M218.713,228.49l-16.731,9.676l-16.731-9.676l16.126-9.272v-9.374v-12.901l-4.536-3.628
	c-0.101-0.101-0.202-0.202-0.202-0.403c0-0.101,0-0.302,0.101-0.403c0.101-0.201,0.403-0.201,0.604-0.201
	c0.101,0,0.101,0,0.202,0.101l3.83,3.125v-21.267l-4.233-3.427l-4.233-3.427c-0.202-0.101-0.202-0.403-0.202-0.605
	c0-0.101,0.101-0.101,0.101-0.202c0-0.101,0.101-0.101,0.201-0.101c0.202-0.101,0.403-0.101,0.605,0.101l7.761,6.249v-16.126
	l-4.132-3.326c-0.101,0-0.101-0.101-0.101-0.202c0-0.101-0.101-0.101-0.101-0.202c0-0.101,0-0.302,0.101-0.403
	c0-0.101,0.101-0.101,0.201-0.101c0.202-0.101,0.403-0.101,0.605,0l1.915,1.512l1.512,1.209l0,0v-21.367l-1.512-1.209l-6.148-4.939
	c-0.101-0.101-0.201-0.201-0.201-0.403c0-0.101,0-0.101,0-0.202c0-0.101,0.101-0.101,0.101-0.202c0-0.101,0.101-0.101,0.202-0.101
	c0.101,0,0.101-0.101,0.202-0.101c0.101,0,0.302,0,0.403,0.101l6.854,5.544v-8.769l-1.512-1.209c-0.101,0-0.101-0.101-0.101-0.202
	c0-0.101-0.101-0.101-0.101-0.202c0-0.101,0-0.302,0.101-0.403c0-0.101,0.101-0.101,0.202-0.101c0.101-0.101,0.302-0.101,0.403,0
	c0.101,0,0.101,0.101,0.202,0.101l0.807,0.706v-5.141c0-0.302,0.302-0.604,0.604-0.604s0.605,0.302,0.605,0.604v4.032l0.806-0.706
	c0.101,0,0.101-0.101,0.202-0.101c0.202-0.101,0.403,0,0.604,0.202c0,0.101,0.101,0.101,0.101,0.202c0,0.101,0,0.101,0,0.201
	c0,0.101,0,0.101-0.101,0.202c0,0.101-0.101,0.101-0.101,0.202l-1.512,1.209v8.769l6.854-5.543c0,0,0.101,0,0.101-0.101
	c0.101-0.101,0.202-0.101,0.303-0.101c0.101,0,0.302,0.101,0.403,0.201c0.202,0.202,0.101,0.605-0.101,0.807l-7.559,6.148v21.872
	l3.427-2.722c0.101-0.101,0.302-0.101,0.403-0.101c0.101,0,0.303,0.101,0.403,0.202c0.101,0.101,0.101,0.302,0.101,0.403
	c0,0.101-0.101,0.303-0.202,0.403l-4.132,3.326v16.126l4.334-3.427l3.427-2.822c0.202-0.202,0.604-0.202,0.806,0.101
	c0,0.101,0.101,0.101,0.101,0.202s0,0.302,0,0.403c0,0.101-0.101,0.101-0.101,0.201l-8.466,6.753v21.267l3.83-3.125
	c0.101-0.101,0.202-0.101,0.403-0.101l0,0c0.101,0,0.101,0,0.201,0.101c0.101,0,0.101,0.101,0.202,0.101
	c0,0.101,0.101,0.101,0.101,0.202c0,0.101,0,0.302,0,0.403c0,0.101-0.101,0.202-0.202,0.202l-4.536,3.628v13.506v9.374
	L218.713,228.49z"></path>
<path id="color_x5F_9" fill="#F7F7F7" d="M339.963,264.976c-0.201-0.403-0.302-0.907-0.201-1.31l0.101-5.645
	c1.411-1.008,2.419-1.814,2.722-2.217c0.806-1.209,3.325-7.962,3.931-9.776c3.124,2.116,6.35,3.326,9.272,3.225
	c0,0.806-0.303,1.512-0.604,1.915c-0.102,0.101-0.102,0.101,0,0.202C350.445,259.533,348.43,260.239,339.963,264.976z
	 M299.849,312.851l-7.357,4.233l12.599,7.257l7.357-4.233L299.849,312.851z M272.132,294.104l12.599,7.257l7.357-4.234
	l-12.599-7.257L272.132,294.104z M302.57,325.853l-12.599-7.257l-7.358,4.232l12.599,7.258L302.57,325.853z M294.608,298.539
	l-7.358,4.233l12.599,7.258l7.357-4.234L294.608,298.539z M317.588,334.521l-12.599-7.257l-7.358,4.232l12.599,7.258
	L317.588,334.521z M297.329,311.439l-12.599-7.257l-7.358,4.233l12.599,7.257L297.329,311.439z M252.579,305.493l12.599,7.257
	l7.357-4.233l-12.599-7.257L252.579,305.493z M287.553,317.185l-12.599-7.257l-7.357,4.233l12.599,7.257L287.553,317.185z
	 M262.758,314.161l-12.599-7.257l-7.358,4.232l12.599,7.258L262.758,314.161z M292.793,331.496l-12.599-7.256l-7.357,4.232
	l12.599,7.258L292.793,331.496z M277.776,322.828l-12.599-7.256l-7.357,4.232l12.599,7.258L277.776,322.828z M257.114,285.436
	l12.599,7.257l7.357-4.233l-12.599-7.257L257.114,285.436z M307.812,340.164l-12.599-7.256l-7.357,4.232l12.599,7.258
	L307.812,340.164z M247.337,291.08l12.599,7.257l7.358-4.233l-12.599-7.257L247.337,291.08z M227.684,302.469l12.599,7.258
	l7.357-4.233l-12.599-7.257L227.684,302.469z M237.561,296.724l12.599,7.257l7.357-4.233l-12.599-7.257L237.561,296.724z
	 M262.355,299.748l12.599,7.257l7.358-4.233l-12.599-7.257L262.355,299.748z M322.627,342.281c0.102-0.504,0.102-1.109,0.303-1.713
	c0.303-0.404,0.604-0.706,1.512-0.706c2.016,0.101,2.621,2.722,1.21,4.334c-1.21,1.512-2.318,1.008-2.923,1.714l2.62,1.512
	l5.846-3.428l-0.101-1.713l-7.761-4.535C323.03,339.561,322.729,341.072,322.627,342.281z M323.736,335.227l7.257,4.132
	l-0.403-8.769l-0.706-0.403l-5.846,3.326C323.938,334.117,323.837,334.723,323.736,335.227z M334.117,352.461L334.117,352.461
	l6.148,3.629l7.357-4.233l-12.599-7.257l0,0c-0.303,2.116-0.504,3.83-0.604,4.938c0.101-0.806,0.302-1.814,0.403-3.124
	c0.302-0.202,0.604-0.303,1.209-0.303c2.016,0.101,2.62,2.721,1.21,4.334C335.932,352.058,334.722,351.252,334.117,352.461z
	 M324.542,330.488l2.923-1.713l-2.317-1.311C324.945,328.473,324.744,329.48,324.542,330.488z M201.982,257.417l8.063-4.636
	l8.567-24.291l-16.731,9.676l-16.731-9.676l8.265,24.089L201.982,257.417z M330.388,327.063l-0.101-1.512
	c0,0-1.713-3.932-3.427-8.467l0,0c-0.403,2.52-0.907,5.141-1.311,7.761l4.334,2.52L330.388,327.063z M302.873,345.809l12.599,7.258
	l7.357-4.234l-12.599-7.256L302.873,345.809z M347.32,337.544l12.599,7.257l7.358-4.232l-12.599-7.258L347.32,337.544z
	 M332.908,363.145l12.599,7.257l7.357-4.233l-12.599-7.256L332.908,363.145z M317.891,354.477l12.599,7.257l7.357-4.233
	l-12.599-7.256L317.891,354.477z M382.295,349.236l-12.599-7.258l-7.358,4.233l12.6,7.257L382.295,349.236z M331.396,349.336
	l-0.101-2.62l-3.628,2.116l3.83,2.218c0-0.302,0-0.504,0.101-0.806C331.497,349.941,331.396,349.74,331.396,349.336z
	 M337.04,326.055c-0.101,1.512-0.201,3.225-0.403,5.24l8.265,4.737l7.358-4.233l-12.599-7.256L337.04,326.055z M350.143,350.445
	l2.419,1.411l12.599,7.257l7.357-4.233l-12.599-7.257l-4.535-2.621l-10.482-6.047l-7.357,4.233L350.143,350.445z M362.741,360.523
	l-12.599-7.256l-7.357,4.232l12.599,7.258L362.741,360.523z M522.393,388.342v10.281c0,0.906-1.21,1.713-2.822,1.713h-12.196
	l-0.101,0.201c-0.604,1.109-1.411,2.318-2.318,3.428l-0.201,0.201l8.668,5.141c1.108,0.604,1.108,1.713,0,2.419l-12.095,7.257
	c-1.108,0.705-2.923,0.705-3.931,0l-8.668-5.141l-0.303,0.101c-1.813,0.604-3.729,1.008-5.644,1.411l-0.303,0.101v7.358
	c0,0.906-1.21,1.713-2.822,1.713h-17.134c-1.512,0-2.822-0.705-2.822-1.713v-7.56l-0.303-0.101c-1.915-0.403-3.83-0.807-5.644-1.411
	l-0.303-0.101l-8.668,5.14c-1.108,0.706-2.822,0.706-3.931,0l-12.095-7.257c-1.108-0.604-1.108-1.713,0-2.419l8.668-5.14
	l-0.101-0.202c-0.907-1.108-1.714-2.218-2.419-3.427l-0.102-0.201h-12.497c-1.513,0-2.822-0.706-2.822-1.714v-10.28
	c0-0.605,0.604-1.109,1.411-1.411c0.201-0.101,0.402-0.101,0.604-0.101c0.302,0,0.504-0.102,0.807-0.102h5.442h6.854l0.101-0.201
	c0.604-1.209,1.411-2.318,2.419-3.427l0.101-0.202l-8.668-5.24c-0.504-0.303-0.806-0.706-0.806-1.109
	c0-0.402,0.201-0.906,0.806-1.209l12.095-7.257c0.303-0.202,0.605-0.303,1.009-0.403c0.604-0.101,1.209-0.101,1.813,0
	c0.403,0.101,0.807,0.201,1.109,0.403l8.667,5.241l0.303-0.102c0.907-0.302,1.714-0.504,2.621-0.705
	c0.101,0,0.302-0.101,0.402-0.101c0.706-0.202,1.512-0.303,2.218-0.505c0.101,0,0.303-0.1,0.403-0.1l0.302-0.102v-7.357
	c0-0.201,0.102-0.303,0.102-0.504c0-0.101,0.101-0.101,0.101-0.201c0.201-0.303,0.504-0.504,1.008-0.706l0,0h0.101
	c0.202-0.101,0.403-0.101,0.604-0.202c0.303,0,0.504-0.1,0.807-0.1h17.134c0.303,0,0.605,0,0.807,0.1
	c0.101,0,0.303,0.102,0.403,0.102c0.604,0.201,1.008,0.504,1.311,0.807c0,0.101,0.101,0.101,0.101,0.201
	c0.101,0.201,0.101,0.303,0.101,0.504v7.357l0.303,0.102c0.101,0,0.302,0.1,0.403,0.1c0.705,0.202,1.512,0.303,2.217,0.504
	c0.101,0,0.303,0.102,0.403,0.102c0.907,0.201,1.814,0.504,2.62,0.705l0.303,0.102l8.668-5.241c0.303-0.202,0.705-0.303,1.108-0.403
	c0.604-0.102,1.109-0.102,1.714,0c0.403,0.101,0.806,0.201,1.108,0.403l1.612,1.008l10.482,6.249
	c0.604,0.303,0.807,0.807,0.807,1.209c0,0.403-0.303,0.807-0.807,1.109l-8.668,5.24l0.202,0.202
	c0.906,1.108,1.713,2.218,2.317,3.427l0.102,0.201h6.854h5.442c0.303,0,0.504,0,0.705,0.102c0.303,0,0.504,0.101,0.706,0.201
	c0.403,0.201,0.807,0.403,1.008,0.705c0,0.102,0.101,0.102,0.101,0.202C522.393,388.039,522.393,388.141,522.393,388.342z
	 M494.07,393.482c0-7.66-10.382-13.809-23.081-13.809s-23.081,6.148-23.081,13.809c0,2.721,1.311,5.241,3.629,7.357
	c0.303,0.303,0.604,0.504,0.907,0.807c0.302,0.302,0.705,0.504,1.108,0.806c0.604,0.403,1.21,0.807,1.915,1.21
	c0.403,0.201,0.807,0.403,1.21,0.604c0.806,0.403,1.612,0.706,2.419,1.008c0.402,0.202,0.806,0.303,1.31,0.403
	c0.807,0.201,1.613,0.504,2.419,0.604c0.504,0.102,0.907,0.202,1.411,0.303c0.706,0.101,1.512,0.303,2.218,0.303
	c0.504,0.101,1.008,0.101,1.612,0.201c1.008,0.101,2.016,0.101,3.125,0.101c1.008,0,2.016,0,3.023-0.101
	c0.604,0,1.209-0.101,1.814-0.201c0.604-0.102,1.209-0.202,1.813-0.303c0.605-0.101,1.21-0.202,1.814-0.403
	c1.008-0.201,2.016-0.504,3.023-0.907c0.202-0.101,0.403-0.101,0.605-0.201c0.705-0.303,1.411-0.604,2.116-0.907
	c0.504-0.201,1.008-0.504,1.512-0.807c0.604-0.302,1.21-0.705,1.714-1.108c0.201-0.101,0.403-0.303,0.604-0.403
	c0.705-0.504,1.411-1.108,1.915-1.713C492.86,398.32,494.07,396.002,494.07,393.482z M357.803,366.168l12.599,7.258l7.357-4.234
	l-12.599-7.256L357.803,366.168z M347.926,371.813l12.599,7.257l7.357-4.233l-12.599-7.256L347.926,371.813z M300.454,347.22
	l-7.358,4.233l12.6,7.257l7.357-4.233L300.454,347.22z M399.731,356.492l7.357-4.232l-12.599-7.258l-7.357,4.234L399.731,356.492z
	 M377.355,354.88l12.6,7.257l7.357-4.232l-12.599-7.258L377.355,354.88z M315.472,355.888l-7.358,4.233l12.599,7.257l7.358-4.233
	L315.472,355.888z M330.489,364.556l-7.358,4.233l12.599,7.257l7.358-4.233L330.489,364.556z M338.148,377.457l12.599,7.257
	l7.358-4.233l-12.599-7.257L338.148,377.457z M367.579,360.523l12.599,7.258l7.358-4.233l-12.599-7.257L367.579,360.523z
	 M342.482,337.544l-6.147-3.527c-0.303,2.52-0.605,5.14-0.907,7.56L342.482,337.544z M383.807,238.267l-8.869-4.939l-0.102-0.302
	c-0.403-1.814-1.008-3.729-1.612-5.543l-0.101-0.302l6.35-3.628c0.807-0.504,0.807-1.915,0.101-3.326l-8.567-14.816
	c-0.806-1.311-2.016-2.016-2.821-1.613l-6.351,3.628l-0.201-0.302c-1.311-1.512-2.62-2.923-4.031-4.233l-0.303-0.202l0.201-10.079
	c0-1.311-0.906-2.822-2.016-3.427l-12.396-6.854c-1.109-0.604-2.016-0.101-2.016,1.209l-0.202,10.079l-0.303-0.101
	c-1.41-0.302-2.821-0.403-4.132-0.302h-0.303l-6.147-10.583c-0.807-1.311-2.017-2.016-2.822-1.613l-8.87,5.14
	c-0.101,0.101-0.201,0.101-0.302,0.202l-0.101,0.101c-0.202,0.202-0.303,0.605-0.303,0.907c0,0.202,0,0.504,0.101,0.806
	c0,0.101,0.101,0.202,0.101,0.303c0.102,0.201,0.102,0.302,0.202,0.504c0.101,0.101,0.101,0.202,0.201,0.403l1.512,2.52l4.637,8.063
	l-0.101,0.202c-0.706,1.109-1.311,2.419-1.714,3.729l-0.101,0.202l-8.869-4.938c-0.605-0.302-1.109-0.302-1.512,0
	c-0.202,0.101-0.303,0.403-0.403,0.604c0,0.202-0.101,0.403-0.101,0.605l-0.202,14.11c0,0.302,0,0.605,0.101,0.807
	c0,0.101,0,0.201,0.102,0.302c0.302,1.008,1.008,1.915,1.813,2.318l8.769,4.939l0.102,0.302c0.201,0.806,0.402,1.713,0.705,2.52
	c0,0.101,0.101,0.302,0.101,0.403c0.202,0.706,0.403,1.411,0.605,2.016c0.101,0.201,0.101,0.403,0.201,0.604l0.101,0.302
	l-6.35,3.628c-0.303,0.202-0.403,0.403-0.504,0.807c0,0.101,0,0.101,0,0.201c-0.101,0.303,0,0.706,0.101,1.21
	c0,0.101,0.101,0.302,0.101,0.403c0.102,0.202,0.202,0.504,0.303,0.706l3.83,6.652c2.52-1.613,5.745-2.621,8.265-2.218
	c3.527,0.706,4.031,3.427,5.442,2.318c0,0,0.504,0.101-0.806,1.814c-0.605,0.806-1.311,1.612-2.117,2.318
	c0.101-0.101,0.101-0.101,0.202-0.202c0.201,0.504,0.403,1.008,0.604,1.613c0.101,0.605,0.201,1.109,0.403,1.512l2.116-1.209l0,0
	l0.202,0.202c0.604,0.706,1.209,1.31,1.813,2.016c0.102,0.101,0.202,0.202,0.303,0.303c0.504,0.504,1.008,1.008,1.612,1.512
	c2.117-2.419,4.737-6.753,5.544-8.063c0,0,0-0.101,0.101-0.101c-3.023-2.419-5.946-5.745-8.265-9.776
	c-6.35-11.087-6.148-23.081,0.403-26.911c2.217-1.31,4.737-1.411,7.559-0.806c0.303,0.101,0.605,0.202,0.907,0.302
	c0.202,0.101,0.303,0.101,0.504,0.202c0.807,0.302,1.714,0.706,2.52,1.109c0.202,0.101,0.505,0.202,0.706,0.403
	c0.807,0.504,1.612,1.008,2.419,1.613c0.303,0.202,0.604,0.504,0.907,0.706c0.201,0.202,0.403,0.403,0.604,0.504
	c0.303,0.302,0.706,0.605,1.008,0.907c1.21,1.209,2.419,2.52,3.527,3.931c0.202,0.302,0.505,0.706,0.706,1.008
	c0.201,0.303,0.403,0.504,0.604,0.807c0.101,0.201,0.202,0.302,0.303,0.504c0.403,0.604,0.806,1.209,1.209,1.915
	c2.318,4.031,3.83,8.265,4.334,12.095c0,0.302,0.101,0.504,0.101,0.806s0.102,0.504,0.102,0.806c0,0.303,0.101,0.605,0.101,0.807
	c0,0.504,0,1.108,0,1.612l0,0c0,0.504,0,1.109-0.101,1.613c0,0.202,0,0.302-0.102,0.504c0,0.403-0.101,0.706-0.201,1.109
	c0,0.101-0.101,0.302-0.101,0.403c-0.101,0.303-0.202,0.706-0.303,1.008c-0.806,2.721-2.217,4.838-4.435,6.148
	c-0.504,0.302-1.008,0.504-1.512,0.706c-0.403,0.806-1.108,1.915-1.411,2.52c-0.604,1.613-3.124,8.668-3.931,9.877
	c-0.604,0.907-5.846,4.435-9.575,6.955l10.382,5.846c0.504,0.302,1.108,0.302,1.41,0.101c0.403-0.201,0.605-0.705,0.605-1.31
	l0.201-10.079l0.202,0.101c1.41,0.302,2.821,0.403,4.132,0.302h0.202l3.427,5.947l2.721,4.636c0.807,1.31,2.016,2.016,2.822,1.612
	l8.971-5.14c0.806-0.403,0.806-1.915,0.101-3.225l-6.148-10.583l0.101-0.202c0.706-1.108,1.311-2.419,1.814-3.729l0.101-0.302
	l8.769,4.938c1.109,0.604,2.017,0.101,2.017-1.209l0.201-14.11C385.822,240.383,384.915,238.871,383.807,238.267z M437.628,357.5
	l-115.807,66.824c-3.427,2.016-7.66,2.016-11.087,0l-174.87-100.79c-0.202-0.101-0.403-0.302-0.604-0.403l-0.101-0.101
	c-0.202-0.101-0.302-0.302-0.403-0.403c-0.101-0.101-0.101-0.101-0.201-0.201c-0.101-0.102-0.202-0.201-0.303-0.303
	c-0.101-0.101-0.101-0.201-0.201-0.303c-0.101-0.1-0.101-0.201-0.202-0.302c-0.101-0.101-0.101-0.302-0.202-0.403
	c0-0.101-0.101-0.101-0.101-0.201c-0.101-0.201-0.101-0.403-0.201-0.605l0,0c-0.101-0.402-0.202-0.806-0.202-1.209
	c-0.202-2.016,0.806-4.133,2.721-5.241l115.807-66.823c3.427-2.016,7.761-2.016,11.188,0c-3.427-2.016-5.543-5.644-5.543-9.676
	v-10.381V103.612c0-2.117,1.109-3.83,2.722-4.838c0,0,0.101,0,0.101-0.101c0.202-0.101,0.302-0.202,0.504-0.202
	c0.101,0,0.101,0,0.202-0.101c0.202-0.101,0.302-0.101,0.504-0.202c0.101,0,0.202,0,0.302-0.101c0.101,0,0.303-0.101,0.403-0.101
	c0.101,0,0.302,0,0.403,0c0.101,0,0.202,0,0.302,0c0.202,0,0.302,0,0.504,0c0.101,0,0.202,0,0.302,0
	c0.202,0,0.303,0.101,0.504,0.101c0.101,0,0.202,0,0.202,0c0.202,0,0.302,0.101,0.504,0.201c0.101,0,0.202,0,0.303,0.101
	c0.201,0.101,0.504,0.202,0.706,0.302L440.45,199.765c3.427,2.016,5.544,5.645,5.544,9.676v133.748c0,0.302,0,0.504-0.102,0.806
	c0,0.102,0,0.102,0,0.202c0,0.202-0.101,0.403-0.101,0.504s0,0.101-0.101,0.202c-0.101,0.201-0.101,0.402-0.202,0.504v0.1
	c-0.101,0.202-0.201,0.404-0.302,0.504l0,0c-0.101,0.202-0.202,0.404-0.403,0.505l0,0c-0.303,0.403-0.604,0.705-1.008,1.008l0,0
	c-1.714,1.31-4.031,1.612-6.148,0.403c2.016,1.209,2.923,3.225,2.722,5.24c0,0.202,0,0.303-0.101,0.504c0,0,0,0,0,0.102
	c0,0.201-0.102,0.303-0.102,0.504c0,0.101-0.101,0.201-0.101,0.303c0,0.1-0.101,0.201-0.101,0.302
	c-0.101,0.202-0.101,0.302-0.201,0.504c0,0,0,0.101-0.102,0.101c-0.101,0.201-0.201,0.403-0.403,0.605l0,0
	C438.938,356.594,438.334,357.098,437.628,357.5z M276.667,358.609l-39.207-22.678c-0.806-0.403-1.713-0.403-2.52,0l-26.004,15.018
	c-0.806,0.504-0.806,1.713,0,2.217l39.208,22.678c0.806,0.403,1.713,0.403,2.52,0l26.003-15.018
	C277.474,360.322,277.474,359.113,276.667,358.609z M337.04,275.659l97.161,56.442V209.642l-165.093-95.347V236.15l51.604,30.035
	c-0.604,3.528-1.008,8.164-1.31,13.506c-0.202,4.435-0.403,9.474-0.403,14.615l-59.667-34.47l-68.537,39.61l159.953,92.324
	l68.537-39.611l-83.555-48.277c0-0.605-0.101-1.311-0.101-1.814h-0.101c0.807-0.201,1.411-0.403,1.512-0.605
	c0.403-0.604,0.604-5.341,0.604-11.288C337.645,285.537,337.443,280.296,337.04,275.659z M369.696,339.156l7.357-4.232
	l-12.599-7.258l-7.357,4.234L369.696,339.156z M339.661,321.82l7.357-4.232l-10.785-6.249c0.202,3.226,0.403,6.45,0.605,8.869
	L339.661,321.82z M384.714,347.824l7.357-4.232l-12.599-7.258l-7.357,4.234L384.714,347.824z M354.679,330.488l7.357-4.232
	l-12.599-7.257l-7.357,4.233L354.679,330.488z M290.979,341.777l-4.435-2.621l-1.108-0.604l-2.419-1.411L268,328.473l-1.411-0.806
	l-9.877-5.745l-1.31-0.807l-7.358,4.233l12.599,7.257l2.419,1.411l12.599,7.257l2.419,1.411l12.599,7.257l7.358-4.233
	L290.979,341.777z M319.906,344.297c0-0.201,0.101-0.402,0.201-0.604c-0.101-0.302-0.201-0.706-0.201-1.311
	c0-1.512-0.102-3.729-0.102-6.249l-7.055,4.133L319.906,344.297z M319.2,309.928c-0.101-3.427-0.201-5.946-0.201-6.652
	c0-0.504,0-1.008,0-1.512l-6.955,4.031L319.2,309.928z M294.608,295.716l7.357-4.233l-12.598-7.257l-7.357,4.233L294.608,295.716z
	 M279.59,287.048l7.357-4.233l-12.599-7.257l-7.358,4.233L279.59,287.048z M307.509,325.853l12.296,7.056
	c-0.101-2.722-0.101-5.645-0.201-8.668l-4.637-2.722L307.509,325.853z M271.93,274.147l-12.599-7.257l-7.358,4.233l12.599,7.257
	L271.93,274.147z M319.402,321.418c0-0.807,0-1.714-0.102-2.52l-2.116,1.209L319.402,321.418z M302.268,311.439l12.599,7.257
	l4.435-2.62c0-1.21-0.101-2.318-0.101-3.428l-9.575-5.543L302.268,311.439z M309.625,304.385l7.358-4.233l-12.599-7.257
	l-7.358,4.233L309.625,304.385z M262.053,279.792l-12.599-7.257l-7.357,4.233l12.599,7.257L262.053,279.792z M240.282,312.549
	l-7.357,4.232l12.599,7.258l7.357-4.234L240.282,312.549z M210.247,295.212l-7.358,4.233l12.599,7.257l7.358-4.234L210.247,295.212z
	 M225.265,303.881l-7.358,4.232l12.599,7.258l7.357-4.234L225.265,303.881z M232.622,296.724l-12.599-7.257l-7.357,4.233
	l12.599,7.256L232.622,296.724z M252.276,285.436l-12.599-7.257l-7.358,4.233l12.599,7.257L252.276,285.436z M242.5,291.08
	l-12.599-7.257l-7.357,4.233l12.599,7.257L242.5,291.08z"></path>
<path id="color_x5F_8" fill="#0DE9B1" d="M183.034,163.078c8.164,5.745,9.071,10.381,4.032,21.166
	c-6.955,14.816,8.97,12.498,11.994,21.166c1.008,2.923,1.915,4.031,2.52,4.535v-12.901l-4.536-3.628
	c-0.101-0.101-0.202-0.202-0.202-0.403c0-0.101,0-0.302,0.101-0.403c0.101-0.202,0.403-0.202,0.604-0.202
	c0.101,0,0.101,0,0.202,0.101l3.83,3.125v-21.267l-4.233-3.427l-4.233-3.427c-0.202-0.101-0.202-0.403-0.202-0.605
	c0-0.101,0.101-0.101,0.101-0.201c0-0.101,0.101-0.101,0.202-0.101c0.202-0.101,0.403-0.101,0.605,0.101l7.761,6.249v-16.126
	l-4.132-3.326c-0.101,0-0.101-0.101-0.101-0.202c0-0.101-0.101-0.101-0.101-0.202c0-0.101,0-0.302,0.101-0.403
	c0-0.101,0.101-0.101,0.202-0.101c0.202-0.101,0.403-0.101,0.605,0l1.915,1.512l1.512,1.209v-21.367l-1.512-1.209l-6.148-4.938
	c-0.101-0.101-0.202-0.202-0.202-0.403c0-0.101,0-0.101,0-0.202c0-0.101,0.101-0.101,0.101-0.202l0,0l0,0
	c0-0.101,0.101-0.101,0.202-0.101c0.101,0,0.101-0.101,0.201-0.101c0.101,0,0.303,0,0.403,0.101l6.854,5.543v-8.769l-1.512-1.209
	c-0.101,0-0.101-0.101-0.101-0.202c0-0.101-0.101-0.101-0.101-0.202s0-0.302,0.101-0.403c0-0.101,0.101-0.101,0.202-0.101
	c0.101-0.101,0.302-0.101,0.403,0c0.101,0,0.101,0.101,0.202,0.101l0.806,0.706v-5.14c0-0.302,0.303-0.605,0.605-0.605
	s0.604,0.303,0.604,0.605v4.032l0.807-0.706c0.101,0,0.101-0.101,0.202-0.101c0.201-0.101,0.403,0,0.604,0.202
	c0,0.101,0.101,0.101,0.101,0.202s0,0.101,0,0.202c0,0.101,0,0.101-0.101,0.202c0,0.101-0.101,0.101-0.101,0.201l0,0l0,0
	l-1.512,1.21v8.769l6.854-5.543c0,0,0.101,0,0.101-0.101c0.101-0.101,0.202-0.101,0.303-0.101c0.101,0,0.302,0.101,0.403,0.202
	c0.202,0.202,0.101,0.604-0.101,0.806l-7.56,6.148v21.871l3.427-2.721c0.101-0.101,0.302-0.101,0.403-0.101
	c0.101,0,0.303,0.101,0.403,0.202c0.101,0.101,0.101,0.302,0.101,0.403c0,0.101-0.101,0.302-0.201,0.403l-4.133,3.326v16.126
	l4.334-3.427l3.427-2.822c0.201-0.202,0.604-0.202,0.806,0.101c0,0.101,0.101,0.101,0.101,0.201c0,0.101,0,0.303,0,0.403
	s-0.101,0.101-0.101,0.202l0,0l0,0l-8.466,6.753v21.267l3.83-3.125c0.101-0.101,0.202-0.101,0.403-0.101l0,0
	c0.101,0,0.101,0,0.202,0.101c0.101,0,0.101,0.101,0.202,0.101c0,0.101,0.101,0.101,0.101,0.202c0,0.101,0,0.302,0,0.403
	c0,0.101-0.101,0.202-0.201,0.202l-4.536,3.628v13.505c0.604-0.403,1.512-1.612,2.52-4.535c2.923-8.567,18.949-6.35,11.994-21.166
	c-5.04-10.784-4.233-15.421,3.931-21.166c8.164-5.745-17.739-9.575-11.289-20.864c6.451-11.288,12.8-10.986,9.172-18.948
	s-11.591-3.83-10.381-14.312c1.008-8.466-4.435-8.97-6.551-8.769c-2.116-0.101-7.559,0.403-6.551,8.769
	c1.209,10.482-6.753,6.35-10.381,14.312s2.621,7.761,9.172,18.948C200.773,153.502,174.87,157.333,183.034,163.078z"></path>
<path id="color_x5F_7" fill="#B3CABE" d="M396.909,250.26l-8.769,5.04l2.721,4.737l0.303,0.504l0.201,0.504l0.102,0.504v0.504v0.403
	l-0.102,0.403l-0.201,0.303l-0.303,0.201l-8.869,5.141l-3.023,1.713c0.807-0.403,0.807-1.915,0.101-3.226l-6.148-10.583l0.102-0.202
	c0.705-1.109,1.31-2.419,1.813-3.729l0.102-0.302l8.769,4.939c1.108,0.604,2.016,0.101,2.016-1.209l0.201-14.111
	c0-1.31-0.907-2.822-2.016-3.427l-8.869-4.938l-0.101-0.303c-0.403-1.814-1.009-3.729-1.613-5.543l-0.101-0.303l6.35-3.628
	c0.807-0.504,0.807-1.915,0.101-3.326l-8.566-14.816c-0.807-1.31-2.017-2.016-2.822-1.613l-6.35,3.628l-0.202-0.302
	c-1.31-1.512-2.62-2.923-4.031-4.233l-0.303-0.202l0.202-10.079c0-1.31-0.907-2.822-2.016-3.427l-12.397-6.854
	c-1.108-0.605-2.016-0.101-2.016,1.209l-0.202,10.079l-0.302-0.101c-1.411-0.302-2.822-0.403-4.133-0.302h-0.302l-6.148-10.583
	c-0.807-1.311-2.016-2.016-2.822-1.613l3.023-1.713l8.971-5.14l0.302-0.101h0.403l0.403,0.101l0.403,0.202l0.403,0.302l0.403,0.302
	l0.402,0.403l0.303,0.504l2.722,4.636l8.769-5.04l0.302-0.101h0.303l0.403,0.101l0.403,0.202l12.396,6.854l0.403,0.302l0.403,0.302
	l0.303,0.403l0.302,0.403l0.303,0.504l0.201,0.504l0.101,0.504v0.504l-0.201,10.079l0.303,0.202l0.302,0.202l0.303,0.302
	l0.302,0.303l0.303,0.302l0.303,0.302l0.302,0.302l0.303,0.302l0.303,0.303l0.302,0.302l0.303,0.302l0.302,0.303l0.303,0.302
	l0.303,0.302l0.201,0.302l0.303,0.303l0.302,0.302l0.202,0.302l6.35-3.628l0.302-0.101h0.403l0.403,0.101l0.403,0.202l0.403,0.302
	l0.403,0.302l0.302,0.403l0.303,0.504l8.566,14.917l0.303,0.504l0.202,0.504l0.101,0.504v0.403l-0.101,0.403l-0.102,0.403
	l-0.201,0.302l-0.303,0.202l-6.35,3.628l0.101,0.302l0.102,0.403l0.101,0.302l0.101,0.303l0.101,0.403l0.101,0.303l0.102,0.403
	l0.101,0.302l0.101,0.403l0.101,0.302l0.102,0.303l0.101,0.403l0.101,0.303l0.101,0.403l0.101,0.302l0.102,0.303l0.101,0.403
	l0.101,0.303l8.869,4.938l0.403,0.302l0.403,0.303l0.303,0.403l0.302,0.403l0.202,0.504l0.201,0.504l0.101,0.504l0.101,0.504
	l-0.302,14.111v0.403l-0.101,0.403l-0.202,0.302L396.909,250.26z M364.152,241.895l-0.806-0.303l-0.807-0.302l-0.807-0.302
	l-0.806-0.403l-0.807-0.403l-0.807-0.403l-0.806-0.504l-0.807-0.605l-0.807-0.604l-0.806-0.605l-0.807-0.706l-0.807-0.706
	l-0.806-0.705l-0.706-0.807l-0.705-0.806l-0.706-0.806l-0.705-0.907l-0.706-0.907l-0.604-0.907l-0.604-1.008l-0.604-1.008
	l-0.605-1.008l-0.504-1.008l-0.504-1.008l-0.403-1.008l-0.402-1.008l-0.403-1.008l-0.303-1.008l-0.302-1.008l-0.303-1.008
	l-0.202-1.008l-0.201-1.008l-0.101-1.008l-0.101-1.008l-0.102-1.008l-0.101-1.008v-0.907v-0.907l0.101-0.907l0.102-0.806
	l0.101-0.806l0.201-0.807l0.101-0.403c-2.721-0.705-5.342-0.504-7.559,0.807c-6.652,3.83-6.854,15.824-0.403,26.911
	c2.318,4.032,5.241,7.358,8.265,9.777c0-0.101,0.101-0.101,0.101-0.202c0.403-1.008,1.411-3.427,1.714-3.729
	c0.302-0.302,0.201,0.303,0.101,0.706c-0.201,0.403,0.604-1.31,0.807-1.411c0.302-0.101-0.202,1.109-0.202,1.109
	s0.706-1.209,0.907-1.109c0,0,0.101,0,0.101,0.101c-0.201,0.504-0.705,1.814-0.402,1.31c0.101-0.201,0.302-0.806,0.504-0.806
	c0.302,0-0.605,2.016-0.504,2.419c0,0.403,0.705-0.504,0.906-0.403c0.202,0.101-0.101,0.807-0.906,1.311
	c-0.807,0.504-1.21,1.008-1.513,1.713l0,0l0,0c3.125,2.117,6.351,3.326,9.273,3.225c0-0.101,0-0.302,0-0.403
	c-0.102-1.008,0.302-1.613,0.504-1.512c0.201,0.101-0.102,1.109,0.201,1.008c0.303-0.201,1.512-2.116,1.612-1.814
	c0.102,0.202-0.302,0.604-0.402,0.806c-0.202,0.504,0.504-0.706,0.907-1.108c0.101-0.101,0.101,0,0.101,0
	c0.201,0.101-0.403,1.411-0.403,1.411s0.705-1.108,0.807-0.806c0.101,0.302-0.807,1.915-0.605,1.512
	c0.202-0.403,0.605-0.907,0.605-0.403c0,0.101-0.202,0.504-0.403,0.907c0.504-0.202,1.008-0.403,1.512-0.706
	c2.217-1.209,3.628-3.427,4.435-6.148L364.152,241.895z M360.625,263.061c-1.311,0-2.722-0.101-4.133-0.302l-0.201-0.101
	l-0.201,10.079c0,0.605-0.303,1.109-0.605,1.311l0,0l8.769-5.04l-3.427-5.947H360.625z M312.044,199.16
	c0.403-0.302,0.907-0.302,1.513,0l8.869,4.938l0.101-0.201c0.504-1.311,1.108-2.621,1.714-3.729l0.101-0.202l-4.637-8.063
	l1.21,2.117L312.044,199.16L312.044,199.16z M507.273,386.527l0.101,0.202h6.854V376.65c0,0.403-0.303,0.807-0.807,1.109
	l-8.668,5.24l0.201,0.201C505.862,384.209,506.669,385.318,507.273,386.527z M451.134,400.537l-0.101-0.101l0.303-0.302l0.604-0.605
	l0.604-0.504l0.705-0.504l0.706-0.504l0.807-0.504l0.806-0.403l0.807-0.402l0.907-0.403l0.907-0.403l0.907-0.403l1.008-0.303
	l1.008-0.302l1.008-0.303l1.008-0.302l1.108-0.202l1.109-0.201l1.108-0.202l1.108-0.101l1.108-0.101l1.21-0.102h1.209h1.21
	l1.108,0.102l1.109,0.101l1.108,0.101l1.108,0.202l1.108,0.201l1.109,0.202l1.008,0.302l1.008,0.303l1.008,0.302l1.008,0.303
	l0.907,0.403l0.907,0.403l0.907,0.403l0.806,0.402l0.807,0.403l0.807,0.504l0.705,0.504l0.706,0.504l0.604,0.504l0.604,0.605
	l0.303,0.302c1.915-2.016,3.124-4.334,3.124-6.854c0-7.66-10.381-13.808-23.081-13.808c-12.699,0-23.08,6.147-23.08,13.808
	C447.908,396.002,449.118,398.421,451.134,400.537z M451.537,400.84c-0.101-0.101-0.303-0.303-0.403-0.403l0.202,0.202
	L451.537,400.84z M519.671,400.336h-12.195l-0.102,0.201c-0.604,1.109-1.411,2.318-2.317,3.428l-0.202,0.201l8.668,5.141
	c1.108,0.604,1.108,1.713,0,2.419l-12.095,7.257c-1.108,0.705-2.923,0.705-3.931,0l-8.668-5.141l-0.303,0.101
	c-1.813,0.604-3.729,1.008-5.644,1.411l-0.303,0.101v7.358c0,0.906-1.209,1.713-2.822,1.713h-17.134
	c-1.512,0-2.822-0.705-2.822-1.713v-7.56l-0.303-0.101c-1.915-0.403-3.829-0.807-5.644-1.411l-0.303-0.101l-8.668,5.14
	c-1.108,0.706-2.822,0.706-3.931,0l-12.095-7.257c-1.108-0.604-1.108-1.713,0-2.419l8.668-5.14l-0.101-0.202
	c-0.907-1.108-1.714-2.218-2.419-3.427l-0.101-0.201h-12.599c-1.513,0-2.822-0.706-2.822-1.714v2.52v0.907v10.28l0.101,0.303
	l0.201,0.303l0.303,0.302l0.303,0.202l0.402,0.201l0.504,0.101l0.504,0.102h0.605h2.822h2.62v10.684l0.101,0.302l0.101,0.303
	l0.303,0.302l0.403,0.303l12.095,7.257l0.403,0.202l0.504,0.201l0.504,0.101h0.504h0.504l0.504-0.101l0.504-0.201l0.403-0.202
	l8.668-5.241l0.302,0.102l0.303,0.101l0.403,0.101l0.302,0.101l0.303,0.101l0.303,0.102l0.402,0.101l0.303,0.101l0.403,0.101
	l0.302,0.101l0.403,0.102l0.403,0.101l0.303,0.101l0.403,0.101l0.402,0.101l0.403,0.102l0.403,0.101l0.303,0.101v7.357l0.101,0.303
	l0.201,0.303l0.303,0.302l0.303,0.202l0.402,0.201l0.403,0.101l0.504,0.101h0.604h17.135h0.604l0.504-0.101l0.504-0.101l0.403-0.201
	l0.303-0.202l0.302-0.302l0.202-0.303l0.101-0.303v-7.357l0.303-0.101l0.402-0.101l0.403-0.102l0.403-0.101l0.403-0.101l0.302-0.101
	l0.403-0.101l0.403-0.102l0.303-0.101l0.403-0.101l0.302-0.101l0.403-0.101l0.303-0.102l0.302-0.101l0.403-0.101l0.303-0.101
	l0.302-0.101l0.303-0.102l8.668,5.241l0.403,0.202l0.504,0.201l0.504,0.101h0.504h0.504l0.504-0.101l0.504-0.201l0.403-0.202
	l12.095-7.257l0.403-0.303l0.302-0.302l0.101-0.303l0.102-0.302v-10.18h5.442h0.604l0.504-0.102l0.504-0.101l0.403-0.201
	l0.303-0.202l0.302-0.302l0.202-0.303l0.101-0.303V402.15v-3.527C522.393,399.529,521.183,400.336,519.671,400.336z M427.751,376.55
	v10.079h6.854l0.101-0.201c0.604-1.21,1.411-2.318,2.419-3.428l0.101-0.201l-8.668-5.241
	C427.952,377.355,427.751,376.953,427.751,376.55z M440.35,357.399v-4.233c0,0.202,0,0.303-0.101,0.504c0,0,0,0,0,0.102
	c0,0.201-0.102,0.303-0.102,0.504c0,0.101-0.101,0.201-0.101,0.303c0,0.1-0.101,0.201-0.101,0.302
	c-0.101,0.202-0.101,0.302-0.201,0.504c0,0,0,0.101-0.102,0.101c-0.101,0.201-0.201,0.403-0.403,0.605l0,0
	c-0.402,0.604-1.008,1.108-1.713,1.512L321.72,424.425c-3.427,2.016-7.659,2.016-11.087,0L135.864,323.534
	c-0.202-0.101-0.403-0.302-0.604-0.403l-0.101-0.101c-0.202-0.101-0.302-0.302-0.403-0.403c-0.101-0.101-0.101-0.101-0.201-0.201
	c-0.101-0.102-0.202-0.201-0.303-0.303c-0.101-0.101-0.101-0.201-0.201-0.303c-0.101-0.1-0.101-0.201-0.202-0.302
	c-0.101-0.101-0.101-0.302-0.202-0.403c0-0.101-0.101-0.101-0.101-0.201c-0.101-0.201-0.101-0.403-0.201-0.605l0,0
	c-0.101-0.402-0.202-0.806-0.202-1.209v4.637c0,1.914,0.907,3.729,2.822,4.838l174.77,100.89c3.427,2.016,7.66,2.016,11.087,0
	l115.807-66.823C439.644,361.432,440.551,359.416,440.35,357.399z M260.138,98.774c0.202-0.101,0.302-0.202,0.504-0.202
	c0.101,0,0.101,0,0.202-0.101c0.202-0.101,0.302-0.101,0.504-0.202c0.101,0,0.202,0,0.302-0.101c0.101,0,0.303-0.101,0.403-0.101
	s0.302,0,0.403,0c0.101,0,0.202,0,0.302,0c0.202,0,0.302,0,0.504,0c0.101,0,0.202,0,0.302,0c0.202,0,0.303,0.101,0.504,0.101
	c0.101,0,0.202,0,0.202,0c0.202,0,0.302,0.101,0.504,0.202c0.101,0,0.202,0,0.302,0.101c0.202,0.101,0.504,0.202,0.706,0.303
	L440.45,199.765c3.427,2.016,5.544,5.645,5.544,9.676v133.748c0,0.302,0,0.504-0.102,0.806c0,0.102,0,0.102,0,0.202
	c0,0.202-0.101,0.403-0.101,0.504s0,0.101-0.101,0.202c-0.101,0.201-0.101,0.402-0.202,0.504v0.1
	c-0.101,0.202-0.201,0.404-0.302,0.504l0,0c-0.101,0.202-0.202,0.404-0.403,0.505l0,0c-0.303,0.403-0.604,0.705-1.008,1.008l0,0
	c-0.101,0.101-0.202,0.101-0.303,0.201c2.923-1.813,6.854-3.325,6.854-7.357v-92.323v-41.424c0-4.032-2.116-7.66-5.543-9.676
	L270.015,96.153c-1.915-1.109-4.132-0.907-5.745,0.101l-4.334,2.722c0,0,0.101,0,0.101-0.101
	C260.037,98.774,260.138,98.774,260.138,98.774z"></path>
<path id="color_x5F_6" fill="#D0E7DF" d="M276.667,360.826l-26.003,15.018c-0.806,0.403-1.713,0.403-2.52,0l-39.207-22.678
	c-0.806-0.504-0.806-1.713,0-2.217l26.004-15.018c0.806-0.403,1.713-0.403,2.52,0l39.207,22.678
	C277.474,359.113,277.474,360.322,276.667,360.826z M330.993,339.358l-7.257-4.132c-0.202,0.906-0.303,1.713-0.403,2.52l7.761,4.535
	L330.993,339.358z M330.59,330.69l-0.202-3.528l-0.504,0.303l-4.334-2.52c-0.201,0.907-0.302,1.713-0.402,2.52l2.317,1.311
	l-2.923,1.713c-0.201,1.109-0.403,2.117-0.504,3.125l5.846-3.326L330.59,330.69z M419.284,352.26l-68.537,39.609l-160.053-92.423
	l68.537-39.61l59.668,34.47c0,0.403,0,0.907,0,1.31c0,0,0.402,0.403,1.008,1.108c-0.102-0.101-0.202-0.201-0.303-0.302
	c-0.303,1.512-0.604,3.528-0.705,5.342l-6.955,4.031l7.156,4.133c0,0.907,0,1.814,0.101,2.822l-9.575-5.543l-7.357,4.232
	l12.599,7.257l4.435-2.62c0,0.906,0,1.814,0.102,2.822l-2.117,1.209l2.218,1.209c0,0.908,0,1.916,0.101,2.822l-4.636-2.721
	l-7.358,4.232l12.297,7.056c0,1.108,0,2.116,0.101,3.124l-7.056,4.133l7.257,4.133c-0.302,1.814,2.017,3.124,2.621,1.814
	c0.101-0.102,0.101-0.202,0.201-0.303l2.621,1.512l5.846-3.427l0.101,2.722l-3.629,2.116l3.83,2.218
	c0.202,1.512,1.915,2.418,2.521,1.41l6.249,3.629l7.357-4.233l-12.599-7.257l0,0c0.101-0.906,0.201-1.915,0.403-3.023l7.055-4.031
	l-6.148-3.527c0.102-0.908,0.202-1.814,0.303-2.621l8.265,4.736l7.357-4.232l-12.9-7.055l-2.621,1.512
	c0.101-1.21,0.101-2.218,0-2.822l0.202-0.102l-0.202-0.101c-0.101-0.706-0.101-1.714-0.201-2.923l2.822,1.613l7.357-4.234
	l-10.785-6.248c-0.201-2.52-0.302-5.039-0.402-7.258L419.284,352.26z M379.473,336.234l-7.357,4.232l12.599,7.257l7.357-4.233
	L379.473,336.234z M369.696,341.878l-7.358,4.233l12.6,7.257l7.357-4.233L369.696,341.878z M364.455,327.566l-7.357,4.232
	l12.599,7.258l7.357-4.234L364.455,327.566z M354.679,330.488l7.357-4.232l-12.599-7.257l-7.357,4.233L354.679,330.488z
	 M347.32,337.544l12.599,7.257l7.358-4.232l-12.599-7.258L347.32,337.544z M350.143,350.445l2.419,1.411l12.599,7.257l7.357-4.233
	l-12.599-7.257l-4.535-2.621l-10.482-6.047l-7.357,4.233L350.143,350.445z M342.785,357.5l12.599,7.258l7.357-4.234l-12.599-7.256
	L342.785,357.5z M340.266,358.912l-7.357,4.232l12.599,7.257l7.357-4.233L340.266,358.912z M325.248,350.244l-7.357,4.232
	l12.599,7.257l7.357-4.233L325.248,350.244z M310.23,341.576l-7.357,4.232l12.599,7.258l7.357-4.234L310.23,341.576z
	 M259.936,301.159l-7.357,4.233l12.599,7.256l7.357-4.232L259.936,301.159z M274.954,307.005l7.358-4.233l-12.599-7.257
	l-7.358,4.233L274.954,307.005z M267.596,314.161l12.599,7.257l7.358-4.233l-12.599-7.257L267.596,314.161z M282.614,322.828
	l12.599,7.258l7.358-4.233l-12.599-7.257L282.614,322.828z M297.329,311.439l-12.599-7.257l-7.358,4.233l12.599,7.257
	L297.329,311.439z M284.73,301.361l7.357-4.234l-12.599-7.257l-7.357,4.233L284.73,301.361z M277.171,288.459l-12.599-7.257
	l-7.357,4.233l12.599,7.257L277.171,288.459z M254.695,286.847l-7.358,4.233l12.599,7.257l7.358-4.233L254.695,286.847z
	 M244.918,292.491l-7.357,4.233l12.599,7.257l7.357-4.233L244.918,292.491z M235.041,298.135l-7.357,4.234l12.599,7.256l7.357-4.232
	L235.041,298.135z M242.701,311.137l12.599,7.258l7.358-4.233l-12.599-7.257L242.701,311.137z M257.82,319.805l12.599,7.258
	l7.357-4.234l-12.599-7.256L257.82,319.805z M272.837,328.473l12.599,7.258l7.357-4.234l-12.599-7.256L272.837,328.473z
	 M287.855,337.141l12.599,7.258l7.358-4.234l-12.599-7.256L287.855,337.141z M304.989,327.264l-7.358,4.232l12.599,7.258
	l7.357-4.233L304.989,327.264z M299.849,312.851l-7.357,4.233l12.599,7.257l7.357-4.233L299.849,312.851z M307.206,305.795
	l-12.598-7.256l-7.358,4.233l12.599,7.257L307.206,305.795z M304.385,292.895l-7.358,4.233l12.598,7.257l7.358-4.233
	L304.385,292.895z M289.367,284.227l-7.357,4.233l12.599,7.257l7.357-4.233L289.367,284.227z M274.349,275.559l-7.357,4.233
	l12.599,7.257l7.357-4.233L274.349,275.559z M251.974,271.124l12.599,7.257l7.358-4.233l-12.599-7.257L251.974,271.124z
	 M242.097,276.768l12.599,7.257l7.357-4.233l-12.599-7.257L242.097,276.768z M232.32,282.412l12.599,7.257l7.358-4.233
	l-12.599-7.257L232.32,282.412z M222.442,288.057l12.599,7.257l7.358-4.233l-12.599-7.257L222.442,288.057z M212.666,293.701
	l12.599,7.256l7.357-4.233l-12.599-7.257L212.666,293.701z M215.488,306.703l7.358-4.234l-12.599-7.256l-7.358,4.233
	L215.488,306.703z M230.506,315.371l7.357-4.234l-12.599-7.256l-7.358,4.232L230.506,315.371z M245.523,324.038l7.357-4.233
	l-12.599-7.256l-7.357,4.232L245.523,324.038z M290.576,350.042l7.357-4.233l-7.055-4.031l-4.435-2.621l-1.109-0.604l-2.419-1.411
	l-15.018-8.668l-1.411-0.807l-9.877-5.744l-1.311-0.807l-7.357,4.233l12.599,7.257l2.419,1.411l12.599,7.257l2.419,1.411
	L290.576,350.042z M305.695,358.71l7.357-4.233l-12.599-7.257l-7.358,4.233L305.695,358.71z M320.712,367.378l7.358-4.233
	l-12.599-7.257l-7.358,4.233L320.712,367.378z M335.729,376.046l7.358-4.233l-12.599-7.257l-7.358,4.233L335.729,376.046z
	 M358.105,380.48l-12.599-7.257l-7.358,4.233l12.599,7.257L358.105,380.48z M367.982,374.836l-12.599-7.256l-7.357,4.232
	l12.599,7.257L367.982,374.836z M377.759,369.191l-12.599-7.256l-7.357,4.232l12.599,7.258L377.759,369.191z M387.536,363.548
	l-12.599-7.257l-7.358,4.232l12.599,7.258L387.536,363.548z M397.313,357.904l-12.599-7.258l-7.357,4.233l12.599,7.257
	L397.313,357.904z M399.731,356.492l7.357-4.232l-12.599-7.258l-7.357,4.234L399.731,356.492z"></path>
<path id="color_x5F_5" fill="#FFD2BB" d="M359.013,247.841c0,0.101-0.202,0.504-0.403,0.907c-0.403,0.806-1.109,1.915-1.411,2.52
	c-0.604,1.613-3.125,8.668-3.931,9.877c-0.605,0.907-5.846,4.435-9.575,6.955c-2.116,1.411-3.83,2.52-3.83,2.52
	c0.201-0.101,0.403-0.302,0.504-0.403l0.101-0.101l0.101-0.101c0.102-0.101,0.303-0.302,0.303-0.403c0-0.101,0-0.202,0-0.302v-0.101
	c0-0.101,0-0.202-0.101-0.403c0-0.101,0-0.101-0.101-0.202c0-0.101-0.102-0.202-0.102-0.302c0-0.101,0-0.101,0-0.202
	c-0.302-1.109-0.906-2.318-1.108-2.822c0.202-0.101,0.303-0.202,0.504-0.302l0,0c8.467-4.737,10.482-5.543,15.118-13.708
	c0-0.101,0-0.101,0-0.201c0.403-0.403,0.605-1.109,0.605-1.915c0-0.101,0-0.303,0-0.403c-0.101-1.008,0.302-1.613,0.504-1.512
	c0.201,0.101-0.101,1.108,0.201,1.008c0.303-0.202,1.512-2.117,1.613-1.814c0.101,0.202-0.303,0.605-0.403,0.807
	c-0.202,0.504,0.504-0.706,0.907-1.109c0.101-0.101,0.101,0,0.101,0c0.201,0.101-0.403,1.411-0.403,1.411s0.705-1.109,0.807-0.806
	c0.101,0.302-0.807,1.915-0.605,1.512C358.609,247.841,359.113,247.337,359.013,247.841z M333.714,256.509
	c0.706-1.814,0.303-3.326-0.403-6.451l0,0c-0.101-0.504-0.201-1.008-0.402-1.512c-0.102-0.604-0.403-1.108-0.605-1.612
	c-0.101,0.101-0.101,0.101-0.201,0.201c-0.101,0.101-0.201,0.202-0.403,0.303c-0.101,0.101-0.201,0.201-0.303,0.302
	c-0.101,0.101-0.302,0.202-0.402,0.302c-0.102,0.101-0.202,0.202-0.403,0.202c-0.101,0.101-0.303,0.202-0.403,0.202
	c-0.101,0.101-0.303,0.202-0.403,0.202c-0.302,0.101-0.604,0.302-0.907,0.403c-2.52,0.807,0.605,4.536,0.403,4.737
	c-0.201,0.202-2.318-0.706-2.52-1.713c-0.202-1.008-1.612-3.226-2.419-1.814s1.713,2.923,2.016,3.528
	c0.202,0.604,1.108,4.838-0.504,5.241h0.101c0.303,0.101,0.605,0.201,0.907,0.201c-0.201,0.907-0.403,2.318-0.403,2.318
	s1.915,1.713,3.024,1.31c1.108-0.403,1.813-0.504,1.713-0.604l-0.302-3.528C332.303,258.122,333.412,257.315,333.714,256.509z
	 M342.482,255.804c0.807-1.209,3.326-7.962,3.932-9.776l0,0l0,0c0.201-0.706,0.604-1.209,1.512-1.713
	c0.806-0.504,1.108-1.209,0.906-1.311c-0.201-0.101-0.806,0.807-0.906,0.403c0-0.403,0.806-2.419,0.504-2.419
	c-0.202,0-0.303,0.604-0.504,0.806c-0.303,0.504,0.201-0.806,0.402-1.31c0-0.101-0.101-0.101-0.101-0.101
	c-0.201,0-0.907,1.109-0.907,1.109s0.504-1.209,0.202-1.109c-0.303,0.101-1.008,1.814-0.807,1.411
	c0.202-0.403,0.303-1.008-0.101-0.706c-0.303,0.303-1.311,2.722-1.714,3.729c0,0-0.101,0.101-0.101,0.202c0,0,0,0-0.101,0.101
	c-0.807,1.31-3.427,5.644-5.544,8.063l0,0c-0.402,0.504-0.806,0.907-1.209,1.209c-2.016,1.713-4.031,2.822-6.249,4.132
	c0,0,2.116,2.016,2.822,3.326c1.814-1.209,3.628-2.52,5.14-3.628C341.173,257.013,342.181,256.207,342.482,255.804z"></path>
<path id="color_x5F_4" fill="#00CEC9" d="M419.486,401.243v-2.52v-10.28l0.101-0.303l0.201-0.303l0.303-0.303l0.303-0.302
	l0.402-0.202l0.202-0.1c0.201-0.102,0.403-0.102,0.604-0.102l0.202-0.101h0.604h5.442V376.65c0-0.403,0.201-0.907,0.807-1.209
	l12.095-7.258l0.403-0.201l0.504-0.101h0.101c0.604-0.101,1.209-0.101,1.813,0h0.202l0.504,0.101l0.403,0.201l8.668,5.242
	l0.302-0.102l0.303-0.101l0.403-0.101l0.302-0.102l0.303-0.1l0.303-0.102l0.402-0.101l0.303-0.101h0.202
	c0.101,0,0.302-0.102,0.402-0.102h0.102l0.402-0.101l0.403-0.101l0.303-0.101l0.403-0.101l0.402-0.102h0.303
	c0.101,0,0.303-0.101,0.403-0.101l0.302-0.101v-7.357l0.102-0.303l0.101-0.201c0-0.102,0.101-0.102,0.101-0.201l0.202-0.202
	l0.302-0.303l0.403-0.201l0,0l0,0h0.101c0.202-0.101,0.403-0.101,0.605-0.202l0.302-0.101h0.604h17.135h0.604l0.303,0.101
	c0.101,0,0.302,0.102,0.403,0.102l0.302,0.101l0.403,0.201l0.303,0.303l0.201,0.202c0,0.1,0.101,0.1,0.101,0.201l0.101,0.201v0.201
	l83.253-49.084l-115.203-67.126v92.323c0,4.031-4.031,5.543-6.854,7.357c0.101-0.101,0.202-0.101,0.303-0.201
	c-1.714,1.311-4.032,1.612-6.148,0.403c2.016,1.209,2.923,3.226,2.722,5.241v4.232c0.101,2.016-0.807,4.031-2.722,5.141
	L321.82,429.464c-3.427,2.016-7.659,2.016-11.086,0l-174.87-100.89c-1.814-1.109-2.822-2.924-2.822-4.838V319.1
	c-0.201-2.016,0.807-4.133,2.722-5.241l115.807-66.823c3.427-2.016,7.761-2.016,11.188,0c-3.427-2.016-5.543-5.644-5.543-9.676
	v-10.381L34.369,354.98l234.336,135.059L419.486,401.243z"></path>
<path id="color_x5F_3" fill="#E84393" d="M334.621,302.369c-0.101,0-0.303,0.1-0.504,0.1c-0.101,0-0.303,0-0.403,0.102
	c-0.101,0-0.201,0-0.403,0h-0.101c-0.201,0-0.504,0-0.705,0.101c-0.101,0-0.303,0-0.403,0c-0.201,0-0.303,0-0.504,0
	c-0.202,0-0.303,0-0.504,0c-0.101,0-0.303,0-0.403,0c-0.303,0-0.604,0-0.907-0.101c-0.101,0-0.201,0-0.302,0
	c-0.202,0-0.505-0.102-0.706-0.102c-0.101,0-0.201,0-0.303-0.1c-0.302-0.102-0.604-0.202-0.906-0.303
	c-0.403-0.201-0.907-0.303-1.311-0.504c0,0-0.101,0-0.101-0.102c-2.621-1.209-4.737-3.023-5.947-4.333
	c-0.101-0.101-0.201-0.202-0.302-0.302l0,0c-0.101-0.101-0.202-0.202-0.303-0.302c-0.302,1.512-0.604,3.527-0.705,5.342
	c0,0.504,0,1.107,0,1.512c0,0.705,0.101,3.225,0.201,6.652c0,0.906,0,1.813,0.101,2.821c0,1.108,0.102,2.218,0.102,3.427
	c0,0.907,0,1.814,0.101,2.822c0,0.807,0,1.613,0.101,2.52c0,0.907,0,1.915,0.101,2.822c0.101,3.023,0.101,5.947,0.202,8.668
	c0,1.109,0,2.117,0.101,3.125c0.101,2.62,0.101,4.736,0.101,6.248c0,0.605,0.101,1.008,0.201,1.311l0,0
	c0.102,0.303,0.202,0.403,0.403,0.504c0,0,0,0,0.102,0c0.101,0,0.101,0,0.201,0.102h0.101c0.101,0,0.202,0,0.202,0
	c0.604,0,1.209-0.404,1.512-2.017c0.201-1.108,0.403-2.722,0.705-4.535c0.101-0.807,0.303-1.612,0.403-2.521
	c0.101-0.504,0.201-1.008,0.303-1.612c0.201-1.008,0.402-2.016,0.504-3.124c0.201-1.008,0.302-2.016,0.504-3.023
	c0.101-0.807,0.302-1.714,0.403-2.52c0.504-2.521,0.906-5.141,1.31-7.762l0,0l0,0c1.714,4.535,3.427,8.467,3.427,8.467l0.102,1.512
	l0.201,3.527l0.403,8.77l0.101,2.821l0.101,1.714l0.101,2.721l0.102,2.621c0,0.303,0.101,0.604,0.201,0.807l0,0
	c0.303,0.604,1.008,0.806,1.512,0.705l0,0c0.101,0,0.303-0.102,0.403-0.201l0,0c0.101-0.102,0.201-0.102,0.303-0.202l0.101-0.101
	c0.101-0.102,0.201-0.201,0.201-0.303c0,0,0-0.101,0.102-0.101c0.101-0.101,0.101-0.302,0.101-0.403
	c0.101-1.108,0.403-2.822,0.604-4.938c0.101-0.907,0.201-1.915,0.403-3.024c0.302-2.418,0.604-5.039,0.907-7.559
	c0.101-0.907,0.201-1.814,0.302-2.621c0.202-1.914,0.303-3.729,0.403-5.24c0.101-1.209,0.101-2.218,0-2.822v-0.101v-0.101
	c-0.101-0.706-0.101-1.714-0.201-2.924c-0.202-2.418-0.403-5.543-0.605-8.869c-0.201-2.52-0.302-5.039-0.402-7.257
	c0-0.604-0.102-1.31-0.102-1.813h-0.101c-0.201,0-0.403,0.1-0.504,0.1C334.924,302.268,334.722,302.268,334.621,302.369z"></path>
<path id="color_x5F_2" fill="#FBC02D" d="M337.242,350.445c-1.411,1.612-2.621,0.807-3.125,2.016v0.101
	c-0.604,1.009-2.318,0-2.52-1.411c0-0.303,0-0.504,0.101-0.807l0,0c0.303,0.605,1.008,0.807,1.512,0.706l0,0
	c0.101,0,0.303-0.101,0.403-0.202l0,0c0.101-0.1,0.201-0.1,0.303-0.201l0.101-0.101c0.101-0.101,0.201-0.202,0.201-0.302
	c0,0,0-0.102,0.101-0.102c0.102-0.101,0.102-0.303,0.102-0.402c0.101-0.807,0.302-1.814,0.403-3.125
	c0.302-0.201,0.604-0.303,1.209-0.303C338.048,346.111,338.652,348.732,337.242,350.445z M324.441,339.862
	c-1.008,0-1.311,0.302-1.512,0.706c-0.101,0.604-0.201,1.209-0.303,1.713c-0.201,1.713-0.907,2.016-1.512,2.016
	c-0.101,0-0.201,0-0.201,0h-0.101c-0.102,0-0.102,0-0.202-0.101c0,0,0,0-0.101,0c-0.202-0.101-0.303-0.302-0.403-0.504l0,0
	c-0.101,0.202-0.201,0.403-0.201,0.604c-0.303,1.814,2.016,3.125,2.62,1.814c0.101-0.102,0.101-0.201,0.202-0.303
	c0.604-0.705,1.713-0.201,2.923-1.713C326.961,342.584,326.356,339.963,324.441,339.862z M340.77,269.209
	c0-0.101,0-0.202-0.101-0.403c0-0.101,0-0.202-0.102-0.202c0-0.101-0.101-0.202-0.101-0.302s0-0.101,0-0.202
	c-0.302-1.109-0.907-2.318-1.108-2.822c-0.101-0.201-0.101-0.302-0.101-0.302c-1.109,0.403-2.621,0.504-3.83,0.504
	c-0.101-0.403-0.303-0.706-0.504-1.008c-0.202-0.302-0.403-0.604-0.605-0.907c0.403-0.604,0.706-1.108,0.605-1.411
	c0-0.202-0.101-0.403-0.303-0.605c-0.705-1.31-2.822-3.326-2.822-3.326c-0.302,0.202-0.604,0.403-0.907,0.605l0.303,3.225
	c0,0.101-0.604,0.302-1.714,0.605c-1.108,0.403-3.023-1.311-3.023-1.311s0.202-1.411,0.403-2.318c-0.303,0-0.604-0.101-0.907-0.202
	h-0.101c-0.201-0.101-0.403-0.101-0.604-0.202c-0.202-0.101-0.303-0.202-0.504-0.302c-0.403,0-0.807,0.101-1.109,0.302
	c-0.101,0-0.101,0.101-0.201,0.101c-1.108,0.706-2.016,3.326-2.722,7.358c-0.604,3.527-1.008,8.164-1.31,13.506
	c-0.202,4.435-0.403,9.474-0.403,14.614c0,0.403,0,0.907,0,1.311c0,0,0.403,0.403,1.008,1.108l0,0
	c0.101,0.101,0.201,0.202,0.302,0.302c1.311,1.311,3.428,3.125,5.947,4.334c0,0,0.101,0,0.101,0.102
	c0.403,0.201,0.907,0.402,1.311,0.504c0.302,0.1,0.604,0.201,0.907,0.302c0.101,0,0.201,0,0.302,0.101
	c0.202,0,0.504,0.102,0.706,0.102c0.101,0,0.201,0,0.302,0c0.303,0,0.604,0.1,0.907,0.1c0.101,0,0.303,0,0.403,0
	c0.201,0,0.303,0,0.504,0s0.303,0,0.504,0c0.101,0,0.303,0,0.403,0c0.201,0,0.504,0,0.705-0.1h0.102c0.101,0,0.201,0,0.402,0
	c0.202,0,0.303,0,0.403-0.102c0.202,0,0.303,0,0.504-0.101c0.101,0,0.303,0,0.403-0.101c0.201,0,0.403-0.102,0.504-0.102
	c0.807-0.201,1.411-0.402,1.512-0.604c0.403-0.605,0.605-5.342,0.605-11.289c0-4.636-0.202-9.877-0.605-14.514
	c-0.101-1.109-0.201-2.217-0.302-3.225c1.411-0.706,2.821-1.411,3.527-2.117l0.101-0.101l0.101-0.101
	c0.102-0.101,0.303-0.302,0.303-0.403c0-0.101,0-0.202,0-0.302C340.87,269.31,340.87,269.31,340.77,269.209z M276.365,191.298
	c12.8,7.458,8.164,4.737,20.864,12.196v-5.543c-12.7-7.358-8.164-4.737-20.864-12.095V191.298z M276.365,203.292
	c12.8,7.458,8.164,4.737,20.864,12.195v-5.644c-12.7-7.357-8.164-4.737-20.864-12.095V203.292z M276.365,179.405
	c12.8,7.458,8.164,4.737,20.864,12.196v-5.645c-12.7-7.357-8.164-4.737-20.864-12.095V179.405z M324.441,160.457l-16.429-9.474
	l-5.342-3.024l-16.429-9.474v16.025l21.771,12.599v-0.101l16.429,9.575V160.457L324.441,160.457z"></path>
<path id="color_x5F_1_1_" d="M326.256,253.788c-0.202-0.605-2.822-2.117-2.016-3.528c0.806-1.411,2.217,0.807,2.419,1.814
	c0.201,1.008,2.317,1.915,2.52,1.713c0.201-0.202-2.923-3.931-0.403-4.737c0.303-0.101,0.604-0.202,0.907-0.403
	c0.201-0.101,0.303-0.202,0.403-0.202c0.101-0.101,0.302-0.202,0.403-0.202c0.101-0.101,0.302-0.202,0.402-0.202
	c0.102-0.101,0.303-0.202,0.403-0.302c0.101-0.101,0.202-0.202,0.303-0.302c0.101-0.101,0.201-0.202,0.403-0.303
	c0.806-0.705,1.411-1.512,2.116-2.318c1.311-1.713,0.807-1.814,0.807-1.814c-1.311,1.109-1.814-1.612-5.443-2.318
	c-2.419-0.504-5.744,0.504-8.265,2.217c-2.923,1.915-4.938,4.737-3.124,7.055c2.217,2.822,0.907,7.962,5.141,9.071
	c0.101,0,0.101-0.101,0.201-0.101c0.403-0.101,0.807-0.202,1.108-0.302c0.101,0.101,0.303,0.202,0.504,0.302
	c0.202,0.101,0.403,0.202,0.605,0.202C327.364,258.626,326.457,254.393,326.256,253.788z"></path>
</svg>