<?xml version="1.0" standalone="no"?>
<svg version="1.1" id="Layer_1" xmlns="http://www.w3.org/2000/svg" xmlns:xlink="http://www.w3.org/1999/xlink" x="0px" y="0px" width="595.28px" height="595.28px" viewBox="0 0 595.28 595.28" enable-background="new 0 0 595.28 595.28" xml:space="preserve">
<path id="color_x5F_2" fill="#FBC02D" d="M524.48,344.763c-1.095,7.894-1.335,15.904-1.359,23.863
	c-0.001,0.322,0.138,0.549,0.349,0.702c-3.241,6.671-13.925,5.883-20.054,5.36c-6.367-0.542-14.88-1.866-20.105-6.106
	c0.01-0.038,0.022-0.076,0.023-0.116c0.143-6.658,2.131-13.518,3.73-19.935c1.413-5.666,2.649-14.238,6.616-18.86
	c8.391-1.32,16.69-4.365,24.194-7.401c1.912-0.773,0.096-1.106-1.002-0.662c-13.007,5.264-27.003,9.718-41.016,5.894
	c-2.961-0.809-5.509-4.331-7.488-6.5c-2.319-2.542-4.434-5.271-6.514-8.007c-3.941-5.184-7.561-10.61-11.316-15.927
	c-0.029-0.042-0.067-0.075-0.11-0.105c3.026-3.444,7.36-4.895,11.618-6.211c0.014,0.026,0.021,0.054,0.042,0.081
	c6.209,8.187,11.162,18.23,21.687,21.413c9.187,2.778,18.584-3.636,26.858-6.532c1.924-0.673,0.149-1.519-1.113-1.076
	c-3.875,1.356-7.638,3.153-11.384,4.472c1.385-3.755,3.729-7.626,7.625-9.072c0.459-0.17,0.703-0.396,0.79-0.633
	c3.811,1.289,8.553,1.199,12.52,0.918c0.008,0.017,0.013,0.035,0.023,0.051c0.078,0.252,0.343,0.453,0.888,0.512
	c10.92,1.172,9.881,17.742,8.5,25.411C527.363,332.513,525.354,338.458,524.48,344.763z M526.842,349.975l2.053-13.491
	c-0.496,2.092-0.946,4.195-1.243,6.335C527.321,345.2,527.059,347.586,526.842,349.975z M162.706,323.231l0.267-0.308l-8.046-3.219
	C157.432,321.141,160.06,322.323,162.706,323.231z M137.473,348.424l0.248-0.929c-0.916,2.167-1.71,4.349-2.399,6.557
	L137.473,348.424z M134.74,305.784c-0.219,0.016-0.434,0.036-0.645,0.063c0.064,0.005,0.127,0.016,0.191,0.017
	C134.443,305.824,134.587,305.814,134.74,305.784z M137.767,308.024c-0.682,0.092-1.33-0.099-1.367-0.664
	c-0.804-0.265-1.623-0.318-2.451-0.051c-0.824,0.266-1.312,0.104-1.419-0.191c-2.843-0.379-5.505-2.209-7.491-4.648
	c-0.248,0.063-0.499,0.107-0.74,0.115c-0.163,0.006-0.493-0.039-0.697-0.154c-7.922,3.835-11.487,13.859-14.686,21.458
	c-3.689,8.767-9.743,15.821-14.982,23.649c-0.906,1.354-4.272,5.046-3.663,6.806c0.7,2.021,1.954,4.022,3.213,5.719
	c2.52,3.398,5.415,6.939,8.935,9.355c6.612,4.536,18.358,10.271,25.78,4.742c0.046-0.034,0.106-0.066,0.173-0.097
	c1.77-12.242,4.047-23.173,10.468-33.997c0.042-0.07,0.109-0.134,0.188-0.194c-8.052-3.803-17.621-10.508-16.954-20.406
	c0.076-1.131,3.007-1.644,2.916-0.295c-0.651,9.658,9.424,16.044,17.1,19.536c0.093,0.042,0.163,0.089,0.219,0.139
	c1.569-0.466,3.198-0.614,4.855-0.511c2.156-0.99,4.264-2.645,6.154-4.561l1.011-1.074c2.484-2.757,4.492-5.878,5.549-8.337
	c-5.042-1.82-9.589-4.636-13.831-7.921C143.789,314.692,140.919,309.99,137.767,308.024z M141.142,340.553l0.104-0.022
	c-0.026-0.009-0.055-0.013-0.08-0.021C141.158,340.523,141.15,340.538,141.142,340.553z"></path>
<path id="color_x5F_1" d="M208.409,386.104c-6.37,3.627-11.118,9.653-13.038,16.715c-2.35,8.643,1.349,17.194,6.981,23.649
	c10.687,11.05,30.492,10.897,42.108,1.366c10.508-8.621,11.019-25.451,3.161-35.978
	C238.305,379.377,221.243,378.794,208.409,386.104z M246.497,422.565c-8.329,14.246-30.728,13.931-41.427,2.867
	c-9.461-10.842-9.951-25.321,0.707-35.545c10.931-10.484,29.13-9.443,38.53,2.205C251.148,400.57,251.943,413.25,246.497,422.565z
	 M146.163,277.705c0.657-0.177,1.389-0.077,1.707,0.573c0.281,0.575,0.537,1.333,1.039,1.618c0.637,0.361,0.279,1.127-0.167,1.454
	c-0.586,0.43-1.431,0.552-2.075,0.187c-0.92-0.521-1.257-1.588-1.694-2.483C144.658,278.412,145.721,277.823,146.163,277.705z
	 M138.201,276.444c0.956-2.206,3.239-3.573,5.612-3.635c0.577-0.015,1.431,0.216,1.344,0.968c-0.082,0.706-0.953,1.164-1.594,1.181
	c-1.231,0.031-2.102,0.712-2.587,1.832C140.457,277.987,137.534,277.982,138.201,276.444z M145.729,289.076
	c1.201,0.883,2.472,1.573,3.918,1.956c0.669,0.178-0.051,0.756-0.317,0.895c-0.591,0.309-1.375,0.509-2.035,0.334
	c-1.566-0.415-2.981-1.187-4.281-2.142c-0.48-0.354,0.643-0.879,0.83-0.95C144.342,288.978,145.24,288.718,145.729,289.076z
	 M132.302,289.312h-0.003c0,0,0,0,0.001-0.001C132.3,289.312,132.301,289.312,132.302,289.312z M132.302,289.312
	c0.001,0.001,0.003,0.002,0.005,0.002c-0.002,0.002-0.009,0.006-0.01,0.008C132.299,289.317,132.305,289.314,132.302,289.312z
	 M502.236,269.737c0.252-0.379,0.48-0.719,0.514-1.185c0.043-0.599,1.22-0.899,1.654-0.957c0.441-0.059,1.283-0.058,1.238,0.574
	c-0.042,0.591-0.398,1.109-0.719,1.591c-0.371,0.559-1.294,0.783-1.916,0.777C502.553,270.534,501.86,270.304,502.236,269.737z
	 M514.36,272.788c-0.424,0.85-0.92,1.556-1.669,2.151c-0.516,0.41-1.483,0.565-2.066,0.217c-0.633-0.379-0.221-1.004,0.199-1.338
	c0.346-0.275,0.585-0.818,0.798-1.243c0.314-0.631,1.254-0.896,1.897-0.846C514.092,271.774,514.675,272.161,514.36,272.788z
	 M357.386,187.052c0.17-0.165,0.276-0.355,0.277-0.568c0.027-8.742,2.722-21.536-7.01-25.673
	c-6.684-2.842-14.802-2.526-21.918-2.521c-7.786-0.006-16.054-0.087-23.344,3.013c-9.498,4.037-6.727,17.637-6.7,25.957
	c0,0.169,0.107,0.285,0.278,0.356c-0.171,0.165-0.277,0.356-0.278,0.569c-0.027,8.742-2.723,21.534,7.01,25.672
	c6.684,2.842,14.802,2.527,21.918,2.521c7.786,0.006,16.055,0.087,23.344-3.013c9.496-4.037,6.727-17.638,6.7-25.958
	C357.662,187.238,357.556,187.122,357.386,187.052z M355.042,187.613c-0.171,0.166-0.278,0.358-0.277,0.571
	c0.018,5.339,0.112,10.666-0.358,15.99c-0.437,4.939-2.223,7.418-7.025,8.928c-5.916,1.86-12.485,1.658-18.62,1.652
	c-0.001,0-0.001,0-0.002,0c-0.007,0-0.015,0-0.021,0c-0.003,0-0.006,0-0.009,0c-6.908,0.006-14.145,0.111-20.719-2.288
	c-9.209-3.362-6.445-17.394-6.42-25.06c0-0.168-0.105-0.283-0.276-0.354c0.171-0.166,0.276-0.357,0.276-0.57
	c-0.018-5.34-0.113-10.667,0.357-15.991c0.437-4.939,2.224-7.418,7.026-8.928c5.915-1.86,12.486-1.658,18.62-1.652
	c0.001,0,0.001,0,0.002,0c0.007,0,0.014,0,0.021,0c0.003,0,0.006,0,0.009,0c0,0,0,0,0.001,0c6.907-0.007,14.144-0.111,20.717,2.288
	c9.208,3.362,6.445,17.394,6.421,25.059C354.764,187.428,354.871,187.543,355.042,187.613z M354.652,258.106
	c0.17-0.165,0.275-0.356,0.276-0.568c0.028-8.742,2.724-21.535-7.009-25.673c-6.684-2.841-14.803-2.526-21.919-2.521
	c-7.786-0.006-16.055-0.087-23.343,3.012c-9.498,4.038-6.727,17.638-6.7,25.959c0,0.168,0.106,0.284,0.276,0.355
	c-0.17,0.164-0.275,0.354-0.276,0.566c-0.028,8.742-2.724,21.537,7.008,25.675c6.685,2.841,14.803,2.526,21.919,2.521
	c7.786,0.006,16.055,0.087,23.344-3.012c9.498-4.038,6.726-17.639,6.699-25.959C354.928,258.293,354.822,258.177,354.652,258.106z
	 M352.305,258.669c-0.17,0.165-0.275,0.356-0.274,0.568c0.018,5.34,0.114,10.668-0.356,15.992c-0.437,4.94-2.223,7.418-7.026,8.928
	c-5.915,1.86-12.485,1.658-18.62,1.652c-0.001,0-0.001,0-0.002,0c-0.008,0-0.015,0-0.021,0c-0.004,0-0.007,0-0.01,0
	c-6.908,0.006-14.145,0.111-20.718-2.288c-9.209-3.361-6.444-17.395-6.42-25.06c0.001-0.168-0.105-0.284-0.275-0.354
	c0.17-0.165,0.276-0.356,0.275-0.569c-0.018-5.339-0.113-10.667,0.357-15.991c0.437-4.939,2.223-7.417,7.026-8.927
	c5.914-1.86,12.484-1.658,18.619-1.652c0.001,0,0.001,0,0.002,0c0.008,0,0.015,0,0.021,0c0.004,0,0.007,0,0.01,0
	c6.908-0.006,14.145-0.111,20.719,2.288c9.209,3.362,6.444,17.394,6.419,25.06C352.029,258.483,352.135,258.599,352.305,258.669z
	 M344.093,253.849c0.029-0.064,0.049-0.131,0.049-0.198c0.025-4.839,1.17-10.569-4.245-12.468
	c-4.445-1.559-9.593-1.341-14.235-1.338c-4.854-0.003-10.138-0.179-14.78,1.449c-5.845,2.049-4.859,7.6-4.831,12.93
	c0.001,0.089,0.036,0.159,0.089,0.22c-0.053,0.069-0.089,0.142-0.089,0.22c0.011,3.796-0.434,8.41,2.095,11.559
	c1.854,2.309,5.725,2.751,8.423,2.875c1.507,0.069,3.005,0.09,4.513,0.023c0.02,0.049,0.063,0.108,0.179,0.198
	c0.553,0.431,1.103,0.865,1.652,1.299c3.003,2.372,6.074,4.742,8.782,7.452c0.199,0.199,0.732,0.146,1.278-0.012
	c0.817-0.109,1.743-0.6,1.7-1.271c-0.188-2.91-1.236-5.72-1.613-8.621c3.381-0.242,7.172-0.52,9.599-3.145
	c2.539-2.748,1.564-7.529,1.496-10.886C344.151,254.026,344.127,253.934,344.093,253.849z M341.271,254.188
	c-0.024,0.073-0.04,0.148-0.038,0.228c0.056,2.719,0.395,5.426-0.168,8.114c-0.771,3.684-5.162,3.546-8.136,3.763
	c-0.03,0.002-0.059,0.01-0.088,0.013c-0.452-0.658-2.844-0.072-2.818,1.006c0.056,2.349,0.724,4.615,1.225,6.897
	c-1.584-1.352-3.218-2.648-4.838-3.944c-1.23-0.984-2.239-2.303-3.863-2.229c-4.004,0.183-9.252,0.214-11.998-3.204
	c-2.187-2.723-1.592-7.745-1.601-10.943c0-0.042-0.04-0.073-0.101-0.098c0.062-0.107,0.102-0.222,0.101-0.344
	c-0.015-2.681-0.058-5.338,0.302-8c0.359-2.657,2.688-3.058,4.981-3.451c3.383-0.579,6.867-0.529,10.288-0.527
	c0.001,0,0.001,0,0.001,0c3.728-0.002,7.458,0.021,11.143,0.651c1.71,0.293,3.544,0.776,4.735,2.11
	c1.681,1.883,0.859,7.583,0.847,9.79C341.245,254.082,341.257,254.136,341.271,254.188z M354.651,331.052
	c0.171-0.165,0.276-0.356,0.277-0.568c0.028-8.742,2.724-21.536-7.009-25.674c-6.684-2.841-14.802-2.525-21.919-2.521
	c-7.786-0.006-16.055-0.087-23.343,3.012c-9.498,4.038-6.727,17.638-6.7,25.958c0,0.169,0.107,0.285,0.277,0.355
	c-0.17,0.165-0.276,0.356-0.277,0.568c-0.028,8.742-2.724,21.537,7.008,25.674c6.685,2.842,14.802,2.525,21.919,2.521
	c7.786,0.006,16.055,0.088,23.344-3.011c9.498-4.038,6.726-17.639,6.699-25.959C354.928,331.238,354.822,331.122,354.651,331.052z
	 M352.307,331.613c-0.171,0.165-0.277,0.356-0.276,0.569c0.018,5.34,0.114,10.668-0.356,15.992c-0.437,4.94-2.223,7.418-7.026,8.928
	c-5.915,1.86-12.485,1.657-18.62,1.651c-0.001,0-0.001,0-0.002,0c-0.007,0-0.015,0-0.021,0c-0.004,0-0.007,0-0.01,0
	c-6.908,0.007-14.145,0.112-20.718-2.287c-9.209-3.361-6.444-17.395-6.42-25.06c0.001-0.168-0.105-0.284-0.276-0.354
	c0.171-0.165,0.277-0.356,0.276-0.569c-0.018-5.34-0.113-10.668,0.357-15.992c0.437-4.939,2.223-7.417,7.026-8.928
	c5.914-1.859,12.484-1.657,18.619-1.651c0.001,0,0.001,0,0.002,0c0.008,0,0.015,0,0.021,0c0.004,0,0.007,0,0.01,0
	c6.908-0.007,14.145-0.111,20.719,2.288c9.209,3.361,6.444,17.394,6.419,25.059C352.029,331.427,352.136,331.543,352.307,331.613z
	 M433.905,331.052c0.171-0.165,0.276-0.356,0.277-0.568c0.028-8.742,2.724-21.536-7.009-25.674
	c-6.684-2.841-14.802-2.525-21.919-2.521c-7.786-0.006-16.054-0.087-23.343,3.012c-9.498,4.038-6.727,17.638-6.7,25.958
	c0.001,0.169,0.106,0.285,0.277,0.355c-0.171,0.165-0.276,0.356-0.277,0.568c-0.027,8.742-2.724,21.537,7.009,25.674
	c6.685,2.842,14.802,2.525,21.919,2.521c7.786,0.006,16.055,0.088,23.344-3.011c9.498-4.038,6.726-17.639,6.699-25.959
	C434.182,331.238,434.076,331.122,433.905,331.052z M431.561,331.613c-0.171,0.165-0.277,0.356-0.276,0.569
	c0.018,5.34,0.114,10.668-0.356,15.992c-0.437,4.94-2.223,7.418-7.026,8.928c-5.915,1.86-12.485,1.657-18.62,1.651
	c-0.001,0-0.001,0-0.002,0c-0.007,0-0.015,0-0.021,0c-0.004,0-0.007,0-0.01,0c-6.908,0.007-14.145,0.112-20.718-2.287
	c-9.209-3.361-6.444-17.395-6.42-25.06c0.001-0.168-0.105-0.284-0.276-0.354c0.171-0.165,0.277-0.356,0.276-0.569
	c-0.018-5.34-0.113-10.668,0.357-15.992c0.437-4.939,2.223-7.417,7.026-8.928c5.915-1.859,12.484-1.657,18.619-1.651
	c0.001,0,0.001,0,0.002,0c0.008,0,0.015,0,0.021,0c0.004,0,0.007,0,0.01,0c6.908-0.007,14.145-0.111,20.719,2.288
	c9.209,3.361,6.444,17.394,6.419,25.059C431.283,331.427,431.39,331.543,431.561,331.613z M354.651,400.741
	c0.171-0.165,0.276-0.356,0.277-0.568c0.028-8.742,2.725-21.537-7.009-25.674c-6.685-2.841-14.802-2.525-21.919-2.521
	c-7.786-0.006-16.055-0.087-23.343,3.012c-9.498,4.037-6.727,17.638-6.7,25.958c0,0.169,0.107,0.285,0.277,0.355
	c-0.17,0.165-0.276,0.356-0.277,0.568c-0.028,8.742-2.723,21.536,7.008,25.674c6.685,2.841,14.802,2.525,21.919,2.521
	c7.786,0.006,16.055,0.087,23.344-3.012c9.498-4.038,6.726-17.638,6.699-25.958C354.928,400.928,354.822,400.812,354.651,400.741z
	 M352.307,401.303c-0.171,0.165-0.277,0.356-0.276,0.569c0.018,5.34,0.114,10.667-0.356,15.991c-0.437,4.94-2.223,7.418-7.026,8.929
	c-5.915,1.859-12.485,1.657-18.62,1.651c-0.001,0-0.001,0-0.002,0c-0.008,0-0.015,0-0.021,0c-0.004,0-0.007,0-0.01,0
	c-6.908,0.007-14.145,0.111-20.718-2.288c-9.209-3.361-6.444-17.394-6.42-25.059c0.001-0.168-0.105-0.284-0.276-0.354
	c0.171-0.165,0.277-0.356,0.276-0.569c-0.018-5.34-0.113-10.668,0.357-15.992c0.437-4.94,2.223-7.417,7.026-8.928
	c5.914-1.859,12.484-1.657,18.619-1.651c0.001,0,0.001,0,0.002,0c0.008,0,0.015,0,0.021,0c0.004,0,0.007,0,0.01,0
	c6.908-0.007,14.145-0.111,20.719,2.287c9.21,3.362,6.444,17.395,6.419,25.06C352.029,401.116,352.136,401.232,352.307,401.303z
	 M433.905,400.741c0.171-0.165,0.276-0.356,0.277-0.568c0.028-8.742,2.725-21.537-7.009-25.674
	c-6.685-2.841-14.802-2.525-21.919-2.521c-7.786-0.006-16.054-0.087-23.343,3.012c-9.498,4.037-6.727,17.638-6.7,25.958
	c0.001,0.169,0.106,0.285,0.277,0.355c-0.171,0.165-0.276,0.356-0.277,0.568c-0.027,8.742-2.723,21.536,7.009,25.674
	c6.685,2.841,14.802,2.525,21.919,2.521c7.786,0.006,16.055,0.087,23.344-3.012c9.498-4.038,6.726-17.638,6.699-25.958
	C434.182,400.928,434.076,400.812,433.905,400.741z M431.561,401.303c-0.171,0.165-0.277,0.356-0.276,0.569
	c0.018,5.34,0.114,10.667-0.356,15.991c-0.437,4.94-2.223,7.418-7.026,8.929c-5.915,1.859-12.485,1.657-18.62,1.651
	c-0.001,0-0.001,0-0.002,0c-0.008,0-0.015,0-0.021,0c-0.004,0-0.007,0-0.01,0c-6.908,0.007-14.145,0.111-20.718-2.288
	c-9.209-3.361-6.444-17.394-6.42-25.059c0.001-0.168-0.105-0.284-0.276-0.354c0.171-0.165,0.277-0.356,0.276-0.569
	c-0.018-5.34-0.113-10.668,0.357-15.992c0.437-4.94,2.223-7.417,7.026-8.928c5.915-1.859,12.484-1.657,18.619-1.651
	c0.001,0,0.001,0,0.002,0c0.008,0,0.015,0,0.021,0c0.004,0,0.007,0,0.01,0c6.908-0.007,14.145-0.111,20.719,2.287
	c9.21,3.362,6.444,17.395,6.419,25.06C431.283,401.116,431.39,401.232,431.561,401.303z M376.856,186.249
	c-0.171,0.165-0.276,0.355-0.277,0.568c-0.027,8.742-2.723,21.536,7.009,25.674c6.685,2.841,14.802,2.525,21.919,2.521
	c7.786,0.006,16.055,0.087,23.344-3.012c9.498-4.038,6.726-17.639,6.699-25.96c-0.001-0.169-0.106-0.285-0.277-0.355
	c0.171-0.165,0.276-0.355,0.277-0.568c0.027-8.741,2.724-21.535-7.009-25.672c-6.685-2.842-14.802-2.525-21.919-2.521
	c-7.786-0.006-16.054-0.088-23.343,3.011c-9.498,4.038-6.727,17.638-6.7,25.959C376.58,186.063,376.686,186.179,376.856,186.249z
	 M379.201,185.687c0.171-0.166,0.277-0.357,0.276-0.57c-0.018-5.339-0.113-10.666,0.357-15.991c0.437-4.939,2.223-7.417,7.026-8.927
	c5.915-1.86,12.484-1.657,18.619-1.651c0.001,0,0.001,0,0.002,0c0.007,0,0.015,0,0.021,0c0.004,0,0.007,0,0.01,0
	c6.908-0.007,14.145-0.112,20.719,2.287c9.209,3.361,6.443,17.394,6.419,25.06c-0.001,0.168,0.105,0.283,0.276,0.354
	c-0.171,0.166-0.277,0.357-0.276,0.57c0.018,5.339,0.113,10.667-0.356,15.991c-0.437,4.94-2.223,7.418-7.026,8.929
	c-5.915,1.859-12.485,1.657-18.62,1.651c-0.001,0-0.001,0-0.002,0c-0.008,0-0.015,0-0.021,0c-0.004,0-0.007,0-0.01,0
	c-6.908,0.007-14.145,0.111-20.718-2.288c-9.209-3.361-6.444-17.395-6.42-25.061C379.479,185.872,379.372,185.757,379.201,185.687z
	 M553.024,473.352c-0.001-0.003,0-0.006-0.001-0.009c-1.252-3.75-2.692-7.992-6.958-8.602c1.181-1.346,2.159-2.949,2.838-4.936
	c0.095-0.277-0.632-0.319-1.378-0.192c-6.492-12.766-20.429-19.225-26.532-32.189c-8.253-17.529,4.372-37.683,4.704-55.667
	c0.006-0.355-0.229-0.557-0.563-0.646c0.438-0.57,0.838-1.178,1.149-1.864c0.18-0.395,0.044-0.642-0.24-0.773
	c0.003-0.026,0.012-0.051,0.012-0.078c0.019-6.157,0.233-12.3,0.787-18.421c0.217-2.389,0.479-4.774,0.81-7.156
	c0.297-2.14,0.747-4.243,1.243-6.335c1.155-4.864,2.59-9.659,3.125-14.645c0.891-8.299-0.226-21.129-10.147-22.9
	c-0.138-1.086-0.298-2.232-0.361-3.379c9.448-2.515,17.185-10.563,17.919-20.685c0.46-6.335-0.29-18.765-8.958-18.389
	c-0.188-13.287-31.729-7.695-34.668,2.528c-0.156,0.544,0.432,0.732,1.12,0.67c-0.033,0.217,0.117,0.412,0.572,0.525
	c1.776,0.443,3.487,0.916,5.166,1.359c-0.59,0.782-1.172,1.592-1.733,2.43c-3.635,1.787-7.436,5.636-4.428,8.983
	c-0.706,2.363-1.045,4.801-0.811,7.255c0.265,2.767,2.722,4.742,4.611,6.479c2.797,2.572,5.542,6.989,5.415,10.937
	c-0.004,0.135,0.036,0.244,0.106,0.331c-0.139,0.071-0.262,0.148-0.368,0.228c-0.31-0.057-0.65-0.045-0.986,0.08
	c-4.684,1.738-7.703,6.413-9.281,10.945c-0.114,0.327-0.078,0.584,0.047,0.779c-5.178,1.396-10.367,1.422-15.818-2.367
	c-1.044-0.726-2.012-1.543-2.931-2.417c0.404-0.165,0.702-0.387,0.7-0.649c-0.063-6.763-0.664-13.498-0.73-20.258
	c1.511-0.473,2.97-1.106,4.343-1.971c2.646-1.665,3.581-4.277,4.052-7.219c0.951-5.948,0.589-12.138,0.57-18.137
	c0-0.169-0.106-0.285-0.277-0.355c0.17-0.165,0.276-0.356,0.277-0.568c0.027-8.742,2.723-21.536-7.009-25.673
	c-0.611-0.26-1.238-0.485-1.872-0.694c-0.004-21.312,0.338-42.623-0.065-63.931c-0.106-5.584-0.284-11.165-0.526-16.744
	c0.358-0.205,0.621-0.507,0.638-0.885c0.347-8.119,0.505-17.604-2.896-25.325c-1.058-3.732-3.007-7.049-6.858-9.716
	c-1.64-1.136-3.479-1.765-5.371-2.241c-5.563-2.351-12.053-3.071-18.11-3.328c-0.499-0.068-0.997-0.141-1.496-0.206
	c-11.416-1.49-22.968-1.778-34.468-1.681c-15.437,0.133-30.844,1.151-46.267,1.647c-7.123,0.03-14.246,0.055-21.366,0.055
	c-0.13,0-0.25,0.017-0.365,0.041c-11.364-0.026-22.726,0.026-34.078,0.223c-2.046,0.02-4.09,0.055-6.133,0.109
	c-0.247,0.006-0.495,0.008-0.742,0.014c-8.494,0.196-18.213,0.83-25.833,5.169c-0.469,0.259-0.932,0.53-1.388,0.816
	c-1.743,1.092-3.189,2.359-4.406,3.754c-0.105,0.117-0.212,0.233-0.314,0.352c-0.087,0.104-0.166,0.212-0.25,0.317
	c-6.687,8.101-6.445,20.656-6.025,30.499c0.009,0.227,0.262,0.338,0.611,0.363c-0.019,1.311-0.037,2.623-0.052,3.935
	c-2.783-0.023-5.565-0.046-8.349-0.07c-19.023-0.419-38.137,0.114-57.146,0.147c-1.657,0.003-3.478-0.077-5.354-0.115
	c-0.138-0.146-0.385-0.248-0.785-0.262c-5.307-0.188-9.719,0.496-12.814,2.838c-0.792,0.53-1.526,1.158-2.176,1.917
	c-3.316,3.876-3.183,10.574-2.911,16.293c0,0.187,0.002,0.374,0.003,0.562c-0.255,0.374-0.278,0.831,0.005,1.144
	c0.04,3.483,0.169,6.972,0.169,10.396c0,1.771,0,3.541,0,5.312c-0.04,7.756-0.129,15.519-0.087,23.275
	c-0.087,3.851-0.132,7.736,0.198,11.538c0.087,1.667,0.278,3.364,0.717,4.965c0.362,1.489,0.922,2.689,1.645,3.649
	c0.109,0.157,0.229,0.31,0.349,0.462c0.011,0.013,0.02,0.028,0.032,0.041c0.37,0.466,0.785,0.907,1.26,1.31
	c3.255,2.759,8.564,2.545,12.523,2.406c0.207-0.007,0.471-0.086,0.737-0.2c16.035,0.272,32.214,0.783,48.278,0.415
	c7.116,0.025,14.232-0.088,21.349-0.148c0.504-0.005,1.208-0.368,1.619-0.751c-0.185,32.341-0.212,64.685,0.119,97.013
	c0.011,1.071,0.013,2.145,0.06,3.215c0.001,0.034,0.015,0.063,0.027,0.092c0.002,4.379,0.001,8.759,0.004,13.138
	c-4.329,0.271-8.718,2.112-12.955,3.22c-2.733-3.969-4.785-9.053-8.331-12.314c-3.249-2.99-9.354-2.228-13.315-2.125
	c-4.135,0.107-8.999,0.03-12.978,1.708c2.217-3.743,6.529-11.591,2.826-11.387c-4.612,0.254-9.085,5.739-12.648,8.18
	c-6.315,4.327-17.918-1.331-24.636-3.172c-6.161-1.688-11.97-4.39-16.771-8.646c-0.066-0.059-0.155-0.096-0.255-0.123
	c0.47-0.788,0.888-1.575,1.25-2.353c0.829-0.326,1.523-0.851,0.865-1.065c-0.199-0.065-0.396-0.147-0.595-0.216
	c-2.646-0.908-5.274-2.091-7.779-3.526c-4.04-2.314-7.75-5.265-10.621-8.758c-1.548-1.884-3.061-3.55-4.839-4.502
	c0.268-1.103,0.715-2.13,1.307-3.089c0.23,0.047,0.499,0.04,0.808-0.049c4.798-1.384,10.709-1.357,14.969-4.183
	c4.758-3.156,3.387-8.854,1.661-13.418c0.779-1.579,1.541-3.249,2.749-4.542c0.278-0.297,0.344-0.756,0.106-1.095
	c-0.754-1.073-1.697-2.067-3.09-2.127c-1.151-0.05-2.097,0.597-3.206,0.655c-3.232-3.923-6.897-7.254-9.438-11.674
	c3.298,0.456,6.718-0.488,8.108-3.857c1.123-2.722-1.614-6.444-3.72-7.837c-3.426-2.265-7.357-3.404-11.406-3.905
	c-2.401-0.297-5.499-0.325-7.755,0.748c-3.469,1.649-4.342,4.888-5.987,8.109c-4.034,7.9-16.813,10.821-11.314,21.086
	c-4.206,3.559-1.211,8.006,2.149,11.038c3.711,3.351,7.854,4.392,12.518,4.627c-0.914,1.26-1.898,2.42-2.944,3.543
	c-0.303,0.125-0.561,0.275-0.718,0.423c-0.302-0.005-0.633,0.046-0.933,0.17c-8.799,3.637-12.79,12.799-16.336,21.017
	c-2.719,6.302-5.966,11.975-9.991,17.534c-3.099,4.279-8.336,9.423-9.671,14.627c-0.183,0.714-0.017,1.572,0.354,2.496
	c-0.691,0.125-1.388,0.493-1.478,0.998c-2.633,14.756-5.919,29.497-12.312,43.135c-6.322,13.49-16.092,24.719-27.379,34.3
	c-1.306,1.108,1.572,1.243,2.352,0.582c11.172-9.483,20.604-20.448,27.19-33.599c6.76-13.497,10.108-28.465,12.785-43.237
	c1.863,2.88,4.849,5.876,6.043,7.178c3.433,3.743,7.457,6.327,12.027,8.458c6.938,3.232,15.647,4.872,22.418,0.687
	c0.315-0.037,0.652-0.116,0.95-0.221c7.655,12.344,18.046,24.129,18.446,39.31c0.446,16.924-10.563,32.06-15.063,47.913
	c-1.101-0.324-3.218,0.898-2.092,1.65c-4.347,0.386-8.913,0.235-12.907-1.296c-0.181-0.166-0.468-0.284-0.794-0.335
	c-1.416-0.622-2.748-1.431-3.96-2.47c7.607-12.881,16.278-29.334,15.585-44.679c-0.219-4.844-2.606-8.582-5.911-11.938
	c-4.628-4.699-8.523-8.916-10.903-15.243c-0.168-0.448-0.602-0.653-1.085-0.685c0.017-0.054,0.036-0.106,0.052-0.161
	c0.266-0.872-2.614-0.462-2.883,0.418c-7.566,24.805-27.82,43.331-45.811,61.12c-5.359-2.054-10.229-6.989-11.764-12.524
	c-0.308-1.111-3.204-0.328-2.897,0.775c0.334,1.208,0.813,2.378,1.411,3.496c-4.995,2.201-9.306,5.614-8.714,11.62
	c0.705,7.144,8.858,13.085,14.684,15.892c2.104,1.014,7.223,2.785,8.604-0.527c1.854-4.448-1.24-11.388-2.596-16.023
	c0.661-0.055,1.422-0.249,1.692-0.52c0.229-0.229,0.46-0.457,0.689-0.686c0.136-0.104,0.248-0.213,0.327-0.324
	c17.568-17.452,37.571-35.496,46.119-59.318c2.006,4.602,4.802,8.449,8.44,12.04c3.607,3.56,6.662,6.739,7.511,11.946
	c1.292,7.922-2.325,16.91-5.108,24.126c-2.643,6.854-5.954,13.47-9.639,19.824c-0.934,0.146-2.165,0.761-1.847,1.106
	c0.274,0.299,0.565,0.568,0.855,0.839c0.017,0.317,0.298,0.518,0.686,0.603c1.205,0.998,2.521,1.789,3.918,2.399
	c-3.088,2.421-5.346,5.252-6.583,9.118c-0.125,0.392,0.316,0.69,0.613,0.796c12.053,4.263,28.461,7.756,39.713-0.326
	c0.492-0.354,0.757-0.986,0.182-1.399c-4.263-3.065-8.917-5.515-13.469-8.119c0.237-0.143,0.413-0.313,0.464-0.507
	c4.265-16.171,14.337-30.545,15.339-47.565c0.966-16.415-11.598-29.639-19.434-42.807c-0.132-0.223-0.401-0.328-0.723-0.352
	c0.946-6.342,2.072-12.338,3.889-18.16c0.689-2.208,1.484-4.39,2.399-6.557c0.984-2.328,2.109-4.639,3.421-6.942
	c0.009-0.015,0.016-0.029,0.024-0.044c0.025,0.009,0.054,0.013,0.08,0.021c0.385,0.118,0.872,0.135,1.327-0.042
	c0.105-0.041,0.216-0.066,0.323-0.102c0.665-0.07,1.328-0.187,1.988-0.345c3.667-0.143,8.042,1.899,11.009,3.1
	c3.582,1.449,7.054,3.161,10.583,4.731c9.849,4.383,20.791,0.963,31.032,3.313c-0.306,0.258-0.339,0.5,0.266,0.586
	c2.755,0.39,5.199-0.146,7.333-1.31c-0.908,1.839-1.728,3.696-2.577,5.26c-4.388-1.01-8.964-2.679-13.374-2.509
	c-4.116,0.159-7.303,3.142-10.082,5.856c-3.598,3.516-9.193,8.401-9.628,13.799c-0.138,1.709,0.574,3.411,1.177,4.967
	c1.288,3.318,2.521,6.587,3.439,10.033c-0.351,0.071-0.657,0.168-0.801,0.271c-4.122,2.935-9.004,4.932-12.885,8.164
	c-3.266,2.72-3.022,7.84-3.008,11.649c0.018,4.981-0.178,11.498,3.361,15.481c3.068,3.453,8.977,5.122,13.093,7.345
	c-0.004,0.016-0.013,0.03-0.016,0.047c-0.851,5.027-3.226,10.158-3.413,15.247c-0.18,4.886,5,8.936,8.144,11.889
	c3.382,3.177,7.295,6.694,12.138,7.007c4.543,0.293,9.533-2.148,13.989-3.6c2.496,3.916,4.536,10.108,8.418,12.876
	c4.36,3.108,11.077,2.438,16.083,2.342c3.863-0.074,9.069-0.06,12.134-2.906c3.613-3.354,5.449-8.913,8.027-13.146
	c4.146,1.122,8.446,2.848,12.698,2.874c0.476,1.768,1.096,3.383,1.862,4.841c2.523,5.463,8.182,9.554,13.858,11.468
	c1.416,0.477,2.873,0.767,4.348,0.958c10.014,2.385,21.699,1.891,30.597,2.006c12.3,0.159,24.591-0.247,36.88-0.652
	c21.788,0.821,43.584,1.357,65.389,0.938c12.477-0.239,24.941-0.849,37.381-1.834c6.62-0.525,14.444-3.543,18.58-8.963
	c1.979-2.591,2.858-5.198,3.374-8.066c2.745-7.365,2.597-16.1,2.274-23.648c-0.005-0.115-0.095-0.193-0.232-0.244
	c0.098-1.788,0.166-3.577,0.241-5.365c0.522-0.111,1.016-0.342,1.205-0.665c5.971-10.165,10.132-21.257,15.579-31.688
	c1.014,12.479,0.61,24.807,6.006,36.775c6.001,13.312,18.881,22.301,28.984,32.278c-5.903,3.771-9.067,10.529-5.391,16.796
	c-0.651,0.755,0.69,1.735,1.925,1.26c0.045-0.018,0.089-0.037,0.134-0.054c0.294-0.072,0.581-0.187,0.817-0.33
	c9.607-3.794,18.806-8.818,27.744-13.964C554.994,474.438,554.162,473.261,553.024,473.352z M149.973,264.59
	c0.141-0.158,0.271-0.324,0.399-0.491c-0.289,0.789-0.824,1.212-1.479,1.396C149.275,265.262,149.64,264.965,149.973,264.59z
	 M61.59,467.361c-0.378,1.549-4.955-1.496-5.69-1.93c-8.837-5.22-18.453-17.76-5.556-23.954c2.405,3.853,6.223,6.962,10.346,8.63
	c-0.911-0.006-2.295,0.54-2.147,1.12c0.969,3.806,2.111,7.573,2.884,11.426C61.737,464.19,61.966,465.819,61.59,467.361z
	 M146.055,472.507c-6.121,3.748-13.702,3.498-20.628,2.582c-3.626-0.479-7.186-1.387-10.688-2.424
	c-1.979-0.587-3.322-0.271-2.033-3.057c1.026-2.219,3.002-3.948,4.952-5.386c4.883,1.434,10.424,1.166,15.385,0.535
	C137.418,467.278,141.897,469.64,146.055,472.507z M456.014,446.5c-57.457-0.177-114.913-0.174-172.369,0.002
	c-0.328,0.001-0.774,0.167-1.16,0.387c0.294-0.713,0.508-1.433,0.593-2.153c0.579-4.936-2.571-10.716-3.71-15.544
	c3.905-2.35,8.65-4.325,11.777-7.591c3.274-3.42,3.306-8.328,3.423-12.797c0.125-4.756,0.586-11.105-2.555-15.1
	c-3.029-3.851-9.775-5.846-13.741-8.434c-0.056-0.036-0.122-0.063-0.193-0.084c1.19-4.473,3.668-9.626,3.282-14.144
	c-0.202-2.353-1.284-4.515-2.755-6.502c0.116-0.144,0.19-0.306,0.19-0.484c0-37.136,0-74.271,0-111.405
	c0-0.033-0.009-0.06-0.012-0.091c0-36.504,0-73.008,0-109.513c0-0.08-0.039-0.143-0.099-0.194c59.109,0,118.22,0,177.331,0
	c0.071,28.343,0.113,56.686,0.117,85.028c-7.681-0.008-15.806-0.039-22.983,3.012c-9.497,4.037-6.726,17.638-6.699,25.957
	c0,0.106,0.045,0.191,0.119,0.259c-0.072,0.119-0.124,0.248-0.137,0.39c-1.032,11.439-0.477,27.768,13.993,28.311
	c2.036,3.976,5.212,7.468,7.636,11.125c-0.092,0.1-0.189,0.195-0.279,0.299c-0.135,0.154-0.082,0.249,0.076,0.3
	c-0.174,0.124-0.268,0.238-0.217,0.31c3.041,4.305,6.028,8.646,9.122,12.91c-0.376,0.191-0.647,0.449-0.647,0.756
	C456.175,356.505,456.151,401.503,456.014,446.5z M448.396,283.603c-1.146-1.301-2.209-4.834-3.696-7.361
	c0.052-0.113,0.066-0.231,0.032-0.354c-0.219-0.777-0.286-1.475-0.054-2.044c1.774,2.99,2.927,6.297,4.671,9.312
	c0.557,0.961,3.338-0.018,2.898-0.777c-1.461-2.523-2.531-5.236-3.859-7.82c0.272-0.195,0.452-0.439,0.444-0.719
	c-0.005-0.189-0.026-0.39-0.041-0.59c2.577,2.411,2.977,6.798,4.316,9.906c0.43,0.996,3.276,0.101,2.898-0.777
	c-0.907-2.103-1.395-4.443-2.251-6.587c0.102-0.11,0.174-0.231,0.204-0.362c0.015-0.061,0.028-0.133,0.043-0.199
	c0.851,1.099,1.486,2.388,2.127,3.608c1.033,1.967,2.257,5.725,4.456,6.713c0.142,0.063,0.325,0.083,0.527,0.074
	c0.019,0,0.031,0.003,0.051,0.003c0.215,0.001,0.434,0.002,0.65,0.003c-0.103,0.12-0.167,0.25-0.167,0.388c0,1.253,0,2.506,0,3.759
	c0,0.061,0.013,0.114,0.026,0.166c-3.971,1.225-8.16,2.545-11.493,5.07c-3.8-5.442-9.515-11.445-8.839-18.378
	c0.051,0.089,0.103,0.178,0.152,0.265c0.58,1.01,1.08,2.067,1.592,3.112c0.762,1.556,1.439,3.334,2.6,4.648
	C446.252,285.304,449.001,284.287,448.396,283.603z M453.242,274.379C453.068,274.308,453.046,274.229,453.242,274.379
	L453.242,274.379z M464.543,285.644c3.005,0.004,6.072-0.074,9.014-0.61c0.056,5.953,0.525,11.888,0.684,17.837
	c-3.516-4.077-6.291-8.973-9.452-13.14c-0.063-0.082-0.155-0.14-0.266-0.182c0.011-0.042,0.023-0.085,0.023-0.129
	c0-1.253,0-2.506,0-3.759C464.546,285.655,464.543,285.65,464.543,285.644z M528.482,326.295
	c-1.119,6.218-3.128,12.163-4.002,18.468c-1.095,7.894-1.335,15.904-1.359,23.863c-0.001,0.322,0.138,0.549,0.349,0.702
	c-3.241,6.671-13.925,5.883-20.054,5.36c-6.367-0.542-14.88-1.866-20.105-6.106c0.01-0.038,0.022-0.076,0.023-0.116
	c0.143-6.658,2.131-13.518,3.73-19.935c1.413-5.666,2.649-14.238,6.616-18.86c8.391-1.32,16.69-4.365,24.194-7.401
	c1.912-0.773,0.096-1.106-1.002-0.662c-13.007,5.264-27.003,9.718-41.016,5.894c-2.961-0.809-5.509-4.331-7.488-6.5
	c-2.319-2.542-4.434-5.271-6.514-8.007c-3.941-5.184-7.561-10.61-11.316-15.927c-0.029-0.042-0.067-0.075-0.11-0.105
	c3.026-3.444,7.36-4.895,11.618-6.211c0.014,0.026,0.021,0.054,0.042,0.081c6.209,8.187,11.162,18.23,21.687,21.413
	c9.187,2.778,18.584-3.636,26.858-6.532c1.924-0.673,0.149-1.519-1.113-1.076c-3.875,1.356-7.638,3.153-11.384,4.472
	c1.385-3.755,3.729-7.626,7.625-9.072c0.459-0.17,0.703-0.396,0.79-0.633c3.811,1.289,8.553,1.199,12.52,0.918
	c0.008,0.017,0.013,0.035,0.023,0.051c0.078,0.252,0.343,0.453,0.888,0.512C530.902,302.056,529.863,318.626,528.482,326.295z
	 M504.914,262.146c5.091,1.242,9.979,1.909,15.482,0.211c-0.072,1.894-0.588,5.227-0.777,8.654
	c-0.373-0.901-1.054-1.729-2.112-2.396c-0.34-0.215-0.831-0.21-1.3-0.078c-0.717-0.48-1.598-0.729-2.513-0.748
	c-0.663-0.015-1.53,0.212-1.906,0.815c-0.032,0.051-0.046,0.098-0.063,0.146c-1.063,0.534-1.997,1.281-2.734,2.187
	c-0.415-0.157-0.836-0.261-1.264-0.313c0.827-1.303,1.303-2.814,1.239-4.394c-0.009-0.224-0.095-0.392-0.224-0.522
	c-0.007-0.017-0.002-0.032-0.011-0.049c-0.657-1.248-1.784-2.061-3.19-2.271c-0.164-0.024-0.334-0.031-0.504-0.026
	c-0.099-0.198-0.334-0.338-0.74-0.354C504.506,262.709,504.713,262.42,504.914,262.146z M519.729,276.497
	c-0.234-0.135-0.473-0.256-0.71-0.379c0.226-0.389,0.42-0.789,0.569-1.199C519.617,275.458,519.663,275.987,519.729,276.497z
	 M513.303,278.044c-2.059,0.225-3.166-1.895-3.03-3.624c0.141-1.787,1.402-3.409,2.995-4.142c0.241-0.111,0.418-0.234,0.546-0.363
	c0.353,0.23,0.639,0.564,0.814,0.994c0.252,0.613,1.144,0.544,1.662,0.404c0.008-0.002,0.021-0.007,0.028-0.009
	C517.9,273.684,516.4,277.707,513.303,278.044z M502.89,265.107c0.251-0.085,0.49-0.151,0.701-0.177
	c0.003,0,0.005-0.001,0.008-0.002c0.06,0.024,0.103,0.063,0.179,0.073c0.877,0.131,1.636,0.633,2.056,1.431
	c0.055,0.104,0.13,0.182,0.213,0.247c-0.002,3.238-3.651,8.055-6.647,5.305C500.278,269.567,501.573,267.182,502.89,265.107z
	 M500.406,283.095c-2.24-2.338-2.481-5.48-1.723-8.734c0.996,0.314,2.094,0.358,3.155,0.195c-0.333,0.825-0.198,1.667,0.855,2.387
	c0.557,0.381,1.319,0.249,1.911,0.005c0.227-0.094,1.336-0.744,0.784-1.12c-1.644-1.123-0.247-2.492,1.002-3.367
	c0.234,0.015,0.452,0.045,0.664,0.145c0.259,0.122,0.541,0.16,0.824,0.157c-0.302,0.706-0.507,1.458-0.569,2.251
	c-0.225,2.86,2.15,4.879,4.827,5.109c-0.234,0.101-1.24,0.571-0.821,0.76c1.103,0.498,2.296,0.28,3.406-0.094
	c1.027-0.348,1.904-1.029,2.32-2.045c0.049-0.118,0.006-0.192-0.084-0.238c0.198-0.159,0.392-0.324,0.576-0.501
	c1.052,0.578,2.062,1.211,3.085,1.805c0.775,1.635,2.051,2.705,4.088,2.756c0.466,0.012,1.093-0.276,1.511-0.615
	c0.078,0.003,0.158-0.001,0.239-0.011c0.61,0.962,0.648,2.485,0.278,3.758c-0.313,1.076-0.884,2.066-1.626,2.902
	c-1.08,0.543-2.181,0.899-2.92,1.105c-0.448-0.13-0.903-0.346-1.362-0.6c-0.736-0.407-3.098,0.785-2.73,0.988
	c0.546,0.303,1.109,0.523,1.68,0.676c-0.916,1.497-1.176,3.146-1.163,4.834c-0.134,0.17-0.154,0.321,0.007,0.4
	c0.03,0.948,0.136,1.904,0.25,2.849c-3.469,0.207-7.532,0.169-10.668-1.046c0.236-0.157,0.396-0.345,0.402-0.547
	C508.806,291.052,504.276,287.133,500.406,283.095z M476.102,231.792c9.209,3.361,6.445,17.394,6.42,25.059
	c0,0.168,0.105,0.284,0.276,0.354c-0.171,0.165-0.276,0.356-0.276,0.569c0.021,6.344,2.014,18.326-3.009,23.325
	c-1.069,1.063-2.463,1.756-4.019,2.213c-0.428,0.044-0.918,0.155-1.301,0.32c-3.753,0.763-8.161,0.42-11.434,0.378
	c-1.16-0.623-1.93-2.534-2.501-3.598c-0.992-1.85-1.899-3.747-3.009-5.531c-0.662-1.066-1.545-2.319-2.937-2.323
	c-0.808-0.003-1.422,0.245-1.902,0.646c-0.268-0.386-0.563-0.757-0.896-1.107c-1.032-1.088-2.592-1.874-4.002-1.021
	c-0.33,0.2-0.582,0.399-0.791,0.603c-0.015-0.021-0.026-0.043-0.041-0.064c-0.346-0.515-1.494-0.181-1.915-0.018
	c-1.229,0.474-2.157,1.139-2.674,2.022c-0.673-0.235-1.419-0.19-2.259,0.262c-2.648,1.424-1.271,7.202-0.584,9.229
	c0.054,0.158,0.129,0.309,0.187,0.466c-11.32-1.658-10.891-17.2-10.07-26.302c0.027-0.302-0.076-0.521-0.252-0.676
	c0.144-0.155,0.234-0.33,0.234-0.523c-0.018-5.34-0.113-10.668,0.357-15.992c0.437-4.939,2.223-7.416,7.026-8.927
	c5.914-1.859,12.484-1.657,18.619-1.651c0.001,0,0.001,0,0.002,0c0.007,0,0.015,0,0.021,0c0.003,0,0.007,0,0.01,0c0,0,0,0,0.001,0
	C462.292,229.499,469.528,229.394,476.102,231.792z M263.41,179.712c0.067-8.713,0.156-17.426,0.27-26.139
	c0.179-0.199,0.214-0.384,0.007-0.496c0.048-3.601,0.086-7.201,0.15-10.802c0.124-6.935-0.375-13.648,2.529-20.09
	c1.106-2.235,2.575-4.269,4.456-6.03c5.862-5.159,14.743-6.308,22.499-6.785c2.438-0.149,4.882-0.237,7.33-0.293
	c2.154,0.026,4.238,0.067,6.184,0.067c6.4,0,12.8,0,19.2,0c4.119,0,8.239,0,12.358,0c0.053,0.035,0.122,0.064,0.204,0.088
	c0.202,0.141,0.493,0.232,0.896,0.232c30.285,0,60.571,0,90.856,0c11.16,0,24.781-0.696,34.313,6.2
	c2.74,1.982,4.687,4.586,6.058,7.541c1.136,3.95,1.292,8.418,1.574,12.535c0.736,10.734,1.102,21.493,1.306,32.25
	c0.385,20.306,0.041,40.616,0.032,60.924c-4.73-1.037-9.835-1.063-14.633-1.042c0.03-0.079,0.052-0.161,0.052-0.248
	c-0.004-30.943-0.05-61.887-0.134-92.829c-0.004-1.399-2.923-0.867-2.92,0.281c0.005,1.918,0.007,3.835,0.012,5.753
	c-59.512,0-119.022,0-178.534,0c-1.584,0-2.219,1.93-0.403,2.016c-0.627,0.186-1.187,0.532-1.187,0.979c0,36.34,0,72.679,0,109.019
	c-0.003,0.026-0.012,0.052-0.012,0.079c0,36.155,0,72.31,0,108.464c-1.656-1.684-3.427-3.216-4.918-4.606
	c-2.218-2.068-4.813-4.362-7.853-5.067c0.027-0.055,0.045-0.111,0.045-0.171c-0.022-33.579-0.023-67.158-0.031-100.738
	c0-0.037-0.021-0.066-0.052-0.093C263.13,227.044,263.226,203.378,263.41,179.712z M175.164,161.098
	c1.427-6.207,7.678-6.527,12.979-6.341c0.628,0.022,1.285-0.386,1.646-0.848c3.892,0.022,7.651,0.384,9.895,0.381
	c10-0.013,20.032-0.181,30.062-0.245c-0.102,0.23,0.068,0.403,0.751,0.385c10.085-0.271,20.176-0.094,30.263-0.018
	c-0.044,3.82-0.082,7.641-0.12,11.46c-0.026,2.58-0.05,5.161-0.076,7.741c-28.738,0-57.476,0-86.213,0
	C174.333,169.426,174.221,165.199,175.164,161.098z M260.044,237.232c-0.125-0.032-0.282-0.054-0.494-0.052
	c-4.638,0.04-9.276,0.103-13.913,0.137c-0.124-0.03-0.291-0.044-0.519-0.035c-0.517,0.021-1.035,0.029-1.552,0.048
	c-4.952,0.024-9.904,0.007-14.856-0.132c-0.359-0.01-0.817,0.161-1.2,0.395c-11.669-0.002-23.364-0.328-34.985-0.477
	c-7.98-0.102-15.983,1.088-17.779-8.978c-0.187-1.046-0.313-2.114-0.414-3.19c-0.075-2.008,0.004-4.019,0.004-5.84
	c0-3.951,0-7.902,0-11.854c0.007-0.045,0.019-0.089,0.019-0.136c0-10.453,0-20.905,0-31.357c28.729,0,57.459,0,86.189,0
	C260.344,196.248,260.163,216.739,260.044,237.232z M130.528,296.91c0.358-0.099,0.83-0.275,1.212-0.456
	c0.862,0.145,1.771,0.112,2.587-0.016c0.626-0.099,1.504-0.403,1.602-1.15c0.091-0.691-0.778-1-1.33-0.914
	c-2.043,0.32-3.563-0.53-3.371-2.767c0.067-0.78,0.359-1.547,0.881-2.133c0.082-0.091,0.103-0.106,0.188-0.163
	c-0.007-0.006-0.025-0.01-0.076-0.003c0.024-0.003,0.036-0.007,0.051-0.01c0.006,0.004,0.015,0.008,0.026,0.012
	c0.028-0.019,0.065-0.042,0.113-0.075c-0.063,0.043-0.089,0.063-0.105,0.078c0.018,0.008,0.035,0.015,0.066,0.024
	c0.236,0.073,0.436,0.247,0.627,0.398c0.634,0.501,1.926,0.091,2.408-0.538c0.417-0.134,0.752-0.321,0.823-0.548
	c1.504-4.773,0.445-10.243-2.597-14.2c4.015-0.607,6.933-3.097,8.865-6.635c2.637,4.556,6.417,7.999,9.742,12.08
	c0.18,0.221,0.579,0.272,1.021,0.216c0.09,0.394,0.473,0.701,1.234,0.669c0.789-0.033,1.511-0.244,2.248-0.508
	c0.631-0.227,0.979,0.104,1.317,0.574c-1.053,1.313-1.823,2.868-2.566,4.371c-0.237,0.217-0.372,0.492-0.326,0.806
	c-0.022,0.208,0.037,0.377,0.163,0.505c1.573,4.141,3.162,9.437-1.821,11.648c-3.754,1.666-8.216,1.826-12.179,2.909
	c-0.624-0.343-1.804-0.242-2.272,0.393c-0.804,1.09-1.472,2.231-1.97,3.453c-0.296,0.067-0.55,0.155-0.685,0.255
	c-0.282,0.209-0.575,0.349-0.871,0.46c-0.256,0.024-0.528,0.086-0.796,0.138c-0.153,0.03-0.297,0.04-0.454,0.079
	c-0.064-0.001-0.127-0.012-0.191-0.017c-2.662-0.18-5.454-3.096-6.844-5.05C128.423,299.567,129.518,298.297,130.528,296.91z
	 M124.991,319.171c0.091-1.349-2.84-0.836-2.916,0.295c-0.667,9.898,8.902,16.604,16.954,20.406
	c-0.079,0.061-0.146,0.124-0.188,0.194c-6.421,10.824-8.698,21.755-10.468,33.997c-0.067,0.03-0.127,0.063-0.173,0.097
	c-7.422,5.529-19.168-0.206-25.78-4.742c-3.521-2.416-6.415-5.957-8.935-9.355c-1.259-1.696-2.513-3.697-3.213-5.719
	c-0.609-1.76,2.757-5.451,3.663-6.806c5.239-7.828,11.293-14.883,14.982-23.649c3.198-7.599,6.763-17.623,14.686-21.458
	c0.204,0.115,0.534,0.16,0.697,0.154c0.242-0.008,0.493-0.053,0.74-0.115c1.986,2.439,4.648,4.27,7.491,4.648
	c0.107,0.295,0.595,0.457,1.419,0.191c0.829-0.268,1.647-0.214,2.451,0.051c0.037,0.565,0.685,0.756,1.367,0.664
	c3.152,1.966,6.022,6.668,8.281,8.418c4.242,3.285,8.789,6.101,13.831,7.921c-1.057,2.459-3.064,5.58-5.549,8.337
	c-0.33,0.365-0.666,0.725-1.011,1.074c-1.89,1.916-3.998,3.57-6.154,4.561c-1.657-0.104-3.286,0.045-4.855,0.511
	c-0.056-0.05-0.125-0.097-0.219-0.139C134.415,335.215,124.34,328.829,124.991,319.171z M199.941,350.426
	c0.307-0.344,0.309-0.698-0.382-0.864c-6.412-1.547-12.94-0.988-19.476-1.044c-6.18-0.054-10.834-1.884-16.271-4.382
	c-4.301-1.976-9.643-4.783-14.87-5.599c4.252-2.119,8.125-5.73,10.875-9.579c6.606,5.342,14.294,7.116,22.331,9.629
	c6.887,2.153,14.157,4.877,21.162,1.531c4.092-1.954,7.22-5.548,11.075-7.897c-0.357,0.218-0.768,2.257-0.923,2.636
	c-0.712,1.739-1.601,3.432-2.422,5.121C209.001,344.173,205.667,350.953,199.941,350.426z M262.566,460.934
	c-0.009,0.099-0.002,0.194-0.009,0.292c-0.489,0.229-0.853,0.602-0.817,1.048c-3.97-0.392-9.262-2.771-11.891-3.34
	c-0.178-0.038-0.479,0.007-0.812,0.099c-0.729-0.038-1.719,0.23-2.024,0.699c-2.381,3.65-4.21,7.557-6.411,11.302
	c-2.627,4.469-8.797,3.765-13.271,3.802c-4.355,0.037-9.914,0.379-13.053-3.188c-2.846-3.233-4.574-7.731-6.885-11.371
	c0.434-0.584-0.115-1.276-1.371-0.949c-4.522,1.177-9.524,3.845-14.238,3.939c-5.22,0.105-10.459-6.242-13.763-9.551
	c-2.804-2.808-5.216-5.76-4.528-9.904c0.731-4.407,2.375-8.642,3.161-13.067c0.457-0.24,0.744-0.499,0.553-0.611
	c-4.141-2.431-8.934-4.055-12.818-6.877c-3.886-2.823-3.821-8.895-4.05-13.158c-0.238-4.448-0.873-10.572,2.674-13.952
	c3.311-3.154,8.435-5.04,12.233-7.671c0.884-0.078,1.917-0.615,1.749-1.254c-1.12-4.25-2.918-8.186-4.26-12.348
	c-1.542-4.784,2.67-8.845,5.575-12.08c2.665-2.969,6.557-8.063,10.976-7.91c4.493,0.154,9.198,2.131,13.633,2.873
	c0.787,0.132,2.658-0.887,2.258-1.381c2.029-3.552,3.658-7.564,6.199-10.76c2.861-3.597,10.035-2.918,14.05-3.055
	c4.019-0.136,9.392-0.853,12.255,2.617c2.68,3.246,4.511,7.307,6.91,10.797c-0.155,0.629,0.472,1.313,1.608,1.074
	c4.497-0.946,8.911-2.794,13.45-3.445c4.632-0.664,9.023,4.73,11.871,7.528c3.179,3.123,7.25,6.972,6.87,11.804
	c-0.357,4.539-2.547,9.151-3.514,13.597c-0.205,0.943,1.093,1.069,2.034,0.664c3.484,2.11,7.193,3.821,10.604,6.034
	c3.621,2.35,3.87,6.731,4.083,10.656c0.281,5.164,0.919,12.279-2.269,16.785c-2.607,3.685-8.512,5.823-12.332,8.192
	c-0.206,0.095-0.375,0.202-0.488,0.317c-0.584,0.428-0.444,0.696-0.028,0.817c0.896,4.037,2.25,7.884,3.38,11.854
	c0.989,3.473-0.357,6.067-2.513,8.765c-3.188,3.989-7.39,8.627-11.954,11.089c0-0.398,0.014-0.803,0.05-1.214
	C265.528,459.531,262.638,460.131,262.566,460.934z M473.598,330.06c-0.961,44.672,2.68,89.354-2.052,133.912
	c-0.019,0.178-0.048,0.349-0.072,0.523c-1.301,3.506-3.266,6.679-6.23,9.186c-3.906,3.302-8.95,4.928-14.306,5.716
	c-0.735,0.086-1.465,0.157-2.183,0.211c-2.33,0.177-4.663,0.321-6.995,0.465c-4.138,0.076-8.19-0.063-11.795-0.063
	c-10.494,0-20.987,0-31.48,0c-0.118-0.157-0.364-0.269-0.801-0.287c-12.24-0.521-24.477-0.354-36.711-0.017
	c-11.288-0.058-22.577-0.092-33.865-0.109c-11.779-0.019-23.56-0.02-35.339-0.02c-0.859,0-1.713-0.007-2.562-0.027
	c-0.917-0.081-1.834-0.157-2.751-0.248c-8.941-0.888-16.786-5.527-20.364-13.425c-0.329-0.958-0.547-1.962-0.643-3.011
	c2.927-1.013,5.455-3.278,7.659-5.296c2.579-2.361,6.836-5.849,8.865-9.607c0.125,0.034,0.288,0.056,0.51,0.055
	c57.777-0.177,115.555-0.18,173.332,0c0.062,0,0.127-0.006,0.196-0.017c-0.001,0.279-0.001,0.558-0.002,0.836
	c-0.002,0.718,2.895,0.227,2.898-0.777c0.141-44.755,0.163-89.511,0.107-134.267c0.692,0.923,1.376,1.853,2.085,2.764
	c2.152,2.767,4.459,5.398,6.873,7.938c2.444,2.571,4.141,3.673,7.055,4.502C474.314,329.113,473.609,329.519,473.598,330.06z
	 M476.512,329.757c0.004-0.163-0.037-0.297-0.109-0.407c0.154,0.036,0.29,0.073,0.451,0.109c4.568,1.009,9.256,1.097,13.939,0.595
	c-3.714,4.582-4.894,12.344-6.313,17.786c-1.553,5.949-3.33,12.293-3.879,18.528c-0.744,0.115-1.517,0.506-1.528,0.971
	c-0.091,3.668-1.104,7.042-2.331,10.389C476.462,361.739,476.168,345.751,476.512,329.757z M501.654,437.139
	c-5.65-12.535-4.436-25.971-5.786-39.219c0.121-0.21,0.237-0.422,0.36-0.631c0.306-0.521-0.013-0.79-0.526-0.867
	c-0.199-1.692-0.437-3.383-0.752-5.065c-0.183-0.974-3.093-0.266-2.898,0.775c0.374,1.998,0.661,3.994,0.891,5.987
	c-6.085,10.622-10.333,22.185-16.2,32.917c0.316-9.184,0.379-18.376,0.336-27.563c-0.033-6.922-0.135-13.844-0.252-20.764
	c0.49-0.156,0.917-0.406,1.039-0.727c1.455-3.824,3.025-7.532,3.726-11.502c6.249,4.499,15.685,5.608,22.915,6.094
	c5.305,0.355,13.279,0.242,18.242-3.203c-0.803,17.429-11.215,34.943-5.641,52.319c4.865,15.168,21.81,21.734,28.234,36.128
	c0.015,0.033,0.039,0.06,0.059,0.089c-2.784,5.885-8.501,7.547-14.471,9.239c0.261-0.229,0.357-0.487,0.127-0.715
	C520.539,460.042,507.895,450.981,501.654,437.139z M525.596,487.122c-3.109-5.53-0.481-11.627,4.87-14.908
	c4.993-1.416,10.132-2.715,13.888-5.798c3.646,0.272,4.81,4.819,5.771,7.704c0.072,0.216,0.247,0.353,0.475,0.43
	C542.521,479.167,534.224,483.625,525.596,487.122z M508.37,285.18c-1.92-0.412-0.413-2.402,1.006-2.098
	c1.087,0.233,1.969-0.008,2.955-0.483c0.574-0.276,1.53-0.368,1.968,0.213c0.44,0.586-0.175,1.239-0.687,1.486
	C511.979,285.084,510.179,285.568,508.37,285.18z M210.281,219.482c0.491,0.444-2.131,1.542-2.726,1.006
	c-5.342-4.825-11.452-8.658-16.979-13.252c-0.171-0.143,0.043-0.374,0.415-0.592c0.046-0.067,0.106-0.14,0.182-0.216
	c4.957-4.977,9.765-10.287,15.582-14.288c1.005-0.691,3.464-0.093,1.842,1.023c-5.492,3.777-10.049,8.813-14.723,13.527
	C199.25,211.081,205.121,214.823,210.281,219.482z M259.104,206.642c-5.527,4.594-11.639,8.429-16.979,13.252
	c-0.531,0.479-3.289,0.776-2.633,0.184c5.178-4.676,11.07-8.427,16.461-12.834c-4.785-4.81-9.427-9.979-15.043-13.842
	c-1.238-0.852,1.407-2.099,2.28-1.498c5.795,3.986,10.583,9.28,15.522,14.238c0.067,0.067,0.105,0.136,0.132,0.205
	C259.165,206.371,259.32,206.461,259.104,206.642z M232.464,191.604c-4.382,9.714-11.344,18.056-14.909,28.161
	c-0.208,0.591-2.503,0.835-2.363,0.439c3.565-10.105,10.527-18.448,14.909-28.161C230.368,191.449,232.613,191.271,232.464,191.604z
	 M192.173,295.271c0.077-0.055,0.149-0.113,0.208-0.182c0.068-0.064,0.119-0.133,0.16-0.203c2.106-2.616,1.789-6.689-0.947-8.755
	c-2.392-1.805-6.247-1.021-8.291,0.924c-2.464,2.346-2.225,6.239,0.136,8.58C185.99,298.161,189.71,297.438,192.173,295.271z
	 M185.472,288.103c1.116-1.23,2.947-1.034,4.157-0.12c1.836,1.385,1.736,4.703,0.339,6.294
	C186.486,297.548,182.821,291.025,185.472,288.103z M219.415,295.271c0.078-0.055,0.149-0.113,0.209-0.182
	c0.068-0.064,0.119-0.133,0.16-0.203c2.106-2.616,1.789-6.689-0.947-8.755c-2.392-1.805-6.247-1.021-8.291,0.924
	c-2.464,2.346-2.225,6.239,0.136,8.58C213.231,298.161,216.952,297.437,219.415,295.271z M212.714,288.103
	c1.116-1.23,2.947-1.034,4.157-0.12c1.836,1.385,1.736,4.703,0.339,6.294C213.728,297.548,210.063,291.025,212.714,288.103z
	 M246.657,295.271c0.078-0.055,0.149-0.113,0.208-0.182c0.068-0.064,0.119-0.133,0.16-0.203c2.105-2.616,1.79-6.689-0.946-8.755
	c-2.392-1.805-6.247-1.021-8.291,0.924c-2.464,2.346-2.225,6.239,0.136,8.58C240.474,298.161,244.194,297.438,246.657,295.271z
	 M239.956,288.103c1.116-1.23,2.947-1.034,4.157-0.12c1.835,1.385,1.734,4.704,0.338,6.294
	C240.97,297.548,237.306,291.024,239.956,288.103z M503.513,166.085c0.026,0.029,0.046,0.058,0.078,0.086
	c2.718,2.387,7.106,1.783,9.615-0.578c2.192-2.063,1.758-5.748-0.18-7.784c-4.964-5.214-15.2,2.259-9.643,8.172
	C503.422,166.021,503.468,166.053,503.513,166.085z M505.598,159.351c1.316-1.546,3.673-1.436,5.007-0.034
	c1.141,1.198,1.435,3.091,0.795,4.593c-0.933,2.191-3.83,1.997-5.425,0.73C504.543,163.067,504.129,161.073,505.598,159.351z
	 M503.513,193.327c0.026,0.029,0.046,0.058,0.078,0.086c2.718,2.387,7.106,1.783,9.615-0.578c2.192-2.063,1.758-5.748-0.18-7.784
	c-4.964-5.215-15.2,2.258-9.643,8.172C503.422,193.263,503.468,193.295,503.513,193.327z M505.598,186.592
	c1.316-1.545,3.673-1.435,5.007-0.033c1.141,1.198,1.435,3.091,0.795,4.593c-0.933,2.191-3.83,1.997-5.425,0.731
	C504.544,190.31,504.129,188.314,505.598,186.592z M503.384,220.464c0.038,0.041,0.084,0.072,0.129,0.105
	c0.027,0.028,0.046,0.057,0.078,0.085c2.718,2.386,7.106,1.784,9.615-0.577c2.192-2.063,1.758-5.748-0.18-7.784
	C508.063,207.079,497.826,214.551,503.384,220.464z M511.399,218.394c-0.933,2.191-3.83,1.996-5.425,0.73
	c-1.431-1.573-1.846-3.567-0.377-5.29c1.316-1.545,3.673-1.435,5.007-0.033C511.745,214.999,512.039,216.892,511.399,218.394z
	 M339.219,183.221c0.788,0.667-1.91,1.794-2.691,1.133c-5.943-5.029-12.434-5.595-18.628-0.331
	c-0.709,0.603-3.597,0.612-2.322-0.471C322.982,177.259,331.697,176.856,339.219,183.221z M335.256,188.128
	c0.788,0.667-1.91,1.794-2.691,1.133c-3.451-2.921-7.086-3.404-10.702-0.331c-0.709,0.603-3.597,0.612-2.322-0.471
	C324.401,184.327,330.3,183.935,335.256,188.128z M323.889,197.705c0.038,0.041,0.084,0.072,0.129,0.105
	c0.027,0.028,0.046,0.057,0.078,0.085c2.02,1.775,5.306,1.207,7.141-0.521c1.537-1.448,1.296-4.052-0.076-5.494
	C327.594,188.134,319.843,193.401,323.889,197.705z M329.165,196.073c-0.49,1.151-1.887,0.898-2.703,0.271
	c-0.813-0.921-1.119-2.074-0.25-3.094c0.668-0.784,1.79-0.636,2.445,0.054C329.342,194.024,329.552,195.164,329.165,196.073z
	 M400.172,198.579c0.076,0.748,0.167,1.393,0.291,1.946c-0.037,0.037-0.087,0.064-0.119,0.104c-0.3,0.375-0.001,0.573,0.337,0.66
	c0.38,1.067,1.004,1.672,2.154,1.912c0.103,0.103,0.284,0.176,0.573,0.195c2.797,0.191,5.023-0.242,5.508-3.32
	c0.559-3.545,0.7-5.365,3.827-7.94c1.828-1.506,3.035-3.226,3.852-5.444c2.897-7.872-4.058-15.38-11.702-15.369
	c-0.201,0-0.373,0.053-0.529,0.122c-7.656,0.235-13.184,6.615-12.095,14.37C393.056,191.422,399.598,192.952,400.172,198.579z
	 M404.182,201.899c-0.004,0-0.008,0-0.012,0c-0.416-0.113-0.735-0.305-0.987-0.553c0.458,0,0.917,0,1.375,0
	c0.625,0,1.468-0.229,1.894-0.73C406.074,201.439,405.422,201.984,404.182,201.899z M406.597,200.261
	c-0.052-0.283-0.575-0.387-0.867-0.387c-1.097,0-2.192,0-3.29,0c-0.065-0.292-0.112-0.598-0.145-0.914
	c0.1,0.012,0.194,0.018,0.262,0.018c1.319,0,2.639,0,3.958,0c0.115,0,0.244-0.018,0.372-0.034
	C406.82,199.41,406.732,199.859,406.597,200.261z M407.036,197.659c-1.088,0-2.177,0-3.265,0c-0.471,0-1.082,0.145-1.541,0.418
	c-0.029-0.515-0.055-1.025-0.111-1.499c1.598,0,3.195,0,4.793,0c0.086,0,0.176-0.013,0.264-0.019
	C407.119,196.911,407.075,197.28,407.036,197.659z M403.988,172.724c0.045,0,0.092-0.006,0.139-0.012
	c0.142,0.064,0.312,0.111,0.549,0.111c8.054-0.011,12.364,8.939,8.967,15.712c-1.309,2.61-4.316,4-5.95,6.438
	c-0.098,0.146-0.176,0.317-0.245,0.498c-1.771,0-3.541,0-5.313,0c-0.089,0-0.182,0.013-0.271,0.019
	c-0.749-2.199-3.013-3.622-4.648-5.092C390.779,184.61,395.415,172.712,403.988,172.724z M320.17,258.149
	c-0.042,0.09-0.098,0.179-0.185,0.26c-0.122,0.141-0.274,0.259-0.442,0.355c-1.16,0.811-2.785,1.053-3.86-0.063
	c-0.82-0.85-0.776-2.225,0.045-3.053c0.939-0.948,2.796-1.437,3.961-0.591C320.703,255.796,320.832,257.154,320.17,258.149z
	 M327.603,258.149c-0.042,0.091-0.099,0.179-0.185,0.26c-0.122,0.14-0.273,0.258-0.44,0.354c-1.16,0.813-2.786,1.056-3.862-0.061
	c-0.82-0.85-0.776-2.225,0.045-3.053c0.939-0.948,2.797-1.436,3.962-0.591C328.137,255.795,328.266,257.155,327.603,258.149z
	 M335.037,258.148c-0.043,0.091-0.099,0.18-0.186,0.261c-0.123,0.141-0.274,0.259-0.442,0.355c-1.16,0.811-2.784,1.053-3.86-0.063
	c-0.82-0.85-0.776-2.225,0.045-3.053c0.939-0.949,2.796-1.436,3.961-0.591C335.569,255.795,335.697,257.153,335.037,258.148z
	 M438.386,243.978c-0.001,0.17,0.051,0.356,0.126,0.55c-0.106,7.684-0.214,15.366-0.321,23.05c-0.002,0.138,0.128,0.224,0.326,0.27
	c-0.165,0.291-0.021,0.531,0.744,0.531c10.765,0,21.529,0,32.294,0c0.473,0,1.162-0.329,1.584-0.686
	c0.571-0.186,1.058-0.496,1.063-0.893c0.11-7.865,0.219-15.73,0.329-23.596c0.004-0.287-0.542-0.361-1.161-0.273
	c-0.237-0.181-0.665-0.204-1.112-0.122c-10.518,0-21.035,0-31.553,0C439.861,242.726,438.394,243.208,438.386,243.978z
	 M470.82,244.371c-0.14,1.799-9.422,9.837-13.233,13.112c-2.508-2.055-5.007-4.121-7.486-6.21c-1.914-1.612-3.813-3.243-5.685-4.906
	c-0.385-0.342-1.589-1.194-2.388-1.996C451.626,244.371,461.224,244.371,470.82,244.371z M441.089,266.8
	c0.089-6.361,0.178-12.724,0.267-19.085c2.023,1.696,4.478,3.337,5.288,4.025c3.075,2.613,6.186,5.188,9.313,7.738
	c0.646,0.526,1.941,0.143,2.502-0.351c1.48-1.302,9.341-7.529,13.13-11.979c-0.091,6.556-0.183,13.11-0.274,19.666
	c-10.076,0-20.152,0-30.229,0C441.086,266.81,441.089,266.806,441.089,266.8z M335.29,330.931c-0.261-1.97-1.017-4.121-2.928-4.985
	c-1.255-0.569-2.526-0.417-3.699,0.082c-2.202-6.802-14.076-4.014-13.545,2.616c-3.648-0.611-7.259,1.609-8.222,5.543
	c-0.475,1.942-0.136,4.132,1.252,5.622c1.487,1.597,3.859,1.665,5.936,1.353c5.641,0.096,11.276,0.359,16.919,0.184
	c2.858-0.089,6.747,0.022,9.293-1.596c2.417-1.535,2.657-4.511,1.259-6.784C340.412,331.107,337.496,330.77,335.29,330.931z
	 M330.414,339.664c-5.813,0.182-11.638-0.234-17.45-0.272c-0.176-0.001-0.371,0.042-0.566,0.11
	c-1.981-0.625-3.038-2.705-2.707-5.171c0.187-1.39,0.817-2.769,1.86-3.717c1.154-1.051,2.653-0.347,3.828,0.328
	c0.672,0.387,2.708-0.395,2.587-1.046c0.252-0.202,0.392-0.442,0.313-0.694c-0.742-2.358,0.235-4.744,2.718-5.44
	c2.645-0.741,4.553,1.552,4.986,3.884c0.009,0.048,0.029,0.089,0.051,0.129c-0.033,0.029-0.067,0.059-0.1,0.088
	c-0.506,0.463-0.225,1.148,0.359,1.34c0.734,0.24,1.505-0.053,2.049-0.549c1.013-0.926,1.873-1.43,2.866-0.277
	c0.904,1.049,1.141,2.609,1.254,3.938c0.069,0.808,1.28,0.814,2.116,0.363c2.668-0.197,4.992,0.939,4.948,4.082
	C339.479,340.06,332.023,339.614,330.414,339.664z M405.142,313.699c-6.039-0.379-11.794,2.574-13.301,8.671
	c-2.29,9.271,5.204,18.983,11.701,24.571c0.494,0.425,2.14-0.118,2.645-0.614c0.498-0.112,0.959-0.296,1.122-0.509
	C414.295,336.699,423.874,314.874,405.142,313.699z M405.311,345.065c-5.422-4.918-9.684-11.092-10.745-18.475
	c-1.306-9.082,7.124-14.647,15.225-9.854C418.947,322.154,410.043,338.495,405.311,345.065z M407.894,320.372
	c-2.392-1.805-6.247-1.021-8.291,0.924c-2.464,2.346-2.225,6.239,0.136,8.58c2.55,2.526,6.271,1.803,8.733-0.363
	c0.077-0.055,0.148-0.113,0.208-0.182c0.068-0.064,0.119-0.133,0.16-0.203C410.946,326.511,410.63,322.438,407.894,320.372z
	 M406.266,328.517c-3.481,3.272-7.146-3.25-4.495-6.172c1.116-1.231,2.946-1.035,4.157-0.121
	C407.764,323.609,407.662,326.927,406.266,328.517z M418.558,383.639c-4.802-3.625-12.623-2.322-16.796,1.649
	c-5.517,5.251-4.838,13.757,0.247,19.06c-4.563,3.764-8.274,8.335-11.9,12.987c-0.874,1.121,2.077,1.014,2.729,0.178
	c3.26-4.183,6.62-8.376,10.68-11.816c5.168,3.896,11.987,2.321,16.618-1.894c0.077-0.054,0.148-0.113,0.208-0.181
	c0.124-0.117,0.201-0.224,0.256-0.326C425.36,397.511,424.645,388.231,418.558,383.639z M417.929,402.808
	c-10.335,9.713-22.688-6.945-14.351-16.137c3.463-3.818,9.486-3.844,13.407-0.885C422.059,389.614,421.813,398.386,417.929,402.808z
	 M336.862,393.146c-2.463-0.531-2.844-2.763-3.691-4.777c-1.016-2.41-3.144-3.195-5.632-3.256c-1.076-0.026-3.094,1.573-1.133,1.621
	c0.04,0.001,0.07,0.01,0.109,0.011c0,5.25,0,10.5,0,15.749c-1.878-0.669-4.173-0.184-6.224,0.691
	c-0.539-0.163-1.279-0.141-1.756,0.168c-3.059,1.979-7.408,6.153-6.01,10.286c1.53,4.523,8.891,1.805,11.509,0.271
	c2.694-1.579,6.409-5.004,5.395-8.368c0-5.855,0-11.711,0-17.564c0.625,0.695,1.043,1.643,1.447,2.766
	c0.76,2.111,1.949,3.472,4.206,3.958C335.988,394.896,338.502,393.5,336.862,393.146z M321.938,412.883
	c-1.924,1.04-6.643,2.551-6.724-1.095c-0.041-1.877,0.999-3.584,2.349-4.981c0.311-0.036,0.612-0.134,0.847-0.313
	c2.085-1.589,5.891-3.774,7.854-0.835c0.104,0.155,0.182,0.313,0.252,0.47c0,0.315,0,0.631,0,0.946c0,0.22,0.083,0.385,0.212,0.509
	C326.45,409.862,323.554,412.009,321.938,412.883z" fill="#0984E3"></path>
</svg>