<?xml version="1.0" encoding="UTF-8"?>
<!DOCTYPE svg PUBLIC "-//W3C//DTD SVG 1.1//EN" "http://www.w3.org/Graphics/SVG/1.1/DTD/svg11.dtd">
<svg xmlns="http://www.w3.org/2000/svg" version="1.1" width="261px" height="237px" style="shape-rendering:geometricPrecision; text-rendering:geometricPrecision; image-rendering:optimizeQuality; fill-rule:evenodd; clip-rule:evenodd" xmlns:xlink="http://www.w3.org/1999/xlink">
<g><path style="opacity:0.097" fill="#000000" d="M 104.5,-0.5 C 110.167,-0.5 115.833,-0.5 121.5,-0.5C 113.704,0.284103 106.371,2.61744 99.5,6.5C 85.0448,14.1235 74.5448,25.4568 68,40.5C 64.9893,50.4858 68.4893,54.3192 78.5,52C 82.0561,50.3924 85.3894,48.5591 88.5,46.5C 96.0365,44.742 103.703,44.0753 111.5,44.5C 124.046,47.6073 135.046,53.6073 144.5,62.5C 152.947,72.4562 160.447,83.1228 167,94.5C 181.622,122.087 196.455,149.42 211.5,176.5C 210.881,185.975 206.547,188.308 198.5,183.5C 198.5,183.167 198.5,182.833 198.5,182.5C 200.912,182.756 202.579,181.756 203.5,179.5C 202.431,176.461 201.265,173.461 200,170.5C 183.826,142.823 168.16,114.823 153,86.5C 144.671,71.838 132.838,61.0046 117.5,54C 108.647,51.6213 99.6469,50.9547 90.5,52C 84.5342,55.2663 78.2008,57.433 71.5,58.5C 66.3572,58.519 62.8572,56.1857 61,51.5C 60.3333,48.1667 60.3333,44.8333 61,41.5C 69.8073,21.5247 84.3073,7.52473 104.5,-0.5 Z"/></g>
<g><path style="opacity:0.009" fill="#000000" d="M 135.5,-0.5 C 138.833,-0.5 142.167,-0.5 145.5,-0.5C 147.833,0.833333 150.167,2.16667 152.5,3.5C 146.756,1.97901 141.09,0.645678 135.5,-0.5 Z"/></g>
<g><path style="opacity:0.097" fill="#000100" d="M 125.5,5.5 C 136.559,5.68153 146.893,8.51487 156.5,14C 171.901,25.0629 184.068,38.8963 193,55.5C 211.773,86.7112 229.773,118.378 247,150.5C 260.44,177.295 255.94,200.462 233.5,220C 230.273,222.112 226.94,223.945 223.5,225.5C 217.485,228.254 211.151,229.921 204.5,230.5C 196.567,230.347 188.9,228.847 181.5,226C 177.106,224.418 173.439,221.918 170.5,218.5C 190.508,230.927 210.175,230.427 229.5,217C 247.683,200.023 251.517,180.19 241,157.5C 236.667,148.833 232.333,140.167 228,131.5C 213.081,106.664 198.414,81.6644 184,56.5C 177.352,45.1777 169.185,35.011 159.5,26C 132.125,6.25693 106.958,8.75693 84,33.5C 83.5172,34.448 83.3505,35.448 83.5,36.5C 95.6017,34.7774 107.602,35.2774 119.5,38C 123.229,38.8445 126.563,40.3445 129.5,42.5C 122.388,40.0111 115.055,38.6778 107.5,38.5C 97.0367,36.8025 87.37,38.8025 78.5,44.5C 76.8297,44.7512 75.3297,45.4178 74,46.5C 73.5304,45.4232 73.6971,44.4232 74.5,43.5C 84.7036,21.6199 101.704,8.95319 125.5,5.5 Z"/></g>
<g><path style="opacity:1" fill="#7fd662" d="M 125.5,5.5 C 101.704,8.95319 84.7036,21.6199 74.5,43.5C 72.0029,42.8707 70.6696,41.204 70.5,38.5C 77.0402,25.2915 86.7068,14.9582 99.5,7.5C 112.852,1.08068 126.852,-0.752654 141.5,2C 135.141,2.16941 128.807,2.66941 122.5,3.5C 122.291,4.08605 121.957,4.58605 121.5,5C 122.793,5.49001 124.127,5.65668 125.5,5.5 Z"/></g>
<g><path style="opacity:0.647" fill="#71b13e" d="M 99.5,6.5 C 99.5,6.83333 99.5,7.16667 99.5,7.5C 86.7068,14.9582 77.0402,25.2915 70.5,38.5C 67.9608,42.6562 67.9608,46.8228 70.5,51C 76.0456,52.0524 80.7123,50.5524 84.5,46.5C 85.8333,46.5 87.1667,46.5 88.5,46.5C 85.3894,48.5591 82.0561,50.3924 78.5,52C 68.4893,54.3192 64.9893,50.4858 68,40.5C 74.5448,25.4568 85.0448,14.1235 99.5,6.5 Z"/></g>
<g><path style="opacity:1" fill="#88d660" d="M 107.5,38.5 C 109.922,40.268 112.588,41.768 115.5,43C 113.942,43.21 112.609,43.71 111.5,44.5C 103.703,44.0753 96.0365,44.742 88.5,46.5C 87.1667,46.5 85.8333,46.5 84.5,46.5C 81.9899,46.9465 79.9899,46.2798 78.5,44.5C 87.37,38.8025 97.0367,36.8025 107.5,38.5 Z"/></g>
<g><path style="opacity:0.005" fill="#000000" d="M 131.5,43.5 C 133.674,43.7497 135.341,44.7497 136.5,46.5C 134.326,46.2503 132.659,45.2503 131.5,43.5 Z"/></g>
<g><path style="opacity:1" fill="#b0d978" d="M 70.5,38.5 C 70.6696,41.204 72.0029,42.8707 74.5,43.5C 73.6971,44.4232 73.5304,45.4232 74,46.5C 75.3297,45.4178 76.8297,44.7512 78.5,44.5C 79.9899,46.2798 81.9899,46.9465 84.5,46.5C 80.7123,50.5524 76.0456,52.0524 70.5,51C 67.9608,46.8228 67.9608,42.6562 70.5,38.5 Z"/></g>
<g><path style="opacity:0.005" fill="#000000" d="M 136.5,46.5 C 138.027,46.427 139.027,47.0937 139.5,48.5C 138.833,48.5 138.167,48.5 137.5,48.5C 137.167,47.8333 136.833,47.1667 136.5,46.5 Z"/></g>
<g><path style="opacity:0.005" fill="#000000" d="M 140.5,49.5 C 142.027,49.427 143.027,50.0937 143.5,51.5C 141.973,51.573 140.973,50.9063 140.5,49.5 Z"/></g>
<g><path style="opacity:0.843" fill="#47a347" d="M 137.5,48.5 C 138.167,48.5 138.833,48.5 139.5,48.5C 140.167,48.5 140.5,48.8333 140.5,49.5C 140.973,50.9063 141.973,51.573 143.5,51.5C 147.167,54.5 150.5,57.8333 153.5,61.5C 152.061,62.5092 150.728,62.1759 149.5,60.5C 146.276,56.7726 142.609,53.6059 138.5,51C 137.748,50.3292 137.414,49.4959 137.5,48.5 Z"/></g>
<g><path style="opacity:0.061" fill="#000000" d="M 117.5,69.5 C 116.5,69.5 115.5,69.5 114.5,69.5C 111.551,67.5392 108.218,66.3726 104.5,66C 87.8743,63.3818 72.2077,66.0485 57.5,74C 54.6688,75.6657 52.3355,77.8324 50.5,80.5C 49.5084,80.3284 48.8417,80.6618 48.5,81.5C 38.3176,91.5128 29.8176,102.846 23,115.5C 16.3482,128.135 9.68158,140.802 3,153.5C 1.69123,157.254 0.524565,160.921 -0.5,164.5C -0.5,158.167 -0.5,151.833 -0.5,145.5C 9.05496,128.732 18.8883,112.065 29,95.5C 51.9286,64.0201 81.4286,55.3534 117.5,69.5 Z"/></g>
<g><path style="opacity:0.775" fill="#357536" d="M 154.5,62.5 C 155.488,63.795 156.488,65.1283 157.5,66.5C 156.603,67.5981 155.77,67.5981 155,66.5C 154.51,65.2068 154.343,63.8734 154.5,62.5 Z"/></g>
<g><path style="opacity:0.624" fill="#3ea23a" d="M 144.5,62.5 C 147.41,64.2391 149.91,66.5724 152,69.5C 157.83,77.156 163.163,85.156 168,93.5C 182.735,121.143 197.569,148.643 212.5,176C 212.272,176.399 211.938,176.565 211.5,176.5C 196.455,149.42 181.622,122.087 167,94.5C 160.447,83.1228 152.947,72.4562 144.5,62.5 Z"/></g>
<g><path style="opacity:1" fill="#aad85b" d="M 114.5,69.5 C 114.565,69.9382 114.399,70.2716 114,70.5C 108,67.2637 101.833,66.7637 95.5,69C 96.1667,69.3333 96.8333,69.6667 97.5,70C 94.3054,70.1805 91.3054,70.6805 88.5,71.5C 77.4256,72.3763 67.4256,76.043 58.5,82.5C 58.4142,81.5041 58.7476,80.6708 59.5,80C 58.8333,79.6667 58.1667,79.3333 57.5,79C 60.0692,76.6309 62.0692,74.4642 63.5,72.5C 58.9435,74.938 54.6102,77.6047 50.5,80.5C 52.3355,77.8324 54.6688,75.6657 57.5,74C 72.2077,66.0485 87.8743,63.3818 104.5,66C 108.218,66.3726 111.551,67.5392 114.5,69.5 Z"/></g>
<g><path style="opacity:0.092" fill="#000000" d="M 88.5,71.5 C 106.476,71.1589 121.143,77.8255 132.5,91.5C 138.739,99.6311 144.239,108.298 149,117.5C 159.23,139.64 171.23,160.64 185,180.5C 188.036,183.704 191.203,186.704 194.5,189.5C 202.187,194.799 209.353,194.132 216,187.5C 218.687,182.715 219.187,177.715 217.5,172.5C 221.221,181.351 219.554,189.185 212.5,196C 203.745,200.932 195.412,200.265 187.5,194C 179.197,186.036 172.03,177.203 166,167.5C 157.079,151.325 148.412,134.992 140,118.5C 134.38,107.546 127.213,97.7123 118.5,89C 102.389,77.3585 85.0558,75.3585 66.5,83C 57.1367,88.0267 49.3034,94.86 43,103.5C 30.1143,123.268 18.781,143.935 9,165.5C 6.6835,176.983 7.1835,188.316 10.5,199.5C 8.13511,195.576 6.63511,191.243 6,186.5C 4.97065,177.69 5.63732,169.023 8,160.5C 16.3338,143.163 25.1671,126.163 34.5,109.5C 41.0146,99.3107 49.0146,90.3107 58.5,82.5C 67.4256,76.043 77.4256,72.3763 88.5,71.5 Z"/></g>
<g><path style="opacity:0.934" fill="#58c659" d="M 107.5,38.5 C 115.055,38.6778 122.388,40.0111 129.5,42.5C 130.492,42.3284 131.158,42.6618 131.5,43.5C 132.659,45.2503 134.326,46.2503 136.5,46.5C 136.833,47.1667 137.167,47.8333 137.5,48.5C 137.414,49.4959 137.748,50.3292 138.5,51C 142.609,53.6059 146.276,56.7726 149.5,60.5C 150.728,62.1759 152.061,62.5092 153.5,61.5C 154.167,61.5 154.5,61.8333 154.5,62.5C 154.343,63.8734 154.51,65.2068 155,66.5C 155.77,67.5981 156.603,67.5981 157.5,66.5C 162.944,72.9508 167.61,79.9508 171.5,87.5C 171.427,89.0269 172.094,90.0269 173.5,90.5C 177.594,96.3515 180.927,102.685 183.5,109.5C 183.427,111.027 184.094,112.027 185.5,112.5C 185.229,114.38 185.896,115.713 187.5,116.5C 191.085,122.668 194.418,129.001 197.5,135.5C 197.427,137.027 198.094,138.027 199.5,138.5C 200.674,139.514 201.34,140.847 201.5,142.5C 201.427,144.027 202.094,145.027 203.5,145.5C 204.674,146.514 205.34,147.847 205.5,149.5C 205.427,151.027 206.094,152.027 207.5,152.5C 208.674,153.514 209.34,154.847 209.5,156.5C 209.427,158.027 210.094,159.027 211.5,159.5C 214.29,163.416 216.29,167.749 217.5,172.5C 219.187,177.715 218.687,182.715 216,187.5C 209.353,194.132 202.187,194.799 194.5,189.5C 194.586,188.504 194.252,187.671 193.5,187C 195.5,186.667 197.5,186.333 199.5,186C 198.748,185.329 198.414,184.496 198.5,183.5C 206.547,188.308 210.881,185.975 211.5,176.5C 211.938,176.565 212.272,176.399 212.5,176C 197.569,148.643 182.735,121.143 168,93.5C 163.163,85.156 157.83,77.156 152,69.5C 149.91,66.5724 147.41,64.2391 144.5,62.5C 135.046,53.6073 124.046,47.6073 111.5,44.5C 112.609,43.71 113.942,43.21 115.5,43C 112.588,41.768 109.922,40.268 107.5,38.5 Z"/></g>
<g><path style="opacity:0.005" fill="#000000" d="M 171.5,87.5 C 172.906,87.9731 173.573,88.9731 173.5,90.5C 172.094,90.0269 171.427,89.0269 171.5,87.5 Z"/></g>
<g><path style="opacity:1" fill="#78c356" d="M 114.5,69.5 C 115.5,69.5 116.5,69.5 117.5,69.5C 127.375,75.5363 135.875,83.2029 143,92.5C 157.432,117.699 171.599,143.032 185.5,168.5C 183.99,169.728 182.49,169.728 181,168.5C 169.155,148.145 157.821,127.478 147,106.5C 144.838,103.515 142.671,100.515 140.5,97.5C 137.947,95.4032 135.614,93.0698 133.5,90.5C 132.893,90.6236 132.56,90.9569 132.5,91.5C 121.143,77.8255 106.476,71.1589 88.5,71.5C 91.3054,70.6805 94.3054,70.1805 97.5,70C 96.8333,69.6667 96.1667,69.3333 95.5,69C 101.833,66.7637 108,67.2637 114,70.5C 114.399,70.2716 114.565,69.9382 114.5,69.5 Z"/></g>
<g><path style="opacity:0.011" fill="#97d84a" d="M 92.5,105.5 C 91.3478,106.625 90.3478,106.625 89.5,105.5C 90.8149,104.524 92.1482,103.524 93.5,102.5C 93.8333,102.667 94.1667,102.833 94.5,103C 93.6195,103.708 92.9528,104.542 92.5,105.5 Z"/></g>
<g><path style="opacity:0.008" fill="#95e34e" d="M 101.5,101.5 C 103.924,103.228 104.09,105.228 102,107.5C 101.505,105.527 101.338,103.527 101.5,101.5 Z"/></g>
<g><path style="opacity:0.079" fill="#010100" d="M 89.5,105.5 C 90.3478,106.625 91.3478,106.625 92.5,105.5C 94.0764,106.143 95.4097,107.143 96.5,108.5C 90.888,106.601 85.888,107.601 81.5,111.5C 72.9926,119.678 65.9926,129.011 60.5,139.5C 53.3947,149.37 47.5614,160.037 43,171.5C 40.4699,178.454 41.3032,184.954 45.5,191C 50.9672,195.12 56.6339,195.454 62.5,192C 68.6723,187.526 73.839,182.026 78,175.5C 81.1788,169.806 84.3454,164.139 87.5,158.5C 88.8923,156.727 90.059,154.727 91,152.5C 91.6667,151.167 92.3333,151.167 93,152.5C 99.3804,164.097 105.88,175.597 112.5,187C 107.951,196.609 102.285,205.442 95.5,213.5C 80.5001,228.498 62.8334,233.331 42.5,228C 31.4411,224.99 22.7744,218.823 16.5,209.5C 33.8913,227.623 54.2247,231.79 77.5,222C 89.5159,213.649 98.1825,202.649 103.5,189C 100.31,181.452 96.4769,174.285 92,167.5C 90.9805,166.313 89.8139,165.313 88.5,164.5C 83.0133,172.797 77.5133,181.13 72,189.5C 64.0381,199.25 54.2047,202.084 42.5,198C 36.7479,193.996 34.0812,188.496 34.5,181.5C 34.538,177.015 35.3713,172.681 37,168.5C 44.9088,153.01 53.5755,138.01 63,123.5C 68.4,115.427 75.5667,109.594 84.5,106C 86.1341,105.506 87.8008,105.34 89.5,105.5 Z"/></g>
<g><path style="opacity:0.843" fill="#cce25a" d="M 58.5,82.5 C 49.0146,90.3107 41.0146,99.3107 34.5,109.5C 33.8505,107.565 33.5172,105.565 33.5,103.5C 37.3966,95.4126 42.7299,88.246 49.5,82C 49.2716,81.6012 48.9382,81.4346 48.5,81.5C 48.8417,80.6618 49.5084,80.3284 50.5,80.5C 54.6102,77.6047 58.9435,74.938 63.5,72.5C 62.0692,74.4642 60.0692,76.6309 57.5,79C 58.1667,79.3333 58.8333,79.6667 59.5,80C 58.7476,80.6708 58.4142,81.5041 58.5,82.5 Z"/></g>
<g><path style="opacity:0.005" fill="#000000" d="M 183.5,109.5 C 184.906,109.973 185.573,110.973 185.5,112.5C 184.094,112.027 183.427,111.027 183.5,109.5 Z"/></g>
<g><path style="opacity:0.005" fill="#000000" d="M 185.5,112.5 C 186.674,113.514 187.34,114.847 187.5,116.5C 185.896,115.713 185.229,114.38 185.5,112.5 Z"/></g>
<g><path style="opacity:0.096" fill="#000000" d="M 91.5,114.5 C 91.8333,114.5 92.1667,114.5 92.5,114.5C 97.9,118.59 102.4,123.59 106,129.5C 119.507,152.511 132.507,175.844 145,199.5C 153.363,215.53 165.863,227.03 182.5,234C 185.117,234.822 187.784,235.322 190.5,235.5C 190.833,235.5 191.167,235.5 191.5,235.5C 191.5,235.833 191.5,236.167 191.5,236.5C 184.167,236.5 176.833,236.5 169.5,236.5C 159.282,230.452 150.782,222.452 144,212.5C 127.919,184.003 111.586,155.67 95,127.5C 91.5535,122.258 87.3869,121.424 82.5,125C 70.9542,140.58 60.7876,157.08 52,174.5C 49.7129,177.884 50.0463,180.884 53,183.5C 56.2032,182.23 58.8699,180.23 61,177.5C 66.5852,168.665 71.9186,159.665 77,150.5C 82.5641,144.275 89.0641,142.942 96.5,146.5C 93.1501,146.335 89.8168,146.502 86.5,147C 80.6227,155.918 75.1227,165.085 70,174.5C 67.6653,177.665 65.1653,180.665 62.5,183.5C 60.0757,185.243 57.409,186.576 54.5,187.5C 50.594,186.261 48.594,183.594 48.5,179.5C 51.5622,168.711 56.2289,158.711 62.5,149.5C 68.7025,138.28 76.0359,127.78 84.5,118C 86.6093,116.354 88.9427,115.188 91.5,114.5 Z"/></g>
<g><path style="opacity:0.005" fill="#000000" d="M 105.5,115.5 C 107.262,116.262 108.262,117.596 108.5,119.5C 106.738,118.738 105.738,117.404 105.5,115.5 Z"/></g>
<g><path style="opacity:0.006" fill="#000000" d="M 108.5,119.5 C 110.25,120.659 111.25,122.326 111.5,124.5C 109.75,123.341 108.75,121.674 108.5,119.5 Z"/></g>
<g><path style="opacity:0.005" fill="#000000" d="M 114.5,129.5 C 115.906,129.973 116.573,130.973 116.5,132.5C 115.094,132.027 114.427,131.027 114.5,129.5 Z"/></g>
<g><path style="opacity:1" fill="#7ad35b" d="M 185.5,168.5 C 188.823,172.46 192.156,176.46 195.5,180.5C 195.973,181.906 196.973,182.573 198.5,182.5C 198.5,182.833 198.5,183.167 198.5,183.5C 198.414,184.496 198.748,185.329 199.5,186C 197.5,186.333 195.5,186.667 193.5,187C 194.252,187.671 194.586,188.504 194.5,189.5C 191.203,186.704 188.036,183.704 185,180.5C 171.23,160.64 159.23,139.64 149,117.5C 144.239,108.298 138.739,99.6311 132.5,91.5C 132.56,90.9569 132.893,90.6236 133.5,90.5C 135.614,93.0698 137.947,95.4032 140.5,97.5C 142.671,100.515 144.838,103.515 147,106.5C 157.821,127.478 169.155,148.145 181,168.5C 182.49,169.728 183.99,169.728 185.5,168.5 Z"/></g>
<g><path style="opacity:1" fill="#c0dc52" d="M 81.5,111.5 C 81.62,112.586 82.2867,113.253 83.5,113.5C 86.3559,114.361 89.0225,114.694 91.5,114.5C 88.9427,115.188 86.6093,116.354 84.5,118C 76.0359,127.78 68.7025,138.28 62.5,149.5C 64.126,144.751 66.4593,140.251 69.5,136C 67.4141,135.443 66.0807,136.276 65.5,138.5C 63.9547,139.452 62.288,139.785 60.5,139.5C 65.9926,129.011 72.9926,119.678 81.5,111.5 Z"/></g>
<g><path style="opacity:0.005" fill="#000000" d="M 197.5,135.5 C 198.906,135.973 199.573,136.973 199.5,138.5C 198.094,138.027 197.427,137.027 197.5,135.5 Z"/></g>
<g><path style="opacity:0.005" fill="#000000" d="M 118.5,136.5 C 119.906,136.973 120.573,137.973 120.5,139.5C 119.094,139.027 118.427,138.027 118.5,136.5 Z"/></g>
<g><path style="opacity:0.647" fill="#7dab39" d="M 190.5,235.5 C 187.784,235.322 185.117,234.822 182.5,234C 165.863,227.03 153.363,215.53 145,199.5C 132.507,175.844 119.507,152.511 106,129.5C 102.4,123.59 97.9,118.59 92.5,114.5C 92.4346,114.062 92.6012,113.728 93,113.5C 98.7992,117.422 103.466,122.422 107,128.5C 120.521,151.543 133.521,174.876 146,198.5C 152.646,210.289 161.48,220.123 172.5,228C 178.485,230.834 184.485,233.334 190.5,235.5 Z"/></g>
<g><path style="opacity:0.005" fill="#000000" d="M 201.5,142.5 C 202.906,142.973 203.573,143.973 203.5,145.5C 202.094,145.027 201.427,144.027 201.5,142.5 Z"/></g>
<g><path style="opacity:0.005" fill="#000000" d="M 205.5,149.5 C 206.906,149.973 207.573,150.973 207.5,152.5C 206.094,152.027 205.427,151.027 205.5,149.5 Z"/></g>
<g><path style="opacity:0.749" fill="#bbbe38" d="M 48.5,81.5 C 48.9382,81.4346 49.2716,81.6012 49.5,82C 42.7299,88.246 37.3966,95.4126 33.5,103.5C 30.6341,105.546 28.4675,108.213 27,111.5C 19.0746,125.683 11.408,140.017 4,154.5C 2.59207,158.057 1.59207,161.724 1,165.5C 0.500246,174.16 0.33358,182.827 0.5,191.5C 0.166667,191.5 -0.166667,191.5 -0.5,191.5C -0.5,182.5 -0.5,173.5 -0.5,164.5C 0.524565,160.921 1.69123,157.254 3,153.5C 9.68158,140.802 16.3482,128.135 23,115.5C 29.8176,102.846 38.3176,91.5128 48.5,81.5 Z"/></g>
<g><path style="opacity:0.005" fill="#000000" d="M 209.5,156.5 C 210.906,156.973 211.573,157.973 211.5,159.5C 210.094,159.027 209.427,158.027 209.5,156.5 Z"/></g>
<g><path style="opacity:1" fill="#d9e251" d="M 62.5,149.5 C 56.2289,158.711 51.5622,168.711 48.5,179.5C 48.594,183.594 50.594,186.261 54.5,187.5C 57.409,186.576 60.0757,185.243 62.5,183.5C 65.0562,182.457 67.2228,180.79 69,178.5C 73.6667,170.5 78.3333,162.5 83,154.5C 84,153.833 85,153.167 86,152.5C 86.813,154.436 87.313,156.436 87.5,158.5C 84.3454,164.139 81.1788,169.806 78,175.5C 73.839,182.026 68.6723,187.526 62.5,192C 56.6339,195.454 50.9672,195.12 45.5,191C 41.3032,184.954 40.4699,178.454 43,171.5C 47.5614,160.037 53.3947,149.37 60.5,139.5C 62.288,139.785 63.9547,139.452 65.5,138.5C 66.0807,136.276 67.4141,135.443 69.5,136C 66.4593,140.251 64.126,144.751 62.5,149.5 Z"/></g>
<g><path style="opacity:1" fill="#99cf5b" d="M 96.5,108.5 C 100.363,109.694 103.363,112.027 105.5,115.5C 105.738,117.404 106.738,118.738 108.5,119.5C 108.75,121.674 109.75,123.341 111.5,124.5C 113.25,125.659 114.25,127.326 114.5,129.5C 114.427,131.027 115.094,132.027 116.5,132.5C 117.674,133.514 118.34,134.847 118.5,136.5C 118.427,138.027 119.094,139.027 120.5,139.5C 127.337,150.502 133.67,161.836 139.5,173.5C 139.427,175.027 140.094,176.027 141.5,176.5C 143.674,179.515 145.341,182.849 146.5,186.5C 146.427,188.027 147.094,189.027 148.5,189.5C 152.993,197.143 157.993,204.476 163.5,211.5C 164.833,214.833 167.167,217.167 170.5,218.5C 173.439,221.918 177.106,224.418 181.5,226C 188.9,228.847 196.567,230.347 204.5,230.5C 207.823,231.362 211.323,232.028 215,232.5C 217.808,231.614 220.641,231.447 223.5,232C 219.58,233.313 215.58,234.313 211.5,235C 204.533,235.425 197.866,235.592 191.5,235.5C 191.167,235.5 190.833,235.5 190.5,235.5C 184.485,233.334 178.485,230.834 172.5,228C 161.48,220.123 152.646,210.289 146,198.5C 133.521,174.876 120.521,151.543 107,128.5C 103.466,122.422 98.7992,117.422 93,113.5C 92.6012,113.728 92.4346,114.062 92.5,114.5C 92.1667,114.5 91.8333,114.5 91.5,114.5C 89.0225,114.694 86.3559,114.361 83.5,113.5C 82.2867,113.253 81.62,112.586 81.5,111.5C 85.888,107.601 90.888,106.601 96.5,108.5 Z"/></g>
<g><path style="opacity:1" fill="#ede753" d="M 33.5,103.5 C 33.5172,105.565 33.8505,107.565 34.5,109.5C 25.1671,126.163 16.3338,143.163 8,160.5C 5.63732,169.023 4.97065,177.69 6,186.5C 6.63511,191.243 8.13511,195.576 10.5,199.5C 10.2291,201.38 10.8958,202.713 12.5,203.5C 13.3382,203.842 13.6716,204.508 13.5,205.5C 13.427,207.027 14.0937,208.027 15.5,208.5C 16.1667,208.5 16.5,208.833 16.5,209.5C 22.7744,218.823 31.4411,224.99 42.5,228C 62.8334,233.331 80.5001,228.498 95.5,213.5C 97.1958,213.315 98.5291,212.481 99.5,211C 100.944,210.219 102.277,210.386 103.5,211.5C 99.609,213.53 97.2757,217.196 96.5,222.5C 87.9999,230.417 77.9999,235.084 66.5,236.5C 60.5,236.5 54.5,236.5 48.5,236.5C 29.2947,233.482 14.7947,223.482 5,206.5C 2.38304,201.817 0.883036,196.817 0.5,191.5C 0.33358,182.827 0.500246,174.16 1,165.5C 1.59207,161.724 2.59207,158.057 4,154.5C 11.408,140.017 19.0746,125.683 27,111.5C 28.4675,108.213 30.6341,105.546 33.5,103.5 Z"/></g>
<g><path style="opacity:1" fill="#bad456" d="M 96.5,146.5 C 98.1288,147.625 99.6288,148.959 101,150.5C 107.388,161.28 113.221,172.28 118.5,183.5C 119.174,188.947 118.008,193.947 115,198.5C 109.735,207.256 103.568,215.256 96.5,222.5C 97.2757,217.196 99.609,213.53 103.5,211.5C 102.277,210.386 100.944,210.219 99.5,211C 98.5291,212.481 97.1958,213.315 95.5,213.5C 102.285,205.442 107.951,196.609 112.5,187C 105.88,175.597 99.3804,164.097 93,152.5C 92.3333,151.167 91.6667,151.167 91,152.5C 90.059,154.727 88.8923,156.727 87.5,158.5C 87.313,156.436 86.813,154.436 86,152.5C 85,153.167 84,153.833 83,154.5C 78.3333,162.5 73.6667,170.5 69,178.5C 67.2228,180.79 65.0562,182.457 62.5,183.5C 65.1653,180.665 67.6653,177.665 70,174.5C 75.1227,165.085 80.6227,155.918 86.5,147C 89.8168,146.502 93.1501,146.335 96.5,146.5 Z"/></g>
<g><path style="opacity:0.005" fill="#000000" d="M 139.5,173.5 C 140.906,173.973 141.573,174.973 141.5,176.5C 140.094,176.027 139.427,175.027 139.5,173.5 Z"/></g>
<g><path style="opacity:0.005" fill="#000000" d="M 195.5,180.5 C 197.027,180.427 198.027,181.094 198.5,182.5C 196.973,182.573 195.973,181.906 195.5,180.5 Z"/></g>
<g><path style="opacity:0.036" fill="#000000" d="M 118.5,183.5 C 119.645,187.311 119.812,191.311 119,195.5C 111.562,212.756 100.062,226.423 84.5,236.5C 78.5,236.5 72.5,236.5 66.5,236.5C 77.9999,235.084 87.9999,230.417 96.5,222.5C 103.568,215.256 109.735,207.256 115,198.5C 118.008,193.947 119.174,188.947 118.5,183.5 Z"/></g>
<g><path style="opacity:0.004" fill="#1a2012" d="M 146.5,186.5 C 147.906,186.973 148.573,187.973 148.5,189.5C 147.094,189.027 146.427,188.027 146.5,186.5 Z"/></g>
<g><path style="opacity:0.133" fill="#000000" d="M -0.5,191.5 C -0.166667,191.5 0.166667,191.5 0.5,191.5C 0.883036,196.817 2.38304,201.817 5,206.5C 14.7947,223.482 29.2947,233.482 48.5,236.5C 40.1667,236.5 31.8333,236.5 23.5,236.5C 14.2077,230.208 6.20772,222.542 -0.5,213.5C -0.5,206.167 -0.5,198.833 -0.5,191.5 Z"/></g>
<g><path style="opacity:1" fill="#4bca5e" d="M 121.5,-0.5 C 126.167,-0.5 130.833,-0.5 135.5,-0.5C 141.09,0.645678 146.756,1.97901 152.5,3.5C 158.451,5.61648 163.785,8.78314 168.5,13C 176.404,20.234 183.571,28.0673 190,36.5C 206,63.1667 222,89.8333 238,116.5C 246.347,131.526 253.847,146.859 260.5,162.5C 260.5,172.167 260.5,181.833 260.5,191.5C 258.018,200.798 253.684,209.132 247.5,216.5C 246.926,215.472 246.593,214.472 246.5,213.5C 243.649,214.012 242.316,215.679 242.5,218.5C 236.877,221.978 230.877,224.978 224.5,227.5C 223.702,227.043 223.369,226.376 223.5,225.5C 226.94,223.945 230.273,222.112 233.5,220C 255.94,200.462 260.44,177.295 247,150.5C 229.773,118.378 211.773,86.7112 193,55.5C 184.068,38.8963 171.901,25.0629 156.5,14C 146.893,8.51487 136.559,5.68153 125.5,5.5C 124.127,5.65668 122.793,5.49001 121.5,5C 121.957,4.58605 122.291,4.08605 122.5,3.5C 128.807,2.66941 135.141,2.16941 141.5,2C 126.852,-0.752654 112.852,1.08068 99.5,7.5C 99.5,7.16667 99.5,6.83333 99.5,6.5C 106.371,2.61744 113.704,0.284103 121.5,-0.5 Z"/></g>
<g><path style="opacity:0.035" fill="#000000" d="M 260.5,191.5 C 260.5,193.833 260.5,196.167 260.5,198.5C 254.551,214.778 244.218,227.445 229.5,236.5C 223.833,236.5 218.167,236.5 212.5,236.5C 226.577,234.097 238.244,227.431 247.5,216.5C 253.684,209.132 258.018,200.798 260.5,191.5 Z"/></g>
<g><path style="opacity:0.005" fill="#000000" d="M 10.5,199.5 C 11.6737,200.514 12.3404,201.847 12.5,203.5C 10.8958,202.713 10.2291,201.38 10.5,199.5 Z"/></g>
<g><path style="opacity:0.005" fill="#000000" d="M 13.5,205.5 C 14.9063,205.973 15.573,206.973 15.5,208.5C 14.0937,208.027 13.427,207.027 13.5,205.5 Z"/></g>
<g><path style="opacity:0.006" fill="#000000" d="M 163.5,211.5 C 166.167,213.5 168.5,215.833 170.5,218.5C 167.167,217.167 164.833,214.833 163.5,211.5 Z"/></g>
<g><path style="opacity:1" fill="#6fcd5c" d="M 247.5,216.5 C 238.244,227.431 226.577,234.097 212.5,236.5C 205.5,236.5 198.5,236.5 191.5,236.5C 191.5,236.167 191.5,235.833 191.5,235.5C 197.866,235.592 204.533,235.425 211.5,235C 215.58,234.313 219.58,233.313 223.5,232C 220.641,231.447 217.808,231.614 215,232.5C 211.323,232.028 207.823,231.362 204.5,230.5C 211.151,229.921 217.485,228.254 223.5,225.5C 223.369,226.376 223.702,227.043 224.5,227.5C 230.877,224.978 236.877,221.978 242.5,218.5C 242.316,215.679 243.649,214.012 246.5,213.5C 246.593,214.472 246.926,215.472 247.5,216.5 Z"/></g>
</svg>
