<?xml version="1.0" standalone="no"?>
<!DOCTYPE svg PUBLIC "-//W3C//DTD SVG 20010904//EN"
 "http://www.w3.org/TR/2001/REC-SVG-20010904/DTD/svg10.dtd">
<svg version="1.0" xmlns="http://www.w3.org/2000/svg"
 width="1024.000000pt" height="1024.000000pt" viewBox="0 0 1024.000000 1024.000000"
 preserveAspectRatio="xMidYMid meet">

<g transform="translate(0.000000,1024.000000) scale(0.100000,-0.100000)"
fill="#000000" stroke="none">
<path d="M8720 3160 c-13 -8 -12 -11 5 -24 11 -9 17 -16 12 -16 -4 0 26 -42
66 -92 284 -358 507 -756 673 -1200 77 -207 104 -289 130 -393 14 -55 27 -109
30 -120 4 -14 3 -16 -4 -7 -7 11 -10 11 -15 -2 -4 -9 -1 -15 6 -13 8 1 12 -12
11 -40 -1 -33 3 -43 15 -43 14 -1 13 -2 -1 -11 -10 -5 -18 -15 -18 -22 0 -8 3
-8 9 1 6 10 10 8 14 -8 4 -16 2 -20 -9 -16 -11 4 -11 0 2 -19 13 -20 13 -24 2
-20 -9 4 -14 -2 -15 -15 -1 -11 2 -18 8 -15 5 4 9 -1 9 -9 0 -8 -5 -18 -10
-21 -8 -5 -7 -12 2 -22 7 -9 11 -19 10 -22 -18 -31 -23 -43 -14 -37 10 6 26
-53 17 -62 -3 -3 -5 0 -5 6 0 7 -3 12 -8 12 -6 0 -6 -26 0 -87 1 -7 5 -13 9
-13 4 0 4 -12 0 -27 -4 -16 -6 -34 -4 -40 3 -7 0 -13 -7 -13 -7 0 -8 -6 0 -19
5 -11 7 -27 3 -37 -4 -12 -3 -15 5 -10 9 5 9 0 2 -19 -6 -15 -8 -31 -4 -36 3
-5 1 -9 -3 -9 -5 0 -8 -43 -7 -96 0 -52 -4 -105 -10 -117 -7 -12 -10 -35 -9
-52 4 -48 9 -292 5 -273 -2 10 -8 18 -13 18 -6 0 -8 -4 -5 -9 4 -5 2 -21 -3
-34 -8 -20 -6 -27 7 -32 14 -5 14 -7 2 -15 -10 -7 1 -10 38 -10 l52 0 2 43 c1
23 1 53 0 67 -1 14 -1 61 -1 105 1 44 1 87 1 95 -1 60 -2 198 -1 325 0 83 0
152 -1 155 -1 3 -2 34 -4 70 -1 36 -6 72 -10 80 -7 12 -6 13 5 3 23 -22 29
-116 35 -536 l7 -407 193 0 c135 0 195 3 200 12 5 7 3 8 -7 3 -12 -8 -12 -6 0
8 7 9 10 17 6 17 -4 0 -2 7 5 15 10 12 10 15 -1 15 -10 0 -10 3 -1 12 8 8 8
17 1 30 -8 14 -7 24 3 36 11 14 11 15 -5 9 -13 -5 -16 -3 -10 6 11 17 13 39 5
51 -3 6 -7 17 -8 24 -2 11 0 11 13 0 15 -12 15 -11 4 10 -6 12 -9 27 -5 33 4
6 0 15 -7 20 -11 7 -11 9 -1 9 7 0 11 4 7 9 -3 5 -1 12 5 16 5 3 10 12 10 18
0 7 -4 6 -10 -3 -8 -13 -10 -12 -10 3 0 9 5 17 10 17 6 0 10 5 10 11 0 5 -3 8
-7 6 -5 -3 -14 1 -21 9 -7 8 -9 14 -3 14 14 0 21 29 9 36 -7 5 -8 2 -3 -6 5
-8 4 -11 -3 -7 -12 8 -10 32 3 44 4 4 5 3 2 -3 -4 -7 0 -14 8 -17 15 -6 11 16
-7 40 -6 7 -3 15 9 22 17 11 17 11 -2 9 -17 -3 -20 4 -23 40 -3 34 0 42 10 37
7 -3 4 1 -6 9 -11 9 -15 16 -10 16 6 0 11 7 11 15 0 8 -4 15 -9 15 -5 0 -7 4
-4 9 4 5 0 11 -6 14 -10 3 -10 7 -1 17 7 8 8 22 2 43 -6 21 -5 33 2 38 16 10
0 31 -18 24 -13 -4 -14 -3 -4 9 10 11 8 17 -6 26 -16 10 -16 11 0 6 11 -3 17
0 17 9 0 8 -4 15 -9 15 -5 0 -5 15 -1 35 8 34 5 39 -14 36 -5 -1 -3 6 5 15 13
16 12 16 -11 4 -23 -12 -24 -12 -11 3 7 10 10 17 6 17 -4 0 0 11 9 25 15 23
15 24 -1 18 -12 -5 -14 -3 -8 7 5 8 1 18 -10 27 -11 7 -14 13 -9 13 12 0 11
25 -1 54 -5 12 -3 21 6 27 12 7 12 9 0 9 -8 0 -11 6 -7 16 4 10 2 13 -6 8 -8
-5 -9 -2 -5 9 4 11 1 17 -8 17 -8 0 -15 6 -16 13 0 6 -2 21 -5 32 -2 11 -5 31
-7 44 -2 13 -12 30 -23 38 -16 12 -16 14 -2 11 9 -2 16 2 15 7 -1 6 -6 9 -10
7 -5 -1 -6 2 -2 7 3 6 -3 19 -15 31 -12 12 -15 20 -7 20 7 1 5 6 -5 14 -20 15
-24 31 -5 20 6 -4 3 3 -8 16 -11 13 -14 20 -8 16 9 -5 11 -2 7 8 -3 9 -11 13
-17 9 -6 -4 -8 0 -4 10 4 10 2 17 -4 17 -6 0 -8 7 -5 16 4 9 2 13 -5 8 -7 -4
-9 0 -5 14 5 14 0 25 -15 36 -14 9 -19 21 -15 31 4 12 2 16 -6 12 -17 -6 -22
54 -5 66 8 6 5 7 -9 4 -15 -3 -21 0 -20 12 1 11 -6 15 -19 13 -16 -2 -17 -1
-5 7 8 5 19 7 25 4 5 -4 1 3 -9 15 -11 12 -16 25 -13 28 4 4 -5 20 -18 36 -26
31 -33 54 -13 42 7 -4 8 -3 4 5 -6 8 -12 9 -20 2 -16 -13 -27 -4 -19 15 3 8
-1 14 -8 14 -10 0 -10 3 -1 12 15 15 15 28 1 28 -5 0 -7 -4 -4 -10 3 -5 2 -10
-3 -10 -6 0 -13 11 -16 25 -4 14 -11 23 -16 20 -5 -3 -7 4 -5 16 2 11 -4 30
-15 41 -11 12 -17 25 -14 30 3 4 0 8 -5 8 -6 0 -10 3 -9 8 3 9 -30 72 -38 72
-3 0 -3 -4 1 -9 3 -5 2 -12 -3 -15 -4 -2 -8 4 -9 14 -1 10 -11 28 -23 40 -12
12 -19 28 -16 35 3 8 1 17 -5 20 -5 4 -7 10 -4 15 3 5 -8 18 -25 30 -16 12
-30 28 -30 36 0 7 -9 19 -20 26 -11 7 -20 21 -20 30 0 12 -5 16 -17 11 -10 -3
-15 -2 -10 2 4 5 -3 20 -15 34 l-23 26 23 -19 c12 -11 25 -16 29 -13 3 4 1 7
-5 7 -6 0 -13 9 -17 19 -4 12 -12 17 -24 14 -11 -3 -21 2 -25 12 -3 9 -2 13 4
10 6 -3 10 -1 10 4 0 6 -6 11 -13 11 -8 0 -20 11 -27 25 -7 13 -18 23 -24 22
-6 -1 -10 4 -9 11 2 6 -2 12 -8 12 -8 0 -7 6 2 17 8 10 9 14 2 10 -12 -8 -65
38 -56 47 3 3 -2 8 -11 12 -9 3 -16 12 -16 19 0 7 -16 25 -35 40 -19 16 -32
32 -30 36 3 4 -4 10 -15 14 -11 3 -20 11 -20 16 0 5 -8 9 -17 9 -14 0 -15 2
-4 9 11 7 9 11 -8 20 -11 7 -21 16 -21 21 0 5 -14 23 -31 41 -18 19 -28 37
-24 46 4 12 2 13 -8 5 -10 -9 -17 -6 -27 8 -8 11 -20 20 -27 20 -7 0 -13 4
-13 9 0 13 -58 70 -65 63 -3 -4 -3 1 1 11 6 16 -5 22 -29 18 -5 -1 -6 2 -4 6
6 9 -21 50 -28 46 -9 -5 -43 35 -37 42 4 3 -1 3 -11 -1 -13 -5 -16 -2 -11 10
7 18 5 19 -16 6z m790 -900 c0 -5 -2 -10 -4 -10 -3 0 -8 5 -11 10 -3 6 -1 10
4 10 6 0 11 -4 11 -10z m170 -1261 c0 -6 -4 -7 -10 -4 -5 3 -10 11 -10 16 0 6
5 7 10 4 6 -3 10 -11 10 -16z"/>
<path d="M8920 2980 c0 -5 5 -10 11 -10 5 0 7 5 4 10 -3 6 -8 10 -11 10 -2 0
-4 -4 -4 -10z"/>
<path d="M9681 1983 c7 -12 15 -20 18 -17 3 2 -3 12 -13 22 -17 16 -18 16 -5
-5z"/>
<path d="M9995 1251 c-3 -5 -2 -12 3 -15 5 -3 9 1 9 9 0 17 -3 19 -12 6z"/>
<path d="M2174 923 c3 -18 23 -21 76 -11 14 3 19 3 12 1 -7 -3 -9 -9 -5 -15 4
-7 0 -9 -10 -5 -14 5 -15 3 -4 -13 6 -11 17 -18 23 -16 6 2 11 -2 11 -9 0 -7
-6 -11 -13 -8 -9 3 -12 -2 -9 -16 2 -13 -1 -21 -8 -20 -22 4 -46 -12 -40 -27
3 -8 9 -14 15 -14 5 0 6 5 3 10 -3 6 -1 10 5 10 6 0 9 4 6 8 -3 5 11 6 32 3
27 -5 37 -12 39 -26 2 -15 1 -16 -5 -5 -9 20 -64 27 -57 8 7 -18 -34 -21 -55
-5 -13 10 -13 10 -4 -3 9 -11 9 -18 -1 -27 -7 -6 -15 -9 -18 -6 -3 2 -13 1
-23 -5 -11 -6 -13 -11 -5 -16 6 -4 11 -2 11 5 0 8 4 8 13 1 10 -9 17 -6 27 8
19 27 66 26 80 -1 7 -11 14 -18 17 -15 7 7 33 -13 33 -26 0 -5 -7 -8 -16 -6
-10 2 -19 -3 -22 -11 -3 -8 0 -11 7 -7 6 4 11 2 11 -4 0 -6 -8 -9 -17 -6 -10
3 -31 2 -48 -2 l-30 -9 27 -5 c15 -3 25 -1 22 3 -3 5 0 9 5 9 6 0 11 -7 11
-16 0 -13 -6 -15 -27 -9 -33 8 -29 2 12 -19 19 -10 24 -16 13 -16 -9 0 -20 5
-23 10 -3 6 -11 10 -16 10 -6 0 -7 -5 -3 -11 5 -8 -1 -10 -19 -7 -15 3 -28 0
-30 -6 -2 -6 -15 -1 -31 12 -27 21 -46 21 -46 1 0 -6 9 -7 20 -4 13 4 22 1 26
-9 9 -25 -4 -38 -27 -25 -18 9 -19 8 -7 -10 6 -11 16 -17 22 -14 6 4 7 -1 2
-12 -6 -18 -6 -18 12 -2 10 9 22 14 27 10 4 -5 5 -3 1 4 -4 7 -14 10 -24 7
-11 -3 -8 1 7 13 30 22 48 25 48 7 0 -10 -4 -11 -14 -3 -10 9 -13 8 -13 -1 0
-7 8 -18 17 -25 15 -11 14 -12 -10 -10 -29 3 -57 -28 -37 -40 18 -11 0 -24
-33 -23 -17 1 -37 8 -43 15 -8 13 -12 12 -25 -4 -13 -17 -13 -17 5 -3 18 14
19 13 13 -2 -3 -9 -2 -18 3 -20 4 -2 2 -9 -6 -16 -11 -10 -14 -10 -14 1 0 7
-11 13 -24 13 -27 0 -25 -21 3 -29 10 -2 18 -12 18 -21 0 -11 -4 -13 -11 -6
-15 15 -30 12 -17 -4 9 -11 9 -16 0 -22 -7 -4 -9 -3 -5 4 3 6 2 13 -4 17 -6 4
-8 10 -5 15 3 4 -2 14 -11 21 -14 11 -15 9 -11 -22 2 -19 2 -26 0 -16 -5 19
-11 21 -33 7 -9 -6 -17 -5 -23 3 -6 9 -7 8 -6 -3 3 -27 -1 -40 -12 -40 -5 0
-8 4 -5 8 3 5 -2 9 -11 9 -13 0 -12 -4 5 -18 23 -18 21 -49 -4 -49 -8 0 -14
-8 -14 -17 0 -15 -2 -14 -14 3 -13 17 -12 20 12 25 21 5 17 7 -18 8 -28 0 -40
-3 -32 -8 11 -7 11 -11 -2 -24 -12 -11 -13 -17 -3 -20 6 -3 2 -6 -10 -6 -25
-1 -39 15 -21 22 8 3 5 6 -5 6 -11 1 -17 -4 -14 -11 2 -7 -2 -26 -10 -42 -12
-23 -12 -27 -1 -23 7 2 12 10 10 16 -1 7 2 10 7 7 5 -4 11 -1 13 6 3 7 7 5 11
-6 4 -9 3 -15 -2 -12 -5 3 -11 -3 -14 -13 -3 -14 -11 -18 -26 -14 -15 4 -23
-1 -29 -18 -6 -15 -11 -18 -16 -11 -10 17 -29 15 -23 -2 4 -10 0 -14 -14 -13
-10 1 -19 8 -20 17 0 10 -2 11 -6 3 -7 -20 -23 -15 -16 5 4 12 3 14 -5 7 -6
-5 -12 -17 -14 -25 -2 -8 -16 -26 -33 -39 -18 -14 -22 -21 -11 -17 15 5 17 4
7 -8 -8 -10 -9 -16 -1 -21 5 -3 10 -1 10 6 0 7 3 10 6 6 14 -13 -7 -27 -27
-17 -11 7 -19 7 -19 1 0 -5 6 -12 13 -14 7 -3 5 -6 -5 -6 -10 -1 -18 4 -18 9
0 13 -40 13 -60 0 -14 -9 -24 -50 -11 -48 3 1 14 -2 24 -7 10 -4 24 -2 34 6
12 10 15 10 9 1 -9 -15 400 -17 454 -2 19 6 47 13 63 15 15 3 47 12 72 20 24
9 47 15 52 14 4 -1 15 1 23 4 31 13 333 69 440 82 19 3 64 9 100 15 36 5 90
12 120 15 30 3 102 10 160 15 171 17 453 24 445 10 -7 -11 38 -10 50 2 6 6 28
5 185 -7 36 -3 89 -5 118 -4 35 0 51 -4 50 -12 -2 -6 3 -14 10 -16 7 -3 10 1
6 11 -4 12 0 14 18 11 12 -3 43 -7 67 -9 24 -3 46 -8 50 -12 3 -4 -3 -4 -14 0
-16 6 -17 5 -8 -5 10 -10 16 -9 29 2 14 11 18 11 29 -4 12 -17 31 -25 21 -9
-3 5 1 9 9 9 8 0 12 -4 9 -8 -2 -4 1 -11 7 -15 6 -3 15 0 20 7 5 8 9 10 9 5 0
-5 6 -3 14 3 10 8 16 8 23 -1 22 -29 23 -37 2 -48 -17 -10 -20 -9 -14 1 6 8 4
10 -5 4 -8 -5 -11 -4 -6 3 4 6 14 8 24 5 13 -5 14 -3 5 7 -9 9 -17 7 -42 -10
-35 -27 -43 -42 -30 -61 8 -12 10 -12 8 1 -4 38 0 42 41 36 26 -3 40 -1 40 6
0 7 4 7 13 -1 10 -8 17 -7 25 1 9 9 12 9 12 -1 0 -7 5 -9 11 -5 8 4 8 0 0 -15
-6 -11 -20 -25 -31 -31 -23 -12 -41 -13 -22 -1 10 6 9 10 -7 14 -12 3 -19 1
-15 -4 3 -5 -2 -9 -11 -9 -9 0 -13 5 -10 10 10 16 -1 11 -16 -7 -10 -11 -10
-14 -1 -9 6 4 12 2 12 -3 0 -6 -5 -11 -11 -11 -5 0 -7 -5 -4 -11 5 -6 12 -4
21 8 12 17 13 17 14 1 0 -11 8 -18 21 -18 13 0 18 4 13 13 -6 9 -4 9 7 1 20
-16 99 -17 117 -1 13 9 14 9 8 -1 -6 -9 37 -12 200 -12 115 0 204 4 198 8 -27
25 -463 308 -548 357 -356 204 -806 383 -1145 456 -25 6 -64 14 -86 20 -244
59 -684 115 -700 89 -3 -6 -13 -10 -21 -10 -8 0 -13 4 -10 8 2 4 -8 9 -24 10
-22 2 -28 -2 -26 -15z m26 -3 c0 -5 -5 -10 -11 -10 -5 0 -7 5 -4 10 3 6 8 10
11 10 2 0 4 -4 4 -10z m124 -46 c4 -11 0 -11 -19 2 -30 20 -31 24 -6 17 11 -3
22 -11 25 -19z m-39 -54 c3 -5 1 -10 -4 -10 -6 0 -11 5 -11 10 0 6 2 10 4 10
3 0 8 -4 11 -10z m75 -85 c0 -2 -6 -5 -13 -8 -8 -3 -14 1 -14 8 0 7 6 11 14 8
7 -3 13 -6 13 -8z m-105 -164 c3 -5 2 -12 -3 -15 -5 -3 -9 1 -9 9 0 17 3 19
12 6z m-15 -52 c0 -6 -4 -7 -10 -4 -5 3 -10 11 -10 16 0 6 5 7 10 4 6 -3 10
-11 10 -16z m-40 -24 c0 -2 -9 -3 -19 -2 -11 0 -18 5 -15 9 4 6 34 0 34 -7z
m-230 -119 c0 -11 -19 -15 -25 -6 -3 5 1 10 9 10 9 0 16 -2 16 -4z m-24 -78
c4 -7 3 -8 -4 -4 -7 4 -12 1 -12 -8 0 -10 -6 -13 -15 -10 -11 5 -14 1 -9 -12
5 -18 5 -18 -6 -1 -10 15 -8 21 7 32 22 18 30 18 39 3z m-301 -156 c-3 -3 -11
0 -18 7 -9 10 -8 11 6 5 10 -3 15 -9 12 -12z m2600 -22 c3 -5 1 -10 -4 -10 -6
0 -11 5 -11 10 0 6 2 10 4 10 3 0 8 -4 11 -10z m-2735 -64 c0 -2 -7 -7 -16
-10 -8 -3 -12 -2 -9 4 6 10 25 14 25 6z"/>
<path d="M2140 900 c0 -5 5 -10 11 -10 5 0 7 5 4 10 -3 6 -8 10 -11 10 -2 0
-4 -4 -4 -10z"/>
<path d="M2174 881 c4 -5 0 -11 -6 -14 -9 -3 -7 -7 6 -12 11 -5 27 -3 37 4 12
7 19 7 19 1 0 -5 5 -10 11 -10 8 0 8 4 -1 15 -9 11 -17 12 -30 5 -25 -14 -30
-13 -24 5 4 8 1 15 -6 15 -6 0 -9 -4 -6 -9z"/>
<path d="M2110 800 c-9 -6 -10 -10 -3 -10 6 0 15 5 18 10 8 12 4 12 -15 0z"/>
<path d="M2156 801 c-4 -5 -2 -12 3 -15 5 -4 12 -2 15 3 4 5 2 12 -3 15 -5 4
-12 2 -15 -3z"/>
<path d="M2235 730 c-3 -5 -3 -10 2 -10 4 0 1 -5 -7 -11 -12 -9 -12 -10 3 -5
12 4 17 2 14 -6 -2 -7 -10 -12 -16 -10 -6 1 -11 -4 -11 -12 0 -19 34 -13 56 9
9 8 20 12 26 9 6 -4 8 -2 5 4 -4 5 -17 8 -29 4 -16 -4 -19 -2 -13 8 6 9 4 11
-5 5 -10 -6 -12 -4 -7 8 7 18 -8 24 -18 7z"/>
<path d="M2125 680 c-3 -6 1 -7 9 -4 18 7 21 14 7 14 -6 0 -13 -4 -16 -10z"/>
<path d="M2166 673 c-6 -14 -5 -15 5 -6 7 7 10 15 7 18 -3 3 -9 -2 -12 -12z"/>
<path d="M2180 641 c-7 -15 -7 -22 2 -27 7 -4 10 -4 6 1 -4 4 -3 16 3 26 5 11
7 19 5 19 -3 0 -10 -9 -16 -19z"/>
<path d="M2100 537 c0 -17 31 -67 42 -67 7 0 5 7 -4 18 -8 9 -20 26 -26 37 -6
11 -12 16 -12 12z"/>
<path d="M1733 248 c-6 -7 -9 -21 -8 -30 2 -10 -1 -18 -6 -18 -5 0 -9 9 -9 19
0 22 -16 36 -24 22 -4 -5 0 -12 6 -14 10 -4 10 -6 0 -6 -10 -1 -9 -5 3 -17 21
-21 41 -12 48 23 6 33 4 38 -10 21z"/>
<path d="M1565 169 c-10 -15 3 -25 16 -12 7 7 7 13 1 17 -6 3 -14 1 -17 -5z"/>
<path d="M4032 130 c0 -14 2 -19 5 -12 2 6 2 18 0 25 -3 6 -5 1 -5 -13z"/>
<path d="M4074 129 c-3 -6 -3 -13 0 -16 3 -4 6 -1 6 7 0 10 3 10 15 0 9 -7 17
-11 20 -9 2 3 -4 10 -15 17 -13 8 -21 8 -26 1z"/>
<path d="M1486 103 c-6 -14 -5 -15 5 -6 7 7 10 15 7 18 -3 3 -9 -2 -12 -12z"/>
<path d="M3978 113 c7 -3 16 -2 19 1 4 3 -2 6 -13 5 -11 0 -14 -3 -6 -6z"/>
<path d="M4035 90 c-3 -5 -2 -10 4 -10 5 0 13 5 16 10 3 6 2 10 -4 10 -5 0
-13 -4 -16 -10z"/>
<path d="M4125 70 c3 -5 8 -10 11 -10 2 0 4 5 4 10 0 6 -5 10 -11 10 -5 0 -7
-4 -4 -10z"/>
<path d="M4203 67 c4 -14 26 -16 30 -3 1 5 -6 10 -16 12 -10 1 -16 -3 -14 -9z"/>
<path d="M4045 48 c4 -10 14 -18 22 -18 8 0 11 -5 7 -12 -4 -7 -3 -8 4 -4 17
10 15 39 -2 33 -7 -3 -19 0 -25 6 -9 9 -11 8 -6 -5z"/>
<path d="M10130 46 c0 -2 8 -10 18 -17 15 -13 16 -12 3 4 -13 16 -21 21 -21
13z"/>
<path d="M1400 21 c0 -5 8 -12 17 -15 20 -8 40 9 22 19 -8 5 -10 4 -5 -3 4 -7
2 -12 -3 -12 -6 0 -11 5 -11 10 0 6 -4 10 -10 10 -5 0 -10 -4 -10 -9z"/>
<path d="M4105 10 c3 -5 8 -10 11 -10 2 0 4 5 4 10 0 6 -5 10 -11 10 -5 0 -7
-4 -4 -10z"/>
</g>
</svg>
