<?xml version="1.0" standalone="no"?>
<svg version="1.1" id="Layer_1" xmlns="http://www.w3.org/2000/svg" xmlns:xlink="http://www.w3.org/1999/xlink" x="0px" y="0px" viewBox="0 0 595.276 595.276" enable-background="new 0 0 595.276 595.276" xml:space="preserve">
<path id="color_x5F_7" fill="#263238" d="M526.527,541.943c0,1.968-1.595,3.562-3.562,3.562H72.311
	c-1.968,0-3.563-1.595-3.563-3.562s1.595-3.563,3.563-3.563h17.337h5.79h3.492h2.486h3.201h1.097h3.154h7.108h3.05h5.811h3.158
	h4.586h3.336h5.222h3.283h8.924h56.083l1.231,1.673h10.181l-0.004-0.009l3.473,0.009c0.672,0.002,1.112-0.705,0.812-1.307
	l-0.182-0.366h93.235c-0.051,0.333-0.095,0.664-0.129,0.988c-0.087,0.839,0.557,0.572,1.4,0.572l42.554,0
	c0.672,0,1.11,0.292,0.809-0.309l-0.626-1.251h52.618h24.116c0.042,0.097,0.086,0.194,0.129,0.291h4.499
	c-0.051-0.097-0.103-0.194-0.154-0.291h2.631c0.052,0.097,0.104,0.194,0.155,0.291h1.474c-0.03-0.097-0.059-0.194-0.089-0.291h2.406
	c0.03,0.097,0.059,0.194,0.089,0.291h0.68c-0.022-0.097-0.042-0.194-0.064-0.291h2.371c0.023,0.097,0.042,0.194,0.065,0.291h5.004
	c-0.004-0.097-0.004-0.194-0.008-0.291h2.295c0.004,0.097,0.004,0.194,0.009,0.291h3.941c0.019-0.097,0.044-0.194,0.063-0.291h2.367
	c-0.02,0.097-0.044,0.194-0.064,0.291h3.069c0.042-0.098,0.086-0.193,0.128-0.291h2.497c-0.043,0.098-0.087,0.193-0.13,0.291h4.064
	c0.035-0.097,0.071-0.194,0.106-0.291h1.711h0.753c-0.035,0.097-0.071,0.194-0.106,0.291h6.075c0.07-0.098,0.143-0.194,0.213-0.291
	h37.87C524.932,538.381,526.527,539.976,526.527,541.943z"></path>
<path id="color_x5F_6" fill="#78909C" d="M364.425,407.237l-0.692-0.053c-0.833-1.421-1.907-2.763-3.159-3.803
	c0.032-0.126,0.058-0.256,0.085-0.387c0.027,0.023,0.055,0.044,0.082,0.067C362.133,404.279,363.31,405.737,364.425,407.237z
	 M332.227,404.787l18.633,1.418c-1.444-0.935-2.586-2.224-3.257-4.124c-5.762,0.067-11.527-0.148-17.269-0.644
	c-0.132,0.263-0.218,0.554-0.242,0.865C329.995,403.577,330.951,404.69,332.227,404.787z M360.294,405.837
	c-0.185-0.162-0.376-0.314-0.57-0.463c-0.002,0.003-0.005,0.007-0.007,0.01c0.573,0.566,1.017,1.082,1.389,1.6l0.401,0.031
	C361.119,406.605,360.719,406.208,360.294,405.837z M365.438,407.314l1.888,0.144l6.454,0.491c0.033,0.163,0.077,0.323,0.12,0.483
	c0.895,3.34,3.802,5.909,7.445,6.186c3.829,0.291,7.235-2.027,8.498-5.451l-10.101-0.768l0.351-4.617l10.101,0.769
	c-0.731-3.576-3.747-6.373-7.576-6.664c-0.69-0.052-1.366-0.017-2.019,0.091c-2.96,0.492-5.433,2.546-6.468,5.351c0,0,0,0,0,0
	l-3.965-0.302l-7.33-0.558c1.143,1.41,2.037,3.038,2.594,4.606C365.46,407.161,365.455,407.24,365.438,407.314z"></path>
<path id="color_x5F_5" fill="#FFD2BB" d="M357.169,440.365c-0.112-0.058-0.222-0.118-0.333-0.177
	c-1.294-2.032-3.241-3.645-5.639-4.498c-0.659-1.014-1.098-2.193-1.232-3.612c-14.717-3.503-28.998-8.886-42.307-16.065
	c4.813-4.354,9.94-8.945,13.03-14.49c11.183,8.082,25.156,17.359,34.154,24.505c-0.007,0.01-0.014,0.019-0.021,0.029
	c1.226,0.732,2.374,1.573,3.442,2.5c1.219,1.057,2.336,2.223,3.32,3.499c2.625,2.111,4.146,5.933,4.46,9.199
	c0.048,0.501-0.694,0.682-0.864,0.266c-0.756-1.847-1.582-3.675-2.709-5.299c-0.02-0.029-0.043-0.056-0.063-0.085
	c-0.057,0.121-0.115,0.241-0.176,0.355c1.554,2.122,2.47,4.892,2.706,7.347c0.048,0.501-0.694,0.682-0.864,0.266
	c-0.756-1.847-1.582-3.675-2.709-5.299c-0.14-0.202-0.288-0.396-0.441-0.587c-0.003,0.003-0.006,0.006-0.009,0.009
	c1.202,1.976,1.922,4.343,2.127,6.474c0.048,0.501-0.694,0.682-0.864,0.266c-0.756-1.847-1.582-3.675-2.709-5.299
	c-0.062-0.089-0.128-0.173-0.192-0.259c-0.096,0.053-0.193,0.106-0.293,0.158c0.981,1.834,1.576,3.927,1.759,5.831
	c0.048,0.501-0.694,0.682-0.864,0.266c-0.485-1.186-1.01-2.358-1.614-3.479C357.927,441.56,357.573,440.946,357.169,440.365z
	 M328.715,526.339c1.312-0.073,2.569-0.552,3.597-1.372l2.984-2.378l0.097-1.22l-12.696,0.519l0.433,4.762L328.715,526.339z
	 M213.982,517.614l3.957,2.14l1.205-0.4l-4.23-10.421l-7.253,2.859l3.085,3.738C211.582,516.543,212.713,517.272,213.982,517.614z
	 M298.2,312.884c2.663,3.29,6.385,9.431,8.742,13.466c0.936,1.603,3.297,1.443,4.018-0.268l2.475-5.873l0.001-0.002l0.881-2.091
	l1.14-2.705l1.794,0.693c5.535,2.138,11.755-0.615,13.893-6.149l2.23-5.772l6.536-16.915l-20.171-3.039l-6.229,9.853l-1.874-0.724
	l0.514-1.33c0.715-1.85-0.214-3.949-2.065-4.664h0c-1.85-0.715-3.949,0.214-4.664,2.065l-0.907,2.347
	c-0.501,1.297-0.193,2.713,0.672,3.692v0c-0.426,1.102-0.696,2.224-0.851,3.346l-1.834,3.342l-2.654,4.837l-1.865,3.4
	C297.541,311.192,297.625,312.174,298.2,312.884z M302.661,396.774c5.264,1.34,10.596,2.415,15.966,3.247
	c3.885,0.602,7.79,1.077,11.707,1.416c5.742,0.496,11.507,0.711,17.269,0.644c0.671,1.9,1.813,3.189,3.257,4.124
	c1.615,1.045,3.604,1.651,5.743,2.165c1.488,1.302,1.432,1.056,2.614,2.664c0.266,0.362,0.942,0.006,0.773-0.468
	c-0.64-1.802-0.424-1.87-1.821-3.411c0.084-0.075,0.166-0.15,0.246-0.225c0.083,0.068,0.168,0.133,0.25,0.204
	c1.488,1.302,2.082,1.968,3.264,3.576c0.266,0.362,0.942,0.006,0.773-0.468c-0.467-1.315-0.899-2.289-1.595-3.258
	c-0.372-0.518-0.816-1.034-1.389-1.6c0.002-0.004,0.005-0.007,0.007-0.01c0.194,0.148,0.385,0.301,0.57,0.463
	c0.424,0.371,0.825,0.768,1.214,1.178c0.975,1.027,1.857,2.154,2.702,3.304c0.266,0.362,0.942,0.006,0.773-0.468
	c-0.315-0.886-0.737-1.791-1.251-2.667c-0.833-1.421-1.907-2.763-3.159-3.803c0.032-0.126,0.058-0.256,0.085-0.387
	c0.027,0.023,0.055,0.044,0.082,0.067c1.392,1.218,2.57,2.675,3.684,4.176c0.076,0.103,0.155,0.203,0.231,0.307
	c0.218,0.297,0.704,0.108,0.782-0.229c0.017-0.074,0.021-0.153-0.009-0.239c-0.557-1.567-1.451-3.195-2.594-4.606
	c-1.112-1.372-2.459-2.539-3.967-3.234c-2.374-1.873-5.091-3.294-8.018-4.176c0.005-0.011,0.01-0.022,0.014-0.033
	c-10.17-4.612-25.379-10.035-37.988-15.039c-0.365-0.145-0.736-0.291-1.096-0.435C310.13,385.682,306.272,391.381,302.661,396.774z"></path>
<path id="color_x5F_4" fill="#00CEC9" d="M219.144,519.354l-4.23-10.421l-0.506-1.246l30.099-9.228l0.025-0.008
	c0.354-0.147,0.698-0.277,1.048-0.418c14.745-5.95,26.623-6.805,42.307-3.076l-26.722-40.511
	c-11.749-5.14-18.472-17.744-16.819-30.519l1.308-10.103c3.926-33.278,3.361-70.378,20.777-99.3
	c4.098-6.805,14.349-8.336,20.054-8.336c0.443,0.208,0.87,0.43,1.288,0.661c0.136,0.075,0.265,0.157,0.398,0.234
	c0.277,0.162,0.551,0.326,0.817,0.498c0.149,0.097,0.293,0.197,0.439,0.297c0.241,0.165,0.478,0.334,0.709,0.508
	c0.143,0.107,0.284,0.216,0.423,0.327c0.228,0.181,0.449,0.367,0.667,0.556c0.127,0.11,0.255,0.219,0.378,0.331
	c0.236,0.215,0.463,0.438,0.687,0.663c0.093,0.093,0.189,0.183,0.28,0.277c0.309,0.323,0.609,0.654,0.895,0.994
	c0.043,0.052,0.083,0.106,0.126,0.158c0.241,0.292,0.475,0.589,0.7,0.894c0.091,0.123,0.177,0.25,0.265,0.375
	c0.17,0.24,0.337,0.482,0.498,0.729c0.093,0.143,0.183,0.289,0.273,0.435c0.148,0.239,0.292,0.48,0.431,0.724
	c0.086,0.15,0.171,0.301,0.253,0.454c0.138,0.254,0.27,0.512,0.399,0.772c0.072,0.145,0.146,0.289,0.215,0.435
	c0.143,0.302,0.278,0.609,0.41,0.917c0.046,0.108,0.096,0.214,0.141,0.323c0.173,0.419,0.337,0.843,0.49,1.273
	c0.034,0.095,0.064,0.193,0.097,0.289c0.117,0.337,0.23,0.676,0.335,1.02c0.048,0.157,0.092,0.315,0.138,0.473
	c0.084,0.288,0.165,0.577,0.241,0.868c0.045,0.174,0.089,0.349,0.131,0.525c0.069,0.283,0.135,0.568,0.197,0.854
	c0.038,0.176,0.076,0.353,0.112,0.53c0.061,0.301,0.116,0.603,0.169,0.907c0.028,0.161,0.059,0.322,0.085,0.484
	c0.061,0.374,0.115,0.75,0.165,1.128c0.012,0.09,0.027,0.18,0.038,0.27c0.655,5.175,0.348,10.628-0.55,15.642
	c-0.685,3.823,1.884,7.485,5.7,8.207c0.047,0.009,0.093,0.018,0.14,0.026c3.786,0.712,7.446-1.682,8.327-5.433
	c0.628-2.676,1.062-5.387,1.311-8.107c0.027-0.298,0.056-0.597,0.079-0.895c0.006-0.075,0.014-0.15,0.02-0.225
	c0.051-0.7,0.086-1.401,0.112-2.102c0.008-0.209,0.01-0.418,0.015-0.626c0.013-0.496,0.021-0.992,0.021-1.487
	c0-0.25-0.003-0.5-0.006-0.75c-0.006-0.468-0.019-0.935-0.036-1.402c-0.009-0.244-0.018-0.488-0.03-0.732
	c-0.027-0.522-0.062-1.043-0.103-1.563c-0.014-0.178-0.024-0.357-0.04-0.535c-0.061-0.694-0.135-1.386-0.222-2.075
	c-0.019-0.153-0.044-0.305-0.065-0.457c-0.073-0.539-0.151-1.077-0.239-1.613c-0.039-0.236-0.082-0.471-0.124-0.706
	c-0.079-0.443-0.162-0.886-0.252-1.327l0.881-2.091c5.659,8.265,7.145,19.255,2.942,29.173c-0.954,2.251-1.9,4.583-2.837,6.975
	c-2.775,7.076-5.469,14.761-8.019,23.085c-1.589-0.669-3.106-1.326-4.517-1.966c-2.673-12.655-7.696-41.222-10.369-53.876
	c-7.027-17.61-30.623-11.491-26.397,6.724l20.409,63.184c5.112,1.917,10.324,3.55,15.6,4.945c-1.123,4.49-2.199,9.143-3.227,13.94
	c-0.121,0.565-0.243,1.127-0.363,1.696l0.122,8.393l42.124,12.046l1.62,0.463l8.113,2.32c0.584,0.11,1.14,0.278,1.681,0.47
	c2.398,0.853,4.345,2.466,5.639,4.498c0.65,1.021,1.136,2.141,1.428,3.324c0.417,1.689,0.441,3.493,0,5.291
	c-0.075,0.304-0.15,0.609-0.252,0.912l-14.931,49.872l-0.22,0.735l-6.287,20.998l-1.181,0.048l-12.696,0.519l-1.583,0.065
	l0.766-18.214l0.027-0.645l0.348-8.276c-0.143-16.504,2.707-28.488,12.284-41.93l-36.846,2.183l12.313,46.221
	c0.192,0.951,0.244,1.892,0.195,2.813c-0.011,0.211-0.024,0.421-0.048,0.629c-0.58,5.217-4.824,9.541-10.382,9.882l-80.287,5.58
	L219.144,519.354z M339.908,287.268l6.287,0.947l4.666,0.703l-4.669-6.457l-1.005-8.647c-1.156-9.947-9.712-17.368-19.723-17.105
	c-1.454,0.038-3.216,0.169-5.132,0.406c-11.923,1.474-20.172,12.652-18.072,24.48l2.519,0.38l14.957,2.254L339.908,287.268z"></path>
<path id="color_x5F_3" fill="#E84393" d="M304.333,298.813l-1.834,3.342c-1.406-4.119-1.298-8.732-0.254-12.996
	c0.606-2.475,1.501-4.855,2.534-7.184l14.957,2.254l-6.229,9.853l-1.874-0.724l0.514-1.33c0.715-1.85-0.214-3.949-2.065-4.664h0
	c-1.85-0.715-3.949,0.214-4.664,2.065l-0.907,2.347c-0.501,1.297-0.193,2.713,0.672,3.692v0
	C304.759,296.569,304.488,297.691,304.333,298.813z M333.373,304.183c2.216,0.204,4.417,0.098,6.425-0.802
	c3.284-1.473,5.407-5.997,3.154-8.804c0.03-0.005,0.06-0.011,0.09-0.016c3.102-0.58,4.266-3.873,3.154-6.346l-6.287-0.947
	L333.373,304.183z"></path>
<path id="color_x5F_2" fill="#FBC02D" d="M441.158,317.062c0.201-1.212,0.386-2.429,0.556-3.651
	c0.034-0.253,0.276-0.422,0.521-0.393c0.253,0.035,0.428,0.268,0.393,0.521c-0.171,1.229-0.357,2.453-0.56,3.674
	c-0.038,0.225-0.234,0.386-0.455,0.386c-0.025,0-0.05-0.002-0.077-0.006C441.286,317.551,441.116,317.313,441.158,317.062z
	 M443.989,296.884c0.031-1.234,0.046-2.472,0.046-3.715v-0.29c0-0.255-0.207-0.462-0.462-0.462s-0.462,0.207-0.462,0.462v0.29
	c0,1.234-0.015,2.465-0.046,3.692c-0.006,0.255,0.196,0.467,0.45,0.474c0.004,0,0.008,0,0.012,0
	C443.777,297.335,443.982,297.135,443.989,296.884z M442.923,307.5c0.235,0,0.436-0.179,0.459-0.418
	c0.116-1.231,0.217-2.465,0.302-3.704c0.017-0.254-0.175-0.475-0.429-0.493c-0.255-0.012-0.474,0.175-0.492,0.429
	c-0.085,1.231-0.184,2.457-0.3,3.68c-0.023,0.254,0.162,0.479,0.417,0.503C442.893,307.5,442.907,307.5,442.923,307.5z
	 M442.066,272.117c-0.253,0.036-0.429,0.269-0.392,0.522c0.171,1.216,0.328,2.437,0.47,3.663c0.028,0.235,0.227,0.409,0.458,0.409
	c0.018,0,0.036-0.001,0.054-0.003c0.253-0.029,0.435-0.258,0.406-0.512c-0.143-1.233-0.3-2.462-0.474-3.685
	C442.553,272.256,442.322,272.077,442.066,272.117z M442.742,282.733c0.087,1.224,0.16,2.453,0.216,3.686
	c0.011,0.247,0.215,0.441,0.461,0.441c0.006,0,0.014,0,0.021,0c0.255-0.012,0.452-0.227,0.44-0.482
	c-0.056-1.241-0.128-2.478-0.216-3.711c-0.019-0.255-0.257-0.45-0.493-0.427C442.916,282.258,442.724,282.479,442.742,282.733z
	 M435.945,246.944c0.049,0,0.099-0.008,0.148-0.024c0.242-0.082,0.372-0.344,0.29-0.585c-0.397-1.176-0.808-2.344-1.233-3.506
	c-0.088-0.239-0.352-0.362-0.593-0.275c-0.24,0.088-0.363,0.353-0.275,0.592c0.423,1.154,0.831,2.316,1.226,3.484
	C435.572,246.823,435.752,246.944,435.945,246.944z M434.376,342.934c-0.423,1.162-0.859,2.316-1.311,3.463
	c-0.094,0.237,0.023,0.506,0.26,0.599c0.056,0.023,0.113,0.032,0.17,0.032c0.184,0,0.358-0.111,0.429-0.292
	c0.456-1.156,0.896-2.318,1.32-3.487c0.088-0.24-0.036-0.504-0.276-0.592C434.727,342.573,434.463,342.695,434.376,342.934z
	 M421.069,215.274c-0.216,0.135-0.281,0.42-0.146,0.636c0.653,1.04,1.293,2.089,1.921,3.146c0.086,0.145,0.24,0.226,0.397,0.226
	c0.08,0,0.161-0.021,0.235-0.065c0.219-0.13,0.292-0.414,0.161-0.633c-0.631-1.064-1.275-2.119-1.932-3.165
	C421.569,215.204,421.284,215.14,421.069,215.274z M426.093,361.507c-0.581,1.089-1.175,2.17-1.782,3.242
	c-0.125,0.222-0.047,0.503,0.175,0.63c0.072,0.041,0.15,0.06,0.227,0.06c0.161,0,0.317-0.084,0.402-0.234
	c0.611-1.08,1.209-2.166,1.793-3.262c0.12-0.225,0.034-0.505-0.19-0.625C426.494,361.198,426.214,361.282,426.093,361.507z
	 M161.896,239.477c-0.237-0.092-0.505,0.023-0.598,0.261c-0.453,1.155-0.892,2.318-1.317,3.488
	c-0.086,0.239,0.037,0.505,0.277,0.592c0.052,0.018,0.105,0.027,0.157,0.027c0.189,0,0.366-0.116,0.434-0.304
	c0.422-1.162,0.857-2.317,1.308-3.465C162.251,239.838,162.134,239.57,161.896,239.477z M428.119,228.2
	c0.07,0,0.141-0.016,0.207-0.049c0.228-0.114,0.319-0.392,0.205-0.62c-0.555-1.105-1.124-2.202-1.706-3.29
	c-0.122-0.226-0.404-0.309-0.625-0.189c-0.226,0.12-0.31,0.4-0.19,0.625c0.578,1.081,1.144,2.172,1.696,3.269
	C427.788,228.107,427.95,228.2,428.119,228.2z M441.167,266.633c0.251-0.047,0.416-0.288,0.369-0.539
	c-0.229-1.22-0.472-2.434-0.73-3.644c-0.054-0.249-0.297-0.411-0.548-0.355c-0.249,0.053-0.409,0.298-0.355,0.548
	c0.256,1.201,0.499,2.409,0.726,3.621c0.042,0.222,0.235,0.377,0.453,0.377C441.11,266.641,441.139,266.638,441.167,266.633z
	 M432.359,237.431c0.06,0,0.12-0.011,0.178-0.036c0.235-0.098,0.346-0.368,0.248-0.604c-0.475-1.141-0.966-2.274-1.47-3.399
	c-0.105-0.234-0.378-0.337-0.61-0.233c-0.233,0.105-0.337,0.377-0.233,0.611c0.501,1.118,0.988,2.244,1.461,3.377
	C432.007,237.324,432.178,237.431,432.359,237.431z M430.56,352.369c-0.503,1.128-1.02,2.249-1.551,3.361
	c-0.11,0.231-0.013,0.506,0.217,0.616c0.065,0.031,0.133,0.045,0.199,0.045c0.172,0,0.337-0.096,0.417-0.262
	c0.535-1.12,1.055-2.247,1.562-3.383c0.104-0.234-0.001-0.506-0.234-0.611C430.938,352.033,430.665,352.136,430.56,352.369z
	 M154.891,324.113c0.032,0,0.064-0.004,0.096-0.01c0.249-0.053,0.409-0.299,0.356-0.547c-0.256-1.202-0.496-2.41-0.722-3.622
	c-0.047-0.251-0.288-0.416-0.538-0.369c-0.251,0.046-0.416,0.288-0.37,0.538c0.227,1.219,0.47,2.434,0.726,3.644
	C154.486,323.964,154.678,324.113,154.891,324.113z M156.912,333.658c0.058,0.203,0.243,0.335,0.443,0.335
	c0.042,0,0.085-0.005,0.128-0.018c0.245-0.07,0.387-0.326,0.316-0.571c-0.339-1.182-0.664-2.369-0.974-3.563
	c-0.064-0.247-0.316-0.393-0.563-0.331c-0.247,0.065-0.395,0.317-0.331,0.564C156.244,331.275,156.571,332.47,156.912,333.658z
	 M397.895,187.585c0.123,0,0.244-0.049,0.335-0.145c0.175-0.185,0.167-0.478-0.018-0.653c-0.9-0.85-1.812-1.691-2.733-2.519
	c-0.187-0.17-0.482-0.155-0.652,0.034c-0.17,0.19-0.155,0.482,0.035,0.652c0.915,0.823,1.82,1.658,2.715,2.503
	C397.667,187.543,397.781,187.585,397.895,187.585z M155.745,258.911c-0.247-0.061-0.497,0.094-0.556,0.343
	c-0.285,1.203-0.556,2.412-0.812,3.626c-0.052,0.249,0.107,0.495,0.357,0.547c0.032,0.007,0.064,0.01,0.096,0.01
	c0.214,0,0.406-0.149,0.451-0.367c0.254-1.207,0.523-2.408,0.806-3.604C156.147,259.219,155.994,258.97,155.745,258.911z
	 M153.713,268.89c-0.255-0.048-0.49,0.129-0.53,0.38c-0.201,1.22-0.385,2.445-0.556,3.674c-0.035,0.253,0.141,0.486,0.394,0.52
	c0.021,0.003,0.043,0.005,0.064,0.005c0.227,0,0.425-0.167,0.457-0.399c0.169-1.222,0.353-2.439,0.552-3.651
	C154.135,269.168,153.964,268.931,153.713,268.89z M343.229,431.843c-0.079-0.243-0.34-0.374-0.582-0.297
	c-0.949,0.309-1.906,0.601-2.864,0.891l1.62,0.463c0.509-0.16,1.022-0.311,1.529-0.476
	C343.175,432.345,343.308,432.085,343.229,431.843z M357.876,426.131c0.073,0.159,0.226,0.249,0.389,0.26v-0.949
	c-0.054,0.025-0.106,0.051-0.16,0.076C357.872,425.625,357.77,425.899,357.876,426.131z M158.474,249.1
	c-0.245-0.078-0.503,0.059-0.579,0.303c-0.37,1.181-0.724,2.368-1.065,3.561c-0.07,0.245,0.072,0.501,0.318,0.571
	c0.042,0.012,0.085,0.018,0.127,0.018c0.201,0,0.386-0.132,0.444-0.335c0.338-1.185,0.69-2.365,1.057-3.538
	C158.853,249.435,158.718,249.176,158.474,249.1z M203.048,182.035c-0.165-0.193-0.457-0.215-0.651-0.05
	c-0.939,0.805-1.869,1.623-2.788,2.452c-0.189,0.17-0.204,0.463-0.033,0.652c0.091,0.101,0.216,0.152,0.343,0.152
	c0.111,0,0.221-0.039,0.309-0.119c0.914-0.824,1.837-1.636,2.771-2.437C203.192,182.52,203.214,182.229,203.048,182.035z
	 M438.861,256.702c0.038,0,0.078-0.005,0.116-0.015c0.247-0.065,0.395-0.317,0.33-0.563c-0.313-1.2-0.64-2.395-0.983-3.584
	c-0.071-0.245-0.329-0.386-0.572-0.316c-0.245,0.071-0.386,0.326-0.316,0.572c0.341,1.181,0.667,2.368,0.978,3.56
	C438.468,256.564,438.655,256.702,438.861,256.702z M439.495,327.57c0.036,0.009,0.072,0.013,0.107,0.013
	c0.209,0,0.399-0.142,0.449-0.354c0.287-1.204,0.558-2.413,0.815-3.627c0.052-0.25-0.106-0.494-0.356-0.548
	c-0.251-0.047-0.494,0.107-0.547,0.356c-0.255,1.207-0.525,2.407-0.81,3.603C439.094,327.262,439.247,327.511,439.495,327.57z
	 M159.137,339.281c-0.242,0.081-0.372,0.343-0.291,0.584c0.395,1.176,0.805,2.346,1.23,3.507c0.068,0.187,0.245,0.303,0.434,0.303
	c0.053,0,0.106-0.009,0.158-0.028c0.24-0.088,0.363-0.353,0.275-0.593c-0.422-1.154-0.829-2.315-1.222-3.484
	C159.641,339.329,159.38,339.2,159.137,339.281z M438.088,332.946c-0.249-0.076-0.501,0.071-0.571,0.317
	c-0.339,1.185-0.693,2.364-1.061,3.537c-0.077,0.243,0.059,0.502,0.302,0.578c0.046,0.015,0.092,0.022,0.138,0.022
	c0.197,0,0.379-0.126,0.44-0.324c0.372-1.181,0.727-2.367,1.068-3.559C438.475,333.271,438.333,333.016,438.088,332.946z
	 M151.284,289.6c-0.028,1.186-0.043,2.376-0.043,3.569v0.146c0,0.255,0.207,0.462,0.462,0.462c0.255,0,0.462-0.207,0.462-0.462
	v-0.146c0-1.185,0.014-2.368,0.043-3.546c0.006-0.255-0.196-0.467-0.451-0.473C151.497,289.135,151.29,289.345,151.284,289.6z
	 M153.125,314.084c0.021,0,0.043-0.002,0.065-0.004c0.253-0.035,0.429-0.269,0.393-0.521c-0.17-1.216-0.326-2.437-0.467-3.663
	c-0.029-0.253-0.258-0.437-0.511-0.406c-0.253,0.029-0.435,0.258-0.406,0.511c0.142,1.233,0.298,2.462,0.47,3.686
	C152.7,313.917,152.898,314.084,153.125,314.084z M152.062,303.956c0.011,0,0.022,0,0.032-0.001
	c0.254-0.018,0.446-0.239,0.428-0.493c-0.085-1.225-0.156-2.454-0.211-3.687c-0.012-0.255-0.231-0.462-0.482-0.441
	c-0.255,0.011-0.452,0.227-0.441,0.482c0.055,1.241,0.127,2.478,0.212,3.709C151.619,303.77,151.822,303.956,152.062,303.956z
	 M152.043,283.6c0.241,0,0.444-0.187,0.46-0.431c0.083-1.231,0.182-2.458,0.297-3.681c0.023-0.254-0.163-0.479-0.417-0.503
	c-0.251-0.024-0.479,0.163-0.503,0.417c-0.115,1.23-0.214,2.465-0.299,3.704c-0.017,0.254,0.175,0.474,0.43,0.492
	C152.021,283.599,152.032,283.6,152.043,283.6z M296.499,147.238c-0.003-0.255-0.199-0.419-0.467-0.457
	c-1.242,0.014-2.478,0.042-3.711,0.087c-0.255,0.009-0.455,0.223-0.445,0.477c0.009,0.249,0.214,0.446,0.461,0.446
	c0.006,0,0.011,0,0.017,0c1.226-0.043,2.455-0.072,3.688-0.086C296.297,147.702,296.502,147.493,296.499,147.238z M252.348,154.86
	c0.047,0,0.096-0.007,0.143-0.023c1.168-0.381,2.343-0.748,3.524-1.1c0.244-0.073,0.384-0.33,0.311-0.574
	c-0.073-0.244-0.33-0.384-0.574-0.311c-1.189,0.354-2.372,0.723-3.548,1.107c-0.242,0.079-0.375,0.34-0.296,0.582
	C251.972,154.737,252.154,154.86,252.348,154.86z M242.783,158.357c0.058,0,0.117-0.011,0.174-0.034
	c1.139-0.463,2.285-0.911,3.439-1.345c0.238-0.09,0.359-0.356,0.269-0.595c-0.09-0.239-0.355-0.359-0.595-0.269
	c-1.161,0.437-2.315,0.888-3.461,1.353c-0.236,0.096-0.35,0.365-0.254,0.602C242.428,158.248,242.6,158.357,242.783,158.357z
	 M272.175,149.917c1.209-0.213,2.424-0.412,3.644-0.595c0.253-0.038,0.426-0.273,0.388-0.525c-0.038-0.252-0.269-0.421-0.525-0.388
	c-1.227,0.185-2.45,0.385-3.667,0.6c-0.251,0.044-0.419,0.284-0.374,0.535c0.039,0.224,0.234,0.381,0.454,0.381
	C272.121,149.924,272.148,149.922,272.175,149.917z M237.267,160.267c-0.106-0.232-0.38-0.332-0.612-0.227
	c-1.124,0.516-2.24,1.045-3.348,1.588c-0.229,0.112-0.323,0.389-0.212,0.618c0.08,0.163,0.244,0.258,0.415,0.258
	c0.068,0,0.138-0.015,0.203-0.047c1.101-0.54,2.21-1.066,3.326-1.578C237.272,160.773,237.374,160.498,237.267,160.267z
	 M282.227,148.502c1.221-0.129,2.446-0.242,3.677-0.34c0.254-0.02,0.444-0.243,0.424-0.497c-0.021-0.254-0.237-0.442-0.497-0.423
	c-1.238,0.099-2.471,0.213-3.7,0.343c-0.254,0.027-0.438,0.254-0.411,0.507c0.025,0.237,0.225,0.414,0.459,0.414
	C282.195,148.505,282.211,148.504,282.227,148.502z M189.819,391.518c-0.188,0.172-0.201,0.464-0.028,0.652
	c0.838,0.913,1.687,1.815,2.547,2.705c0.091,0.094,0.211,0.141,0.332,0.141c0.115,0,0.231-0.043,0.321-0.13
	c0.183-0.177,0.188-0.469,0.011-0.653c-0.855-0.885-1.698-1.779-2.53-2.687C190.299,391.358,190.006,391.346,189.819,391.518z
	 M186.138,199.728c0.791-0.943,1.595-1.877,2.409-2.8c0.169-0.191,0.151-0.483-0.041-0.652c-0.19-0.168-0.482-0.15-0.652,0.041
	c-0.819,0.929-1.627,1.867-2.424,2.817c-0.164,0.195-0.138,0.487,0.057,0.651c0.087,0.072,0.192,0.108,0.296,0.108
	C185.916,199.893,186.047,199.837,186.138,199.728z M192.931,192.18c0.855-0.886,1.72-1.76,2.596-2.624
	c0.182-0.179,0.184-0.471,0.005-0.653c-0.179-0.182-0.472-0.183-0.653-0.004c-0.882,0.869-1.753,1.75-2.613,2.641
	c-0.177,0.183-0.172,0.476,0.012,0.653c0.09,0.087,0.205,0.129,0.321,0.129C192.719,192.321,192.84,192.273,192.931,192.18z
	 M405.047,194.835c0.112,0,0.224-0.041,0.313-0.122c0.188-0.173,0.199-0.465,0.026-0.653c-0.839-0.91-1.688-1.811-2.55-2.701
	c-0.178-0.183-0.47-0.188-0.653-0.011c-0.183,0.178-0.188,0.47-0.011,0.653c0.856,0.884,1.7,1.779,2.535,2.684
	C404.799,194.785,404.922,194.835,405.047,194.835z M179.883,207.732c0.725-0.997,1.462-1.984,2.211-2.962
	c0.155-0.202,0.117-0.492-0.086-0.648c-0.203-0.155-0.492-0.116-0.648,0.086c-0.754,0.984-1.495,1.977-2.224,2.981
	c-0.15,0.206-0.104,0.495,0.102,0.645c0.082,0.06,0.177,0.088,0.271,0.088C179.652,207.923,179.793,207.857,179.883,207.732z
	 M199.687,401.971c0.088,0.08,0.199,0.119,0.309,0.119c0.126,0,0.252-0.051,0.343-0.152c0.17-0.189,0.156-0.482-0.034-0.652
	c-0.915-0.824-1.819-1.66-2.713-2.507c-0.185-0.173-0.477-0.167-0.652,0.018c-0.176,0.185-0.168,0.477,0.018,0.653
	C197.857,400.302,198.767,401.142,199.687,401.971z M183.221,383.767c-0.199,0.159-0.232,0.449-0.073,0.648
	c0.772,0.969,1.557,1.926,2.353,2.873c0.091,0.109,0.222,0.165,0.354,0.165c0.105,0,0.21-0.035,0.297-0.108
	c0.195-0.164,0.221-0.456,0.056-0.65c-0.791-0.942-1.571-1.893-2.338-2.855C183.711,383.639,183.421,383.607,183.221,383.767z
	 M221.736,417.295c-0.218-0.133-0.502-0.064-0.635,0.153c-0.133,0.217-0.065,0.501,0.152,0.635c1.058,0.648,2.124,1.283,3.198,1.904
	c0.073,0.042,0.152,0.062,0.231,0.062c0.16,0,0.315-0.083,0.4-0.231c0.128-0.22,0.052-0.503-0.168-0.63
	C223.846,418.571,222.787,417.939,221.736,417.295z M216.188,172.617c1.017-0.689,2.044-1.365,3.079-2.028
	c0.215-0.138,0.277-0.423,0.14-0.638c-0.137-0.215-0.424-0.279-0.638-0.14c-1.042,0.667-2.075,1.347-3.098,2.041
	c-0.211,0.143-0.267,0.43-0.124,0.641c0.089,0.132,0.235,0.203,0.383,0.203C216.019,172.696,216.109,172.67,216.188,172.617z
	 M171.726,366.995c-0.219,0.131-0.292,0.414-0.162,0.633c0.63,1.065,1.274,2.12,1.93,3.167c0.088,0.14,0.238,0.216,0.392,0.216
	c0.084,0,0.169-0.023,0.245-0.07c0.216-0.135,0.281-0.42,0.146-0.637c-0.652-1.04-1.291-2.09-1.918-3.148
	C172.229,366.939,171.946,366.866,171.726,366.995z M204.552,405.566c-0.162,0.197-0.134,0.488,0.063,0.65
	c0.956,0.788,1.922,1.565,2.899,2.328c0.085,0.067,0.185,0.098,0.284,0.098c0.138,0,0.273-0.061,0.364-0.178
	c0.157-0.2,0.121-0.491-0.079-0.648c-0.97-0.759-1.931-1.531-2.881-2.313C205.005,405.341,204.714,405.371,204.552,405.566z
	 M207.993,178.591c0.967-0.758,1.944-1.504,2.932-2.238c0.205-0.152,0.247-0.441,0.095-0.646c-0.152-0.205-0.441-0.248-0.646-0.095
	c-0.994,0.739-1.977,1.49-2.951,2.252c-0.201,0.157-0.236,0.447-0.079,0.648c0.091,0.116,0.227,0.177,0.364,0.177
	C207.808,178.69,207.908,178.658,207.993,178.591z M212.618,411.795c-0.148,0.208-0.1,0.496,0.108,0.644
	c1.009,0.719,2.028,1.427,3.055,2.121c0.079,0.054,0.17,0.079,0.258,0.079c0.148,0,0.294-0.071,0.383-0.203
	c0.143-0.212,0.088-0.499-0.124-0.641c-1.021-0.691-2.034-1.393-3.037-2.109C213.055,411.539,212.767,411.588,212.618,411.795z
	 M230.16,423.121c1.101,0.573,2.209,1.132,3.325,1.678c0.065,0.032,0.134,0.047,0.202,0.047c0.171,0,0.335-0.096,0.415-0.259
	c0.112-0.229,0.017-0.506-0.212-0.618c-1.11-0.542-2.211-1.098-3.305-1.667c-0.227-0.118-0.506-0.031-0.623,0.197
	C229.846,422.724,229.934,423.004,230.16,423.121z M239.768,426.677c-0.233-0.102-0.505,0.006-0.607,0.24
	c-0.101,0.234,0.006,0.506,0.24,0.608c1.138,0.493,2.284,0.973,3.437,1.439c0.057,0.023,0.115,0.033,0.173,0.033
	c0.183,0,0.355-0.109,0.428-0.289c0.096-0.236-0.019-0.506-0.255-0.602C242.038,427.645,240.899,427.167,239.768,426.677z
	 M176.068,212.406c-0.213-0.142-0.5-0.083-0.64,0.13c-0.684,1.035-1.355,2.078-2.013,3.13c-0.135,0.216-0.07,0.501,0.147,0.636
	c0.076,0.048,0.161,0.07,0.244,0.07c0.154,0,0.304-0.077,0.392-0.217c0.654-1.046,1.32-2.082,2-3.11
	C176.339,212.833,176.281,212.547,176.068,212.406z M224.776,167.23c1.062-0.616,2.132-1.218,3.21-1.808
	c0.224-0.122,0.306-0.403,0.184-0.626c-0.122-0.224-0.403-0.307-0.626-0.183c-1.085,0.593-2.162,1.2-3.231,1.819
	c-0.221,0.128-0.296,0.41-0.168,0.631c0.086,0.147,0.241,0.23,0.4,0.23C224.623,167.292,224.703,167.273,224.776,167.23z
	 M177.181,375.578c-0.21,0.145-0.263,0.433-0.118,0.643c0.703,1.019,1.419,2.028,2.146,3.028c0.091,0.125,0.231,0.19,0.374,0.19
	c0.094,0,0.189-0.029,0.271-0.088c0.206-0.151,0.252-0.439,0.101-0.645c-0.723-0.994-1.434-1.996-2.133-3.01
	C177.678,375.486,177.39,375.434,177.181,375.578z M166.885,358.057c-0.228,0.115-0.32,0.392-0.206,0.62
	c0.554,1.106,1.121,2.203,1.702,3.293c0.083,0.156,0.243,0.244,0.408,0.244c0.073,0,0.147-0.017,0.217-0.054
	c0.225-0.12,0.31-0.4,0.19-0.625c-0.577-1.082-1.141-2.173-1.692-3.271C167.391,358.035,167.114,357.944,166.885,358.057z
	 M355.373,159.604c0.06,0.026,0.123,0.038,0.184,0.038c0.179,0,0.348-0.104,0.424-0.278c0.101-0.234-0.006-0.506-0.24-0.607
	c-1.14-0.493-2.286-0.972-3.44-1.437c-0.234-0.095-0.506,0.019-0.601,0.256c-0.096,0.237,0.019,0.506,0.256,0.601
	C353.103,158.638,354.242,159.114,355.373,159.604z M170.718,221.087c-0.222-0.124-0.504-0.047-0.629,0.175
	c-0.611,1.08-1.207,2.168-1.79,3.264c-0.12,0.225-0.034,0.505,0.191,0.625c0.069,0.037,0.143,0.054,0.217,0.054
	c0.165,0,0.325-0.089,0.408-0.245c0.58-1.09,1.173-2.171,1.779-3.244C171.018,221.494,170.94,221.213,170.718,221.087z
	 M165.985,230.125c-0.231-0.108-0.505-0.011-0.616,0.219c-0.533,1.121-1.052,2.249-1.558,3.384c-0.103,0.233,0.001,0.506,0.234,0.61
	c0.061,0.027,0.124,0.04,0.187,0.04c0.177,0,0.346-0.102,0.422-0.274c0.502-1.128,1.018-2.249,1.548-3.362
	C166.313,230.51,166.216,230.234,165.985,230.125z M266.19,150.63c-0.056-0.249-0.301-0.405-0.551-0.35
	c-1.211,0.27-2.417,0.555-3.616,0.855c-0.248,0.062-0.398,0.313-0.336,0.56c0.052,0.21,0.24,0.35,0.447,0.35
	c0.037,0,0.075-0.004,0.112-0.014c1.192-0.298,2.39-0.581,3.594-0.85C266.089,151.126,266.246,150.879,266.19,150.63z
	 M345.898,155.892c0.05,0.018,0.103,0.026,0.153,0.026c0.19,0,0.369-0.119,0.436-0.309c0.085-0.24-0.042-0.504-0.282-0.588
	c-1.172-0.412-2.349-0.809-3.534-1.191c-0.241-0.078-0.502,0.055-0.581,0.297c-0.078,0.243,0.054,0.503,0.298,0.581
	C343.563,155.088,344.734,155.483,345.898,155.892z M364.774,164.022c0.167,0,0.327-0.091,0.409-0.249
	c0.118-0.226,0.03-0.505-0.197-0.623c-1.101-0.571-2.21-1.129-3.328-1.673c-0.226-0.11-0.505-0.017-0.617,0.213
	c-0.112,0.229-0.016,0.506,0.213,0.617c1.11,0.541,2.212,1.095,3.306,1.663C364.63,164.005,364.702,164.022,364.774,164.022z
	 M332.843,151.034c-0.253-0.061-0.498,0.091-0.559,0.338c-0.061,0.247,0.09,0.498,0.337,0.559c1.197,0.295,2.388,0.606,3.573,0.931
	c0.042,0.011,0.082,0.016,0.123,0.016c0.203,0,0.389-0.134,0.446-0.34c0.068-0.246-0.078-0.5-0.323-0.568
	C335.246,151.643,334.047,151.331,332.843,151.034z M306.192,147.943c0.009,0,0.018,0.001,0.027,0.001
	c0.244,0,0.446-0.189,0.461-0.435c0.014-0.254-0.179-0.473-0.434-0.487c-1.234-0.072-2.471-0.128-3.712-0.168
	c-0.005,0-0.011,0-0.015,0c-0.248,0-0.454,0.197-0.462,0.446c-0.008,0.255,0.192,0.469,0.446,0.477
	C303.737,147.816,304.967,147.872,306.192,147.943z M326.409,150.532c0.216,0,0.408-0.151,0.452-0.371
	c0.051-0.25-0.112-0.493-0.362-0.543c-1.212-0.243-2.43-0.47-3.654-0.682c-0.245-0.045-0.49,0.125-0.533,0.376
	c-0.044,0.251,0.124,0.49,0.376,0.534c1.215,0.211,2.425,0.437,3.63,0.678C326.347,150.529,326.378,150.532,326.409,150.532z
	 M316.299,148.882c0.02,0.002,0.04,0.004,0.06,0.004c0.228,0,0.427-0.17,0.457-0.403c0.032-0.253-0.146-0.484-0.4-0.517
	c-1.226-0.157-2.456-0.299-3.691-0.426c-0.249-0.019-0.48,0.158-0.506,0.413c-0.026,0.253,0.158,0.48,0.412,0.506
	C313.857,148.585,315.08,148.726,316.299,148.882z M390.255,180.846c0.133,0,0.265-0.057,0.357-0.169
	c0.161-0.197,0.134-0.488-0.064-0.65c-0.957-0.787-1.925-1.562-2.901-2.324c-0.202-0.156-0.492-0.123-0.648,0.08
	c-0.157,0.201-0.121,0.491,0.08,0.648c0.971,0.758,1.932,1.528,2.883,2.31C390.047,180.812,390.151,180.846,390.255,180.846z
	 M417.751,210.722c0.091,0,0.182-0.027,0.262-0.082c0.21-0.145,0.262-0.432,0.117-0.642c-0.703-1.019-1.42-2.027-2.149-3.026
	c-0.152-0.206-0.441-0.251-0.646-0.101c-0.206,0.15-0.251,0.439-0.101,0.645c0.725,0.993,1.437,1.995,2.137,3.006
	C417.46,210.653,417.605,210.722,417.751,210.722z M162.684,348.809c-0.235,0.098-0.347,0.369-0.248,0.604
	c0.475,1.141,0.964,2.275,1.467,3.401c0.077,0.171,0.245,0.273,0.422,0.273c0.063,0,0.127-0.013,0.188-0.04
	c0.233-0.105,0.337-0.378,0.233-0.611c-0.5-1.119-0.986-2.246-1.458-3.379C163.19,348.822,162.919,348.715,162.684,348.809z
	 M411.675,202.56c0.101,0,0.203-0.033,0.289-0.101c0.198-0.159,0.232-0.45,0.072-0.649c-0.773-0.967-1.558-1.924-2.355-2.871
	c-0.165-0.195-0.456-0.219-0.651-0.055c-0.195,0.164-0.22,0.456-0.056,0.651c0.793,0.94,1.573,1.891,2.34,2.852
	C411.405,202.5,411.539,202.56,411.675,202.56z M381.896,174.567c0.081,0.058,0.175,0.086,0.268,0.086
	c0.144,0,0.286-0.068,0.376-0.194c0.148-0.208,0.099-0.496-0.108-0.644c-1.01-0.719-2.029-1.425-3.058-2.118
	c-0.211-0.141-0.497-0.088-0.641,0.125c-0.142,0.211-0.086,0.498,0.125,0.641C379.879,173.151,380.893,173.853,381.896,174.567z
	 M373.415,168.967c0.075,0.046,0.158,0.068,0.241,0.068c0.155,0,0.307-0.078,0.394-0.221c0.133-0.217,0.064-0.502-0.153-0.635
	c-1.058-0.647-2.124-1.281-3.199-1.901c-0.22-0.126-0.503-0.051-0.63,0.169c-0.128,0.221-0.052,0.503,0.169,0.631
	C371.303,167.694,372.364,168.324,373.415,168.967z M199.65,242.877h-13.914v-8.037h12.458v-6.229h-12.458v-7.032h13.211V215.3
	h-20.896v33.857h21.6V242.877z M230.445,249.157h-7.836c-0.553-0.955-1.356-3.718-2.361-7.887c-0.904-4.22-2.361-5.375-5.476-5.425
	h-2.311v13.312h-7.585v-33.405c2.461-0.402,6.128-0.703,10.197-0.703c5.023,0,8.54,0.753,10.951,2.662
	c2.009,1.607,3.114,3.968,3.114,7.083c0,4.32-3.064,7.283-5.978,8.338v0.151c2.361,0.954,3.667,3.215,4.521,6.33
	C228.737,243.43,229.792,247.85,230.445,249.157z M221.554,225.447c0-3.114-2.109-4.671-5.626-4.722
	c-1.858,0-2.913,0.15-3.466,0.251v9.343h3.014C219.293,230.319,221.554,228.411,221.554,225.447z M244.563,235.845h-2.311v13.312
	h-7.585v-33.405c2.461-0.402,6.128-0.703,10.197-0.703c5.023,0,8.54,0.753,10.951,2.662c2.009,1.607,3.114,3.968,3.114,7.083
	c0,4.32-3.064,7.283-5.978,8.338v0.151c2.361,0.954,3.667,3.215,4.521,6.33c1.055,3.817,2.11,8.237,2.763,9.544h-7.836
	c-0.553-0.955-1.356-3.718-2.361-7.887C249.134,237.05,247.677,235.895,244.563,235.845z M242.252,230.319h3.014
	c3.818,0,6.078-1.909,6.078-4.873c0-3.114-2.109-4.671-5.626-4.722c-1.858,0-2.913,0.15-3.466,0.251V230.319z M262.699,232.479
	c0-10.147,6.48-17.732,16.476-17.732c10.397,0,16.074,7.786,16.074,17.129c0,11.102-6.731,17.833-16.627,17.833
	C268.576,249.709,262.699,242.124,262.699,232.479z M270.786,232.329c0,6.631,3.114,11.303,8.238,11.303
	c5.174,0,8.137-4.923,8.137-11.504c0-6.078-2.913-11.302-8.188-11.302C273.8,220.825,270.786,225.748,270.786,232.329z
	 M300.275,215.752c2.461-0.402,6.128-0.703,10.197-0.703c5.022,0,8.539,0.753,10.95,2.662c2.01,1.607,3.114,3.968,3.114,7.083
	c0,4.32-3.063,7.283-5.978,8.338v0.151c2.361,0.954,3.667,3.215,4.521,6.33c1.055,3.817,2.109,8.237,2.763,9.544h-7.837
	c-0.553-0.955-1.355-3.718-2.36-7.887c-0.904-4.22-2.361-5.375-5.476-5.425h-2.311v13.312h-7.585V215.752z M307.86,230.319h3.014
	c3.817,0,6.078-1.909,6.078-4.873c0-3.114-2.109-4.671-5.626-4.722c-1.858,0-2.913,0.15-3.466,0.251V230.319z M478.161,538.381
	v-4.707c-0.574,1.568-1.148,3.135-1.711,4.707H478.161z M464.413,538.381h2.367c2.388-11.683,6.474-23.141,10.56-34.137
	c0.265-0.713,0.55-1.417,0.821-2.127v-6.337c-1.054,2.602-2.082,5.214-3.061,7.847C470.937,514.828,466.802,526.487,464.413,538.381
	z M414.801,538.381h24.116c-1.299-2.992-2.631-5.97-4.03-8.916c-1.554-3.276-3.536-6.387-5.156-9.647
	c-0.052-2.035,0.086-4.076,0.446-6.094c4.158,7.353,8.063,14.844,11.985,22.328c0.407,0.778,0.82,1.552,1.229,2.329h2.631
	c-0.373-0.7-0.75-1.397-1.119-2.098c-4.553-8.674-9.062-17.371-13.943-25.863c0.238-0.802,0.51-1.591,0.812-2.369
	c1.348,2.569,2.68,5.146,3.925,7.768c0.641,1.35,2.644,0.172,2.006-1.173c-1.491-3.139-3.111-6.215-4.738-9.286
	c0.714-1.435,1.529-2.82,2.44-4.142c4.541,12.218,8.362,24.685,12.157,37.163h2.406c-4.027-13.215-8.064-26.425-12.925-39.352
	c0.375-0.463,0.77-0.91,1.167-1.354c0.655,1.983,1.318,3.962,2.03,5.926c0.506,1.395,2.751,0.793,2.24-0.617
	c-0.865-2.387-1.662-4.797-2.454-7.208c1.054-1.019,2.171-1.976,3.342-2.862c1.586,15.301,3.857,30.515,7.304,45.468h2.371
	c-3.587-15.446-5.899-31.173-7.5-46.988c2.463-1.598,5.117-2.897,7.885-3.845c-0.636,8.925-0.96,17.856-0.125,26.81
	c0.138,1.476,2.462,1.49,2.323,0c-0.858-9.194-0.492-18.363,0.177-27.527c2.654-0.697,5.39-1.07,8.151-1.064
	c0.159,0,0.317,0.01,0.475,0.012c-3.389,17.492-7.025,35.024-6.325,52.602h2.295c-0.747-17.519,2.9-35.034,6.305-52.483
	c1.935,0.174,3.844,0.532,5.713,1.042c-2.352,6.964-4.421,14.011-5.676,21.286c-0.252,1.462,1.986,2.09,2.24,0.618
	c1.251-7.25,3.31-14.272,5.652-21.213c1.2,0.416,2.375,0.901,3.527,1.441v-83.324v-1.438v-34.22h-30.353L414.801,421.6V538.381z
	 M469.913,538.381h2.497c1.894-4.347,3.963-8.57,5.751-12.579v-5.65c-0.785,1.751-1.568,3.503-2.353,5.256
	C473.956,529.544,471.832,533.899,469.913,538.381z M411.805,415.041l24.602-38.394h-42.14l-13.668,21.331
	c0.653-0.109,1.329-0.144,2.019-0.091c3.829,0.291,6.845,3.088,7.576,6.664l-10.101-0.769l-0.351,4.617l10.101,0.768
	c-1.263,3.424-4.669,5.742-8.498,5.451c-3.643-0.277-6.55-2.846-7.445-6.186l-4.235,6.609H411.805z M358.264,533.993
	c-0.848-0.486-1.773-0.845-2.754-1.041l-6.422-1.284c-3.33-0.666-7.228-1.724-9.229-4.467l-3.764-5.247l-0.798,0.636l-2.984,2.378
	c-1.028,0.819-2.285,1.299-3.597,1.372l-5.584,0.311l-1.262,0.07c0,0-2.878,6.283-3.695,11.66c-0.051,0.333-0.095,0.664-0.129,0.988
	c-0.087,0.839,0.557,0.572,1.4,0.572l42.554,0c0.672,0,1.11,0.292,0.809-0.309l-0.626-1.251l-0.269-0.538
	C361.096,536.206,359.815,534.881,358.264,533.993z M220.84,540.054l-0.004-0.009l3.473,0.009c0.672,0.002,1.112-0.705,0.812-1.307
	l-0.182-0.366l-0.708-1.426c-1.259-2.534-3.617-4.346-6.39-4.908l-0.636-0.129c-0.8-2.292-1.241-4.718-0.55-6.903l2.286-4.719
	l-1.003-0.543l-3.957-2.14c-1.269-0.343-2.4-1.071-3.237-2.085l-3.085-3.738l-1.279-1.55c0,0-7.632,1.583-12.454,4.415
	c-0.727,0.427-0.937,1.38-0.437,2.059l15.938,21.666l1.231,1.673H220.84z M288.171,307.082c0.277,0.162,0.551,0.326,0.817,0.498
	c0.149,0.097,0.293,0.197,0.439,0.297c0.241,0.165,0.478,0.334,0.709,0.508c0.143,0.107,0.284,0.216,0.423,0.327
	c0.228,0.181,0.449,0.367,0.667,0.556c0.127,0.11,0.255,0.219,0.378,0.331c0.236,0.215,0.463,0.438,0.687,0.663
	c0.093,0.093,0.189,0.183,0.28,0.277c0.309,0.323,0.609,0.654,0.895,0.994c0.043,0.052,0.083,0.106,0.126,0.158
	c0.241,0.292,0.475,0.589,0.7,0.894c0.091,0.123,0.177,0.25,0.265,0.375c0.17,0.24,0.337,0.482,0.498,0.729
	c0.093,0.143,0.183,0.289,0.273,0.435c0.148,0.239,0.292,0.48,0.431,0.724c0.086,0.15,0.171,0.301,0.253,0.454
	c0.138,0.254,0.27,0.512,0.399,0.772c0.072,0.145,0.146,0.289,0.215,0.435c0.143,0.302,0.278,0.609,0.41,0.917
	c0.046,0.108,0.096,0.214,0.141,0.323c0.173,0.419,0.337,0.843,0.49,1.273c0.034,0.095,0.064,0.193,0.097,0.289
	c0.117,0.337,0.23,0.676,0.335,1.02c0.048,0.157,0.092,0.315,0.138,0.473c0.084,0.288,0.165,0.577,0.241,0.868
	c0.045,0.174,0.089,0.349,0.131,0.525c0.069,0.283,0.135,0.568,0.197,0.854c0.038,0.176,0.076,0.353,0.112,0.53
	c0.061,0.301,0.116,0.603,0.169,0.907c0.028,0.161,0.059,0.322,0.085,0.484c0.061,0.374,0.115,0.75,0.165,1.128
	c0.012,0.09,0.027,0.18,0.038,0.27c0,0,0,0,0,0c0.655,5.175,0.348,10.628-0.55,15.642c-0.685,3.823,1.884,7.485,5.7,8.207
	c0.047,0.009,0.093,0.018,0.14,0.026c3.786,0.712,7.446-1.682,8.327-5.433c0.628-2.676,1.062-5.387,1.311-8.107
	c-0.001-0.003-0.002-0.006-0.003-0.009c0.027-0.295,0.059-0.59,0.082-0.886c0.006-0.075,0.014-0.15,0.02-0.225
	c0.051-0.7,0.086-1.401,0.112-2.102c0.008-0.209,0.01-0.418,0.015-0.626c0.013-0.496,0.021-0.992,0.021-1.487
	c0-0.25-0.003-0.5-0.006-0.75c-0.006-0.468-0.019-0.935-0.036-1.402c-0.009-0.244-0.018-0.488-0.03-0.732
	c-0.026-0.522-0.062-1.043-0.103-1.563c-0.014-0.178-0.024-0.357-0.04-0.535c-0.061-0.694-0.135-1.386-0.222-2.075
	c-0.019-0.153-0.044-0.305-0.065-0.457c-0.072-0.539-0.151-1.077-0.239-1.613c-0.039-0.236-0.082-0.471-0.124-0.706
	c-0.079-0.443-0.163-0.885-0.253-1.325l-2.475,5.873c-0.721,1.711-3.082,1.871-4.018,0.268c-2.357-4.035-6.078-10.176-8.742-13.466
	c-0.575-0.71-0.659-1.692-0.219-2.492l1.865-3.4c-4.688-1.017-8.218-0.806-13.361-0.806c0.443,0.208,0.87,0.43,1.288,0.661
	C287.909,306.923,288.038,307.004,288.171,307.082z M301.883,375.384c-2.673-12.655-7.696-41.222-10.369-53.876
	c-7.027-17.61-30.623-11.491-26.397,6.724l20.409,63.184c5.112,1.917,10.324,3.55,15.6,4.945c-1.123,4.49-2.199,9.143-3.227,13.94
	c3.19,2.01,6.442,3.921,9.76,5.711c4.813-4.354,9.94-8.945,13.03-14.49c-0.7-0.506-1.385-1.005-2.063-1.502
	c-5.37-0.833-10.702-1.907-15.966-3.247c3.611-5.393,7.47-11.092,9.12-17.221c0.36,0.144,0.731,0.29,1.096,0.435
	c0.481-8.236,1.073-17.593,1.543-25.722c-2.775,7.076-5.469,14.761-8.019,23.085C304.811,376.681,303.295,376.024,301.883,375.384z"></path>
<path id="color_x5F_1" fill="#0984E3" d="M99.01,370.192c-9.763-24.69-14.884-51.248-14.884-78.597
	c0-39.831,10.846-77.99,31.119-111.126c0.203,0.14,0.413,0.272,0.633,0.393c-19.741,32.283-31.13,70.202-31.13,110.733
	c0,27.662,5.307,54.106,14.95,78.374C99.461,370.035,99.232,370.109,99.01,370.192z M297.638,78.706
	c83.293,0,155.554,48.089,190.511,117.954c0.224-0.109,0.458-0.206,0.7-0.296c-10.168-20.366-23.669-39.178-40.234-55.744
	c-40.327-40.327-93.945-62.536-150.976-62.536c-57.031,0-110.649,22.209-150.976,62.536c-7.949,7.949-15.183,16.422-21.693,25.328
	c0.206,0.144,0.402,0.297,0.59,0.458C164.308,113.291,227.005,78.706,297.638,78.706z M245.58,498.032
	c-60.925-15.372-111.487-57.071-138.824-112.246c-0.21,0.132-0.431,0.251-0.659,0.364c10.205,20.626,23.817,39.673,40.565,56.421
	c27.482,27.483,61.142,46.532,97.845,55.887l0.025-0.008C244.885,498.303,245.229,498.173,245.58,498.032z M321.908,503.095
	c-3.872,0.441-7.774,0.781-11.706,1.011c-0.011,0.211-0.024,0.421-0.048,0.629c3.93-0.226,7.839-0.558,11.726-0.995L321.908,503.095
	z M511.15,291.596c0-27.61-5.22-54.414-15.166-79.303c-0.213,0.109-0.435,0.208-0.663,0.298
	c9.803,24.441,15.208,51.102,15.208,79.004c0,41.365-11.871,80.004-32.367,112.713v1.438
	C499.644,371.919,511.15,332.641,511.15,291.596z M94.807,537.186c-5.22-9.962-10.418-19.934-15.952-29.72
	c-0.479,2.686-0.663,5.403-0.594,8.111c2.156,4.339,4.794,8.48,6.863,12.841c1.564,3.295,3.057,6.623,4.523,9.963h5.79
	C95.228,537.983,95.016,537.585,94.807,537.186z M96.413,479.766c-1.559,1.179-3.045,2.452-4.448,3.809
	c1.054,3.21,2.114,6.418,3.266,9.595c0.68,1.877-2.309,2.678-2.982,0.822c-0.948-2.613-1.83-5.249-2.702-7.887
	c-0.529,0.591-1.055,1.187-1.554,1.802c6.237,16.585,11.454,33.52,16.623,50.474h1.097
	C101.368,519.09,98.458,499.483,96.413,479.766z M85.814,490.819c-1.213,1.76-2.298,3.604-3.248,5.514
	c2.166,4.088,4.322,8.182,6.307,12.36c0.85,1.79-1.817,3.357-2.67,1.561c-1.658-3.49-3.43-6.921-5.225-10.34
	c-0.401,1.035-0.764,2.086-1.081,3.153c6.496,11.304,12.498,22.879,18.558,34.425c0.156,0.297,0.316,0.592,0.474,0.888h2.486
	C96.554,522.409,91.627,506.46,85.814,490.819z M124.447,470.27c-0.211-0.004-0.421-0.016-0.632-0.016
	c-3.675-0.008-7.317,0.49-10.85,1.417c-0.891,12.198-1.377,24.402-0.235,36.64c0.185,1.984-2.909,1.965-3.092,0
	c-1.112-11.918-0.68-23.806,0.166-35.686c-3.685,1.261-7.216,2.99-10.495,5.118c2.066,20.401,5.033,40.69,9.559,60.638h7.108
	C115.371,515.623,120.058,492.92,124.447,470.27z M147.185,522.091c3.411-8.87,6.807-17.8,10.98-26.345
	c0.997-2.041,2.025-4.084,3.034-6.139c-0.475-0.625-0.964-1.238-1.469-1.839c-1.394,2.61-2.764,5.235-4.089,7.884
	c-4.557,9.109-8.694,18.403-12.833,27.706c-2.136,4.802-4.578,9.844-6.891,15.023h5.222
	C143.102,532.932,145.105,527.497,147.185,522.091z M138.65,494.026c2.23-6.001,4.611-11.94,7.129-17.818
	c-2.478-1.389-5.076-2.547-7.75-3.474c-3.117,9.239-5.858,18.586-7.523,28.236c-0.338,1.96-3.317,1.124-2.982-0.822
	c1.671-9.683,4.425-19.063,7.556-28.332c-2.487-0.679-5.029-1.155-7.604-1.387c-4.41,22.593-9.112,45.269-8.45,67.953h5.811
	C128.066,523.211,133.331,508.337,138.65,494.026z M139.592,523.018c4.625-10.326,9.188-20.666,14.304-30.763
	c1.18-2.329,2.408-4.63,3.651-6.922c-0.687-0.718-1.396-1.415-2.125-2.09c-2.235,3.608-4.475,7.213-6.853,10.731
	c-1.109,1.642-3.787,0.092-2.67-1.561c2.485-3.678,4.822-7.45,7.159-11.222c-1.478-1.208-3.021-2.337-4.623-3.372
	c-2.401,5.619-4.673,11.295-6.804,17.029c-5.217,14.037-10.414,28.643-13.637,43.533h4.586
	C134.909,533.088,137.39,527.934,139.592,523.018z M170.572,517.71c0.053-3.658-0.314-7.322-1.155-10.91
	c-0.039-0.164-0.086-0.326-0.127-0.49c-4.423,5.045-8.256,10.467-10.487,16.754c-0.662,1.865-3.648,1.057-2.982-0.822
	c2.614-7.367,7.245-13.561,12.482-19.338c-1.238-3.674-2.96-7.171-5.076-10.418c-4.573,9.307-8.55,18.781-12.299,28.453
	c-2.243,5.787-4.398,11.606-6.507,17.442h8.924C158.672,531.184,164.64,524.366,170.572,517.71z M352.52,249.157v-7.786h-14.467
	v-4.973l12.357-19.893h9.343v19.139h3.918v5.727h-3.918v7.786H352.52z M352.52,235.644v-7.233c0-1.959,0.101-3.968,0.251-6.078
	h-0.201c-1.055,2.11-1.908,4.019-3.014,6.078l-4.37,7.133v0.101H352.52z M366.386,232.881c0-9.443,4.019-16.928,12.457-16.928
	c8.741,0,12.156,7.786,12.156,16.727c0,10.097-4.068,17.029-12.407,17.029C370.153,249.709,366.436,242.124,366.386,232.881z
	 M374.071,232.881c-0.051,7.485,1.758,11.051,4.722,11.051s4.571-3.717,4.571-11.151c0-7.233-1.558-11.051-4.621-11.051
	C375.93,221.729,374.021,225.296,374.071,232.881z M408.281,249.157v-7.786h-14.467v-4.973l12.357-19.893h9.343v19.139h3.918v5.727
	h-3.918v7.786H408.281z M408.281,235.644v-7.233c0-1.959,0.101-3.968,0.251-6.078h-0.201c-1.055,2.11-1.908,4.019-3.014,6.078
	l-4.37,7.133v0.101H408.281z M374.131,403.328c1.035-2.805,3.508-4.859,6.468-5.351l13.668-21.331h42.14l-24.602,38.394h-42.14
	l4.235-6.609c-0.043-0.16-0.086-0.32-0.12-0.483l-6.454-0.491l-9.062,14.142v3.843v0.949v2.164c1.219,1.057,2.336,2.223,3.32,3.499
	c2.625,2.111,4.146,5.933,4.46,9.199c0.048,0.501-0.694,0.682-0.864,0.266c-0.756-1.847-1.582-3.675-2.709-5.299
	c-0.02-0.029-0.043-0.056-0.063-0.085c-0.057,0.121-0.115,0.241-0.176,0.355c1.554,2.122,2.47,4.892,2.706,7.347
	c0.048,0.501-0.694,0.682-0.864,0.266c-0.756-1.847-1.582-3.675-2.709-5.299c-0.14-0.202-0.288-0.396-0.441-0.587
	c-0.003,0.003-0.006,0.006-0.009,0.009c1.202,1.976,1.922,4.343,2.127,6.474c0.048,0.501-0.694,0.682-0.864,0.266
	c-0.756-1.847-1.582-3.675-2.709-5.299c-0.062-0.089-0.128-0.173-0.192-0.259c-0.096,0.053-0.193,0.106-0.293,0.158
	c0.981,1.834,1.576,3.927,1.759,5.831c0.048,0.501-0.694,0.682-0.864,0.266c-0.485-1.186-1.01-2.358-1.614-3.479v1.327
	c0.417,1.689,0.441,3.493,0,5.291v46.874c-4.987,1.484-10.05,2.79-15.182,3.91l-0.22,0.735c5.192-1.114,10.329-2.419,15.402-3.913
	v37.584c1.55,0.888,2.831,2.213,3.649,3.85l0.269,0.538h52.618V421.6l33.007-51.511h-33.007h-23.53l-21.106,32.939L374.131,403.328
	C374.13,403.329,374.131,403.329,374.131,403.328z M430.177,513.724c-0.36,2.018-0.498,4.059-0.446,6.094
	c1.62,3.26,3.602,6.371,5.156,9.647c1.398,2.947,2.731,5.924,4.03,8.916c0.042,0.097,0.086,0.194,0.129,0.291h4.499
	c-0.051-0.097-0.103-0.194-0.154-0.291c-0.41-0.776-0.822-1.551-1.229-2.329C438.24,528.568,434.335,521.076,430.177,513.724z
	 M440.026,495.775c0.792,2.412,1.589,4.822,2.454,7.208c0.511,1.41-1.734,2.012-2.24,0.617c-0.712-1.963-1.375-3.943-2.03-5.926
	c-0.398,0.444-0.792,0.891-1.167,1.354c4.861,12.927,8.898,26.137,12.925,39.352c0.03,0.097,0.059,0.194,0.089,0.291h0.68
	c-0.022-0.097-0.042-0.194-0.064-0.291c-3.447-14.953-5.718-30.167-7.304-45.468C442.197,493.799,441.081,494.756,440.026,495.775z
	 M432.966,505.36c1.627,3.071,3.247,6.147,4.738,9.286c0.639,1.345-1.365,2.522-2.006,1.173c-1.245-2.622-2.577-5.2-3.925-7.768
	c-0.302,0.778-0.574,1.568-0.812,2.369c4.88,8.492,9.39,17.189,13.943,25.863c0.368,0.702,0.746,1.399,1.119,2.098
	c0.052,0.097,0.104,0.194,0.155,0.291h1.474c-0.03-0.097-0.059-0.194-0.089-0.291c-3.795-12.478-7.616-24.945-12.157-37.163
	C434.494,502.54,433.679,503.925,432.966,505.36z M464.43,485.779c-0.158-0.003-0.316-0.012-0.475-0.012
	c-2.761-0.006-5.497,0.368-8.151,1.064c-0.669,9.164-1.035,18.333-0.177,27.527c0.139,1.49-2.185,1.476-2.323,0
	c-0.835-8.954-0.511-17.885,0.125-26.81c-2.768,0.948-5.422,2.247-7.885,3.845c1.602,15.815,3.913,31.541,7.5,46.988
	c0.023,0.097,0.042,0.194,0.065,0.291h5.004c-0.004-0.097-0.004-0.194-0.008-0.291C457.405,520.804,461.041,503.271,464.43,485.779z
	 M472.28,538.672h4.064c0.035-0.097,0.071-0.194,0.106-0.291c0.563-1.572,1.137-3.14,1.711-4.707
	c1.096-2.995,2.206-5.985,3.351-8.962c2.563-6.664,5.114-13.373,8.249-19.792c0.749-1.534,1.521-3.068,2.279-4.612
	c-0.357-0.469-0.724-0.93-1.103-1.382c-1.048,1.961-2.076,3.933-3.072,5.923c-3.424,6.843-6.532,13.826-9.641,20.815
	c-0.02,0.046-0.043,0.093-0.063,0.139c-1.788,4.009-3.857,8.231-5.751,12.579C472.367,538.479,472.322,538.574,472.28,538.672z
	 M468.982,508.843c-0.254,1.473-2.492,0.845-2.24-0.618c1.256-7.275,3.324-14.322,5.676-21.286c-1.869-0.51-3.778-0.868-5.713-1.042
	c-3.406,17.449-7.053,34.964-6.305,52.483c0.004,0.097,0.004,0.194,0.009,0.291h3.941c0.019-0.097,0.044-0.194,0.063-0.291
	c2.39-11.894,6.524-23.552,10.688-34.754c0.979-2.633,2.007-5.246,3.061-7.847c0.75-1.853,1.508-3.703,2.295-5.539
	c-0.75-0.42-1.518-0.805-2.295-1.169c-1.152-0.54-2.327-1.025-3.527-1.441C472.292,494.571,470.233,501.593,468.982,508.843z
	 M466.78,538.381c-0.02,0.097-0.044,0.194-0.064,0.291h3.069c0.042-0.098,0.086-0.193,0.128-0.291
	c1.919-4.482,4.043-8.837,5.895-12.973c0.785-1.752,1.568-3.505,2.353-5.256c2.692-6.002,5.418-11.984,8.393-17.857
	c0.887-1.75,1.809-3.478,2.743-5.201c-0.516-0.539-1.049-1.063-1.596-1.57c-1.68,2.711-3.362,5.419-5.148,8.062
	c-0.833,1.233-2.845,0.069-2.006-1.172c1.867-2.763,3.623-5.597,5.379-8.431c-1.11-0.908-2.269-1.756-3.473-2.533
	c-1.505,3.523-2.926,7.083-4.291,10.666c-0.271,0.71-0.556,1.415-0.821,2.127C473.254,515.24,469.168,526.698,466.78,538.381z
	 M484.883,538.672c0.07-0.098,0.143-0.194,0.213-0.291c4.256-5.938,9.139-11.521,13.988-16.96c0.04-2.749-0.236-5.501-0.868-8.197
	c-0.029-0.124-0.065-0.245-0.095-0.368c-3.323,3.791-6.203,7.864-7.879,12.587c-0.497,1.401-2.741,0.794-2.24-0.618
	c1.964-5.535,5.443-10.188,9.378-14.528c-0.93-2.761-2.223-5.387-3.814-7.827c-3.435,6.992-6.423,14.11-9.24,21.376
	c-1.869,4.821-3.664,9.669-5.411,14.535c-0.035,0.097-0.071,0.194-0.106,0.291H484.883z"></path>
</svg>