<svg xmlns="http://www.w3.org/2000/svg" viewBox="0 0 333333 333333" shape-rendering="geometricPrecision" text-rendering="geometricPrecision" image-rendering="optimizeQuality" fill-rule="evenodd" clip-rule="evenodd"><path d="M94403 333233c18491-16492 31185-39980 37381-64068 2499-9495 12694-48376 12694-48376 6597 12694 26087 23389 46577 23389 61369 0 105547-56372 105547-126637C296602 50275 241730 0 171165 0 83309 0 36733 58970 36733 123138c0 29785 15892 66967 41279 78761 3798 1899 5897 1000 6797-2799 600-2898 4098-16591 5697-23088 500-1999 300-3898-1399-5897-8396-10195-15192-28985-15192-46377 0-44878 33983-88356 91854-88356 49975 0 84957 33983 84957 82759 0 55072-27786 93254-63968 93254-19990 0-34982-16492-30085-36781 5797-24188 16891-50275 16891-67666 0-15592-8296-28585-25787-28585-20490 0-36781 21089-36781 49475 0 17991 5997 30185 5997 30185s-20190 85257-23888 101150c-4098 17591-2499 42279-700 58371l1799 15792 200-101z" fill="#bd081c"/></svg>